<?xml version="1.0" encoding="iso-8859-1"?>
<!-- Generator: Adobe Illustrator 21.0.0, SVG Export Plug-In . SVG Version: 6.00 Build 0)  -->
<svg xmlns="http://www.w3.org/2000/svg" xmlns:xlink="http://www.w3.org/1999/xlink" version="1.1" id="Capa_1" x="0px" y="0px" viewBox="0 0 512 512" style="enable-background:new 0 0 512 512;" xml:space="preserve" width="512px" height="512px">
<g>
	<path d="M493.156,44.371H444c-4.142,0-7.5,3.358-7.5,7.5s3.358,7.5,7.5,7.5h49.156c2.12,0,3.844,1.724,3.844,3.844v291.358   c0,2.12-1.724,3.844-3.844,3.844h-28.475v-14.944c0-15.401-14.587-27.932-32.518-27.932h-19.111   c-0.351-0.461-26.117-26.178-26.117-26.178c-3.377-3.364-9.067-5.714-13.835-5.714h-70.05c-4.142,0-7.5,3.358-7.5,7.5v24.392   H79.836c-17.93,0-32.518,12.53-32.518,27.932v14.944H18.844c-2.12,0-3.844-1.724-3.844-3.844V63.215   c0-2.12,1.724-3.844,3.844-3.844H412c4.142,0,7.5-3.358,7.5-7.5s-3.358-7.5-7.5-7.5H299.799V17.5c0-9.649-7.851-17.5-17.5-17.5   H229.7c-9.649,0-17.5,7.851-17.5,17.5v26.871H18.844C8.453,44.371,0,52.824,0,63.215v291.358c0,10.391,8.453,18.844,18.844,18.844   H212.2v65.287c0,9.673,15,9.673,15,0v-65.271h57.599V497H227.2v-23.403c0-9.673-15-9.673-15,0V497H84.834c-9.673,0-9.673,15,0,15   h342.333c9.673,0,9.673-15,0-15H299.799V373.417h193.357c10.391,0,18.844-8.453,18.844-18.844V63.215   C512,52.824,503.547,44.371,493.156,44.371z M227.2,17.5c0-1.355,1.145-2.5,2.5-2.5h52.599c1.355,0,2.5,1.145,2.5,2.5v26.871H227.2   V17.5z M310.551,298.649h62.547c0.813,0.014,2.669,0.78,3.254,1.343l15.617,15.549h-81.418V298.649z M62.318,343.473   c0-7.01,8.022-12.932,17.518-12.932h228.215h97.08h27.033c9.496,0,17.518,5.922,17.518,12.932v14.944H62.318V343.473z" fill="#022F55"/>
	<path d="M434.152,259.76c14.388,0,26.093-11.674,26.093-26.023c0-14.341-11.705-26.008-26.093-26.008   c-4.662,0-9.038,1.231-12.83,3.375l-81.675-78.062c1.789-3.499,2.767-7.381,2.82-11.412c0.11-6.952-2.505-13.531-7.365-18.525   c-4.85-4.984-11.351-7.789-18.326-7.899c-14.33-0.186-26.26,11.313-26.487,25.663c-0.04,3.043,0.453,5.972,1.386,8.703   l-69.53,63.664c-4.384-3.331-9.85-5.313-15.774-5.313c-14.387,0-26.092,11.679-26.092,26.034c0,0.447,0.011,0.892,0.034,1.334   l-78.105,25.644c-4.722-6.72-12.542-11.126-21.379-11.126c-14.373,0-26.065,11.667-26.065,26.009   c0,14.355,11.693,26.035,26.065,26.035c14.387,0,26.092-11.679,26.092-26.035c0-0.213-0.011-0.424-0.016-0.636l78.493-25.772   c4.758,6.4,12.386,10.558,20.973,10.558c14.388,0,26.093-11.668,26.093-26.01c0-2.98-0.511-5.843-1.44-8.512l69.466-63.606   c4.302,3.308,9.666,5.314,15.497,5.406c0,0,0,0,0,0c0.142,0.002,0.284,0.003,0.425,0.003c4.575,0,8.972-1.175,12.853-3.378   l81.657,78.045c-1.826,3.55-2.863,7.566-2.863,11.822C408.061,248.086,419.765,259.76,434.152,259.76z M80.83,266.851   c-6.102,0-11.065-4.95-11.065-11.035c0-6.07,4.964-11.009,11.065-11.009c6.129,0,11.298,5.236,11.079,11.386   C91.7,262.073,86.709,266.851,80.83,266.851z M445.245,233.737c0,6.078-4.976,11.023-11.093,11.023   c-6.116,0-11.092-4.945-11.092-11.023c0-5.993,5.117-11.008,11.092-11.008C440.269,222.729,445.245,227.667,445.245,233.737z    M206.372,224.966c-6.116,0-11.092-4.939-11.092-11.01c0-6.084,4.976-11.034,11.092-11.034c6.117,0,11.093,4.95,11.093,11.034   C217.465,220.027,212.489,224.966,206.372,224.966z M316.227,132.247c-6.112-0.097-11.019-5.112-10.938-11.16   c0.097-6.081,5.162-10.947,11.271-10.882c6.518,0.103,11.627,5.983,10.816,12.444C326.684,128.159,321.765,132.34,316.227,132.247z   " fill="#022F55"/>
	<path d="M56.807,123.5h82.09c9.673,0,9.673-15,0-15h-82.09C47.134,108.5,47.134,123.5,56.807,123.5z" fill="#022F55"/>
	<path d="M56.807,170.981H98.86c9.673,0,9.673-15,0-15H56.807C47.134,155.981,47.134,170.981,56.807,170.981z" fill="#022F55"/>
</g>















</svg>
