<?xml version="1.0" encoding="iso-8859-1"?>
<!-- Generator: Adobe Illustrator 19.0.0, SVG Export Plug-In . SVG Version: 6.00 Build 0)  -->
<svg xmlns="http://www.w3.org/2000/svg" xmlns:xlink="http://www.w3.org/1999/xlink" version="1.1" id="Capa_1" x="0px" y="0px" viewBox="0 0 511.992 511.992" style="enable-background:new 0 0 511.992 511.992;" xml:space="preserve" width="512" height="512">
<g>
	<path d="M159.438,276.213c1.434,0,2.884-0.411,4.165-1.269c7.994-5.351,17.328-8.179,26.993-8.179   c14.011,0,27.344,6.052,36.581,16.604c1.482,1.694,3.559,2.56,5.646,2.56c1.753,0,3.514-0.611,4.937-1.857   c3.117-2.728,3.432-7.466,0.703-10.583c-1.996-2.28-4.151-4.383-6.42-6.333c3.359-3.439,5.287-8.07,5.287-13.017v-25.517   c0-4.142-3.358-7.5-7.5-7.5s-7.5,3.358-7.5,7.5v25.517c0,1.741-1.042,2.671-1.663,3.071c-0.534,0.345-1.974,1.058-3.767,0.242   c-8.288-3.773-17.138-5.687-26.305-5.687c-12.646,0-24.866,3.705-35.337,10.714c-3.442,2.304-4.365,6.962-2.061,10.404   C154.645,275.045,157.02,276.213,159.438,276.213z"/>
	<path d="M478.496,394.552h-27.92c-2.735-15.762-13.957-28.689-29.242-33.55c-0.022-0.293-0.056-0.582-0.083-0.873   c-0.019-0.205-0.036-0.411-0.058-0.615c-0.074-0.701-0.161-1.397-0.266-2.088c-0.002-0.012-0.003-0.025-0.005-0.037   c-2.903-19.061-17.273-34.4-36.028-38.566c0.064-1.158,0.097-2.312,0.097-3.458c0-35.067-28.529-63.597-63.597-63.597   c-9.167,0-18.018,1.913-26.306,5.687c-1.791,0.815-3.231,0.102-3.766-0.242c-0.621-0.4-1.663-1.33-1.663-3.071v-25.517   c0-4.142-3.358-7.5-7.5-7.5s-7.5,3.358-7.5,7.5v25.517c0,6.378,3.195,12.242,8.546,15.685c5.425,3.491,12.191,3.97,18.098,1.279   c6.323-2.878,13.082-4.338,20.09-4.338c26.796,0,48.597,21.801,48.597,48.597c0,0.86-0.033,1.728-0.081,2.599   c-6.154,0.627-12.157,2.446-17.58,5.392c-3.64,1.977-4.987,6.531-3.01,10.17c1.978,3.639,6.529,4.988,10.17,3.01   c4.619-2.509,9.86-3.835,15.159-3.835c0.532,0,1.061,0.014,1.586,0.04c0.001,0,0.002,0,0.002,0c0.306,0.015,0.607,0.043,0.91,0.067   c0.236,0.019,0.473,0.031,0.707,0.054c0.157,0.016,0.312,0.04,0.468,0.057c0.386,0.045,0.771,0.089,1.153,0.147   c0.031,0.005,0.062,0.011,0.094,0.016c13.609,2.122,24.388,12.9,26.511,26.509c0.005,0.033,0.012,0.065,0.017,0.098   c0.069,0.449,0.123,0.902,0.173,1.357c0.009,0.082,0.022,0.162,0.03,0.244c0.044,0.431,0.073,0.866,0.099,1.302   c0.006,0.102,0.017,0.203,0.022,0.305c0.027,0.536,0.041,1.075,0.041,1.617c0,0.574-0.021,1.212-0.066,1.95   c-0.231,3.842,2.484,7.236,6.284,7.854c11.09,1.802,19.708,9.846,22.544,20.235H365.68c-3.866-57.141-51.58-102.45-109.684-102.45   s-105.818,45.309-109.684,102.45H76.766c2.837-10.389,11.454-18.433,22.544-20.235c0.798-0.13,1.544-0.388,2.229-0.741   c0.73,0.237,1.508,0.369,2.318,0.369c8.701,0,16.772,3.936,22.144,10.797c1.479,1.89,3.684,2.877,5.911,2.877   c1.617,0,3.246-0.521,4.618-1.595c3.262-2.554,3.836-7.268,1.283-10.529c-7.789-9.95-19.286-15.878-31.801-16.49   c2.507-14.402,14.668-25.528,29.742-26.266c2.152-0.105,4.155-1.132,5.499-2.817c1.343-1.685,1.896-3.866,1.519-5.988   c-0.511-2.874-0.771-5.758-0.771-8.573c0-7.271,1.564-14.261,4.649-20.774c1.773-3.744,0.175-8.216-3.568-9.989   c-3.746-1.775-8.215-0.176-9.989,3.568c-4.043,8.537-6.093,17.687-6.093,27.195c0,1.146,0.033,2.301,0.097,3.458   c-19.927,4.426-34.908,21.464-36.44,42.18c-15.284,4.861-26.507,17.789-29.242,33.55h-27.92c-4.142,0-7.5,3.358-7.5,7.5   s3.358,7.5,7.5,7.5h112.815c1.256,18.551,7.155,36.415,17.261,52.064c2.247,3.48,6.889,4.478,10.369,2.231   c3.479-2.247,4.479-6.889,2.231-10.369c-9.893-15.319-15.122-33.104-15.122-51.432c0-52.353,42.592-94.945,94.945-94.945   s94.945,42.592,94.945,94.945s-42.592,94.945-94.945,94.945c-22.544,0-44.396-8.038-61.53-22.633   c-3.153-2.686-7.887-2.308-10.573,0.846c-2.686,3.153-2.307,7.887,0.846,10.573c19.846,16.905,45.152,26.214,71.257,26.214   c58.101,0,105.812-45.304,109.683-102.44h112.817c4.142,0,7.5-3.358,7.5-7.5S482.638,394.552,478.496,394.552z"/>
	<path d="M316.52,347.859c-15.399-17.189-37.459-27.048-60.524-27.048c-44.794,0-81.237,36.443-81.237,81.237   s36.443,81.237,81.237,81.237s81.237-36.443,81.237-81.237c0-8.689-1.366-17.243-4.06-25.424c-1.296-3.936-5.537-6.076-9.469-4.778   c-3.935,1.295-6.074,5.535-4.778,9.469c2.194,6.665,3.307,13.64,3.307,20.732c0,36.523-29.714,66.237-66.237,66.237   s-66.237-29.714-66.237-66.237s29.714-66.237,66.237-66.237c18.806,0,36.794,8.04,49.352,22.057   c2.764,3.085,7.505,3.346,10.59,0.582C319.024,355.686,319.284,350.944,316.52,347.859z"/>
	<path d="M211.565,379.208c-3.924-1.317-8.179,0.795-9.498,4.721c-1.957,5.825-2.949,11.921-2.949,18.118   c0,31.363,25.515,56.878,56.878,56.878s56.878-25.515,56.878-56.878s-25.515-56.878-56.878-56.878c-4.142,0-7.5,3.358-7.5,7.5   s3.358,7.5,7.5,7.5c23.092,0,41.878,18.786,41.878,41.878s-18.786,41.878-41.878,41.878s-41.878-18.786-41.878-41.878   c0-4.57,0.729-9.059,2.168-13.342C217.605,384.779,215.492,380.527,211.565,379.208z"/>
	<path d="M255.996,409.547c1.919,0,3.839-0.732,5.303-2.197c2.929-2.929,2.929-7.678,0-10.606l-31.46-31.46   c-2.929-2.929-7.678-2.929-10.606,0c-2.929,2.929-2.929,7.678,0,10.606l31.46,31.46   C252.157,408.815,254.077,409.547,255.996,409.547z"/>
	<path d="M169.796,168.092c0,4.942,0.445,9.987,1.323,14.994c0.628,3.588,3.745,6.206,7.387,6.206h38.417   c1.384,3.696,2.8,7.283,4.241,10.723c1.168,2.788,3.895,4.602,6.917,4.602h55.83c3.022,0,5.75-1.814,6.917-4.602   c1.441-3.44,2.857-7.026,4.241-10.723h38.417c3.643,0,6.759-2.617,7.387-6.206c0.878-5.007,1.323-10.052,1.323-14.994   c0-22.982-9.244-45.051-25.49-61.186c1.68-10.875,2.625-20.763,2.625-28.811c0-10.512-3.228-20.304-8.181-29.147   c-0.014-0.026-0.024-0.054-0.039-0.081c-0.087-0.155-0.181-0.304-0.269-0.458c-0.333-0.584-0.674-1.164-1.021-1.739   c-0.134-0.222-0.266-0.445-0.402-0.666c-0.445-0.721-0.901-1.435-1.366-2.142c-0.132-0.2-0.267-0.398-0.4-0.598   c-0.419-0.625-0.846-1.246-1.28-1.86c-0.093-0.132-0.184-0.265-0.278-0.396c-0.534-0.748-1.079-1.485-1.633-2.216   c-0.081-0.107-0.164-0.214-0.245-0.321c-17.166-22.46-43.027-36.698-44.649-37.576c-0.207-0.112-0.422-0.203-0.636-0.294   c-0.074-0.031-0.145-0.073-0.22-0.102c-0.047-0.018-0.096-0.028-0.143-0.046c-1.947-0.712-4.116-0.59-5.986,0.368   c-0.052,0.027-0.107,0.046-0.159,0.074l0,0l-0.001,0c-0.009,0.005-0.045,0.025-0.068,0.037c-0.015,0.008-0.02,0.011-0.04,0.022   c-0.034,0.019-0.08,0.044-0.13,0.072c-0.039,0.021-0.073,0.041-0.121,0.067c-0.06,0.033-0.128,0.072-0.203,0.114   c-0.056,0.032-0.112,0.063-0.177,0.1c-0.084,0.048-0.172,0.098-0.271,0.154c-0.077,0.044-0.158,0.09-0.242,0.139   c-0.105,0.061-0.21,0.121-0.327,0.189c-0.1,0.058-0.209,0.121-0.318,0.185c-0.121,0.071-0.238,0.139-0.369,0.216   c-0.146,0.086-0.306,0.181-0.465,0.275c-0.11,0.065-0.211,0.125-0.327,0.194c-0.28,0.167-0.578,0.347-0.891,0.538   c-0.086,0.052-0.18,0.11-0.269,0.165c-0.245,0.149-0.494,0.302-0.756,0.465c-0.108,0.067-0.222,0.138-0.333,0.208   c-0.261,0.162-0.526,0.328-0.802,0.502c-0.115,0.073-0.233,0.147-0.35,0.222c-0.295,0.187-0.597,0.38-0.907,0.58   c-0.105,0.068-0.209,0.135-0.316,0.204c-0.352,0.228-0.713,0.463-1.084,0.707c-0.077,0.05-0.151,0.099-0.228,0.15   c-1.342,0.885-2.79,1.864-4.329,2.945c-0.015,0.011-0.028,0.023-0.044,0.034c-1.149,0.807-2.341,1.664-3.574,2.576   c-3.329,2.464-4.031,7.161-1.566,10.49c2.464,3.329,7.161,4.03,10.49,1.566c4.692-3.473,8.828-6.138,11.589-7.827   c2.597,1.59,6.414,4.045,10.783,7.235c0.027,0.019,0.053,0.038,0.079,0.058c1.366,0.999,2.789,2.074,4.242,3.212   c0.182,0.143,0.365,0.287,0.549,0.432c0.576,0.455,1.156,0.921,1.74,1.397c0.147,0.12,0.293,0.235,0.44,0.356   c0.646,0.531,1.298,1.079,1.951,1.633c0.292,0.248,0.584,0.501,0.877,0.754c0.416,0.359,0.833,0.726,1.25,1.095   c0.305,0.27,0.61,0.538,0.916,0.813c0.567,0.511,1.133,1.034,1.698,1.562c0.315,0.295,0.631,0.593,0.949,0.896   c0.422,0.403,0.843,0.812,1.263,1.224c0.457,0.45,0.915,0.906,1.373,1.372c0.244,0.247,0.486,0.498,0.729,0.748   c0.58,0.6,1.158,1.209,1.733,1.833c0.087,0.094,0.173,0.19,0.26,0.284c1.164,1.271,2.314,2.59,3.436,3.953h-68.553   c0.563-0.683,1.142-1.365,1.736-2.045c2.725-3.12,2.404-7.858-0.717-10.583c-3.119-2.724-7.857-2.403-10.582,0.716   c-1.624,1.861-3.151,3.737-4.583,5.622c-0.045,0.056-0.094,0.107-0.138,0.165c-0.936,1.237-1.814,2.477-2.662,3.719   c-0.101,0.148-0.204,0.296-0.304,0.444c-0.354,0.524-0.698,1.048-1.035,1.573c-0.127,0.197-0.252,0.394-0.377,0.592   c-0.323,0.511-0.643,1.023-0.951,1.534c-0.108,0.179-0.21,0.358-0.316,0.537c-6.05,10.226-9.122,20.545-9.122,30.782   c0,8.048,0.945,17.937,2.625,28.811C179.04,123.041,169.796,145.11,169.796,168.092z M327.196,168.092   c0,2.047-0.093,4.119-0.278,6.2h-26.604c5.152-15.747,9.625-32.597,12.938-48.484C322.217,137.963,327.196,152.779,327.196,168.092   z M299.983,60.04c2.671,5.689,4.347,11.763,4.347,18.056c0,8.185-1.049,18.422-2.902,29.703c-0.099,0.392-0.161,0.79-0.196,1.19   c-4.294,25.529-12.636,56.183-22.361,80.628H233.12c-9.724-24.445-18.067-55.099-22.361-80.628c-0.035-0.4-0.097-0.798-0.196-1.19   c-1.853-11.281-2.902-21.518-2.902-29.703c0-5.881,1.458-11.921,4.331-18.056H299.983z M211.678,174.292h-26.604   c-0.185-2.081-0.278-4.153-0.278-6.2c0-15.313,4.979-30.129,13.944-42.285C202.053,141.695,206.525,158.545,211.678,174.292z"/>
	<path d="M255.996,120.215c14.164,0,25.687-11.523,25.687-25.688c0-14.164-11.523-25.688-25.687-25.688   c-14.164,0-25.688,11.523-25.688,25.688C230.309,108.692,241.832,120.215,255.996,120.215z M255.996,83.84   c5.893,0,10.687,4.794,10.687,10.688c0,5.894-4.794,10.688-10.687,10.688c-5.893,0-10.688-4.794-10.688-10.688   C245.309,88.634,250.103,83.84,255.996,83.84z"/>
</g>















</svg>
