<?xml version="1.0" encoding="iso-8859-1"?>
<!-- Generator: Adobe Illustrator 19.0.0, SVG Export Plug-In . SVG Version: 6.00 Build 0)  -->
<svg xmlns="http://www.w3.org/2000/svg" xmlns:xlink="http://www.w3.org/1999/xlink" version="1.1" id="Layer_1" x="0px" y="0px" viewBox="0 0 512 512" style="enable-background:new 0 0 512 512;" xml:space="preserve" width="512px" height="512px">
<g>
	<g>
		<path d="M453.588,183.958c-4.215-1.35-8.73,0.972-10.081,5.188l-6.088,19.005c-9.488-36-29.622-68.622-58.008-93.436    C345.252,84.854,301.423,68.409,256,68.409c-10.726,0-21.458,0.918-31.959,2.72c-20.18-37.235-59.615-62.578-104.859-62.578    C53.465,8.551,0,62.016,0,127.733s53.465,119.182,119.182,119.182s119.182-53.465,119.182-119.182    c0-14.574-2.635-28.545-7.445-41.465c8.271-1.21,16.677-1.826,25.082-1.826c41.54,0,81.621,15.038,112.858,42.344    c26.289,22.982,44.839,53.278,53.376,86.683l-15.294-15.746c-3.084-3.176-8.16-3.249-11.336-0.165    c-3.176,3.085-3.25,8.16-0.165,11.336l34.739,35.767c1.527,1.572,3.61,2.431,5.751,2.431c0.609,0,1.224-0.069,1.83-0.212    c2.742-0.643,4.945-2.678,5.804-5.359l15.212-47.483C460.128,189.823,457.804,185.309,453.588,183.958z M119.182,230.881    c-56.876,0-103.148-46.272-103.148-103.148S62.306,24.585,119.182,24.585c56.876,0,103.148,46.272,103.148,103.148    C222.33,184.609,176.057,230.881,119.182,230.881z" fill="#022F55"/>
	</g>
</g>
<g>
	<g>
		<path d="M127.198,121.875V85.166c11.014,2.054,18.171,8.139,18.171,13.706c0,4.427,3.589,8.017,8.017,8.017    s8.017-3.589,8.017-8.017c0-15.098-14.492-27.299-34.205-29.93v-9.619c0-4.427-3.589-8.017-8.017-8.017s-8.017,3.589-8.017,8.017    v9.619C91.452,71.574,76.96,83.775,76.96,98.873c0,21.354,18.87,29.654,34.205,34.718v36.709    c-11.014-2.054-18.171-8.139-18.171-13.706c0-4.427-3.589-8.017-8.017-8.017s-8.017,3.589-8.017,8.017    c0,15.098,14.492,27.298,34.205,29.93v9.619c0,4.427,3.589,8.017,8.017,8.017s8.017-3.589,8.017-8.017v-9.619    c19.713-2.632,34.205-14.831,34.205-29.93C161.403,135.239,142.533,126.939,127.198,121.875z M111.165,116.524    c-13.679-5.219-18.171-9.94-18.171-17.652c0-5.567,7.157-11.652,18.171-13.706V116.524z M127.198,170.299v-31.358    c13.679,5.219,18.171,9.94,18.171,17.652C145.37,162.16,138.212,168.245,127.198,170.299z" fill="#022F55"/>
	</g>
</g>
<g>
	<g>
		<path d="M392.818,265.086c-65.717,0-119.182,53.465-119.182,119.182c0,14.574,2.635,28.545,7.445,41.465    c-8.271,1.21-16.677,1.826-25.082,1.826c-41.54,0-81.621-15.038-112.858-42.344c-26.289-22.982-44.839-53.278-53.376-86.683    l15.294,15.746c3.085,3.177,8.16,3.25,11.336,0.165c3.176-3.085,3.25-8.16,0.165-11.336l-34.739-35.767    c-1.961-2.02-4.84-2.862-7.581-2.219c-2.742,0.643-4.945,2.678-5.804,5.359l-15.213,47.484c-1.351,4.216,0.973,8.73,5.188,10.081    c0.813,0.261,1.638,0.384,2.448,0.384c3.392,0,6.543-2.17,7.633-5.573l6.088-19.005c9.487,36,29.622,68.622,58.009,93.436    c34.159,29.862,77.988,46.307,123.41,46.307c10.726,0,21.458-0.918,31.959-2.72c20.18,37.235,59.615,62.578,104.859,62.578    c65.717,0,119.182-53.465,119.182-119.182S458.535,265.086,392.818,265.086z M392.818,487.415    c-56.876,0-103.148-46.272-103.148-103.148c0-56.876,46.272-103.148,103.148-103.148c56.876,0,103.148,46.272,103.148,103.148    C495.967,441.143,449.694,487.415,392.818,487.415z" fill="#022F55"/>
	</g>
</g>
<g>
	<g>
		<path d="M438.783,411.121c-4.057-1.773-8.784,0.08-10.555,4.138c-5.532,12.665-18.035,20.85-31.853,20.85    c-19.155,0-34.739-15.584-34.739-34.739v-9.086h31.183c4.427,0,8.017-3.589,8.017-8.017c0-4.427-3.589-8.017-8.017-8.017h-31.183    v-9.086c0-19.155,15.584-34.739,34.739-34.739c13.809,0,26.31,8.177,31.846,20.832c1.774,4.056,6.502,5.907,10.557,4.131    c4.056-1.774,5.906-6.501,4.131-10.557c-8.089-18.491-26.355-30.439-46.534-30.439c-27.995,0-50.772,22.777-50.772,50.772v9.086    h-4.091c-4.427,0-8.017,3.589-8.017,8.017c0,4.427,3.589,8.017,8.017,8.017h4.091v9.086c0,27.995,22.777,50.772,50.772,50.772    c20.192,0,38.463-11.959,46.546-30.466C444.693,417.619,442.84,412.893,438.783,411.121z" fill="#022F55"/>
	</g>
</g>
<g>
</g>
<g>
</g>
<g>
</g>
<g>
</g>
<g>
</g>
<g>
</g>
<g>
</g>
<g>
</g>
<g>
</g>
<g>
</g>
<g>
</g>
<g>
</g>
<g>
</g>
<g>
</g>
<g>
</g>
</svg>
