<?xml version="1.0"?>
<svg xmlns="http://www.w3.org/2000/svg" height="512px" viewBox="0 -8 512 512" width="512px"><path d="m504.496094 480.765625h-15.351563v-275.773437c0-13.375-10.878906-24.257813-24.25-24.257813h-56.621093c-13.371094 0-24.25 10.882813-24.25 24.257813v71.628906l-27.273438-62.296875 22.640625-24.75c12.042969-13.164063 15.003906-32.148438 7.542969-48.359375l-5.050782-10.964844-8.535156-21.347656c-1.539062-3.847656-5.90625-5.722656-9.753906-4.179688-3.851562 1.539063-5.722656 5.902344-4.183594 9.753906l5.761719 14.402344-20.464844 7.675782-8.425781 3.160156-6.347656 2.382812-19.996094-45.28125 5.707031-2.277344c3.851563-1.535156 5.730469-5.898437 4.195313-9.75-1.535156-3.851562-5.902344-5.726562-9.753906-4.191406l-81.136719 32.347656c-3.980469 1.601563-8.34375 1.550782-12.289063-.136718-1.679687-.71875-3.199218-1.699219-4.511718-2.898438l101.847656-47.671875c.410156-.167969.816406-.347656 1.21875-.539062l2.546875-1.222657c4.335937-2.003906 9.175781-2.1875 13.652343-.507812 4.441407 1.667969 7.957032 4.960938 9.910157 9.28125l7.210937 18.039062c1.539063 3.847657 5.910156 5.71875 9.757813 4.179688 3.847656-1.539062 5.71875-5.90625 4.179687-9.753906l-7.269531-18.179688c-.03125-.085937-.070313-.171875-.105469-.257812-3.589844-8.089844-10.128906-14.253906-18.410156-17.363282-1.113281-.417968-2.242188-.769531-3.375-1.0625 1.550781-5.175781 1.261719-10.925781-1.253906-16.171874l-7.613282-15.890626c-2.59375-5.421874-7.148437-9.503906-12.816406-11.5-5.667968-1.996093-11.777344-1.664062-17.195312.933594l-6.285156 3.011719c-11.179688 5.363281-15.914063 18.820313-10.558594 30.003906l7.613281 15.894531c1.085937 2.265626 2.53125 4.277344 4.238281 6.023438l-91.523437 42.839844c-3.605469 1.6875-5.265625 5.890625-3.789063 9.585937 3.085938 7.710938 8.988282 13.757813 16.625 17.027344 3.929688 1.679687 8.070313 2.519531 12.214844 2.519531 3.910156 0 7.824219-.75 11.558594-2.246094l61.457031-24.503906 21.015625 47.601563-48.476562 49.203125c-7.347657 7.457031-8.695313 18.921875-3.28125 27.878906l35.429687 58.601562c-4.179687 4.359376-6.757813 10.273438-6.757813 16.777344v45.339844c-2.851562-1.179688-5.972656-1.832031-9.242187-1.832031h-56.613281c-13.371094 0-24.253906 10.878906-24.253906 24.253906v22.257813c-2.851563-1.179688-5.972657-1.835938-9.242188-1.835938h-30.484375l5.566406-45.054688c1.191407-9.6875-3.089843-19.089843-11.171875-24.535156l-41.339844-27.894531-.824218-52.910156 45.734375-27.800781c16.585937-10.078126 24.574219-30.191407 19.429687-48.910157-.605468-2.207031-2.1875-4.019531-4.296875-4.917969-2.105469-.894531-4.507812-.78125-6.523437.3125l-67.101563 36.460938c-.367187-2.261719-1.082031-4.507812-2.179687-6.65625l-8.03125-15.6875c-2.738282-5.347656-7.398438-9.3125-13.117188-11.15625s-11.816406-1.351562-17.164062 1.390625l-6.199219 3.175781c-11.035156 5.65625-15.417969 19.234375-9.765625 30.273438l8.03125 15.683594c1.714844 3.351562 4.183594 6.15625 7.191406 8.238281-5.066406 6.121093-7.976562 13.898437-7.976562 22.121093v20.667969c0 4.144531 3.359375 7.503907 7.503906 7.503907 4.148438 0 7.507812-3.359376 7.507812-7.503907v-20.667969c0-7.226562 3.941407-13.859374 10.289063-17.308593l88.269531-47.957031c-.769531 8.933593-5.710937 17.28125-13.660156 22.113281l-49.160156 29.882812c-.058594.035157-.117188.070313-.175782.105469l-15.589843 9.480469c-3.542969 2.152343-4.667969 6.769531-2.515625 10.3125 2.152344 3.539062 6.769531 4.667969 10.308594 2.511719l4.324218-2.625.667969 42.898437-27.890625 11.4375-4.867188 1.996094v-5.648438c0-4.144531-3.359374-7.503906-7.507812-7.503906-4.144531 0-7.503906 3.359375-7.503906 7.503906v16.835938c0 .597656.078125 1.222656.21875 1.800781l13.515625 54.578125c.40625 1.644531.199219 3.375-.589844 4.875l-29.609375 56.320313c-8.414062 3.808593-14.285156 12.28125-14.285156 22.101562v24.296875h-16.085938c-4.144531 0-7.503906 3.359375-7.503906 7.507813 0 4.144531 3.359375 7.503906 7.503906 7.503906h496.992188c4.144531 0 7.503906-3.359375 7.503906-7.503906 0-4.148438-3.359375-7.507813-7.503906-7.507813zm-201.488282-432.292969c-1.886718-.664062-3.402343-2.023437-4.265624-3.824218l-7.613282-15.894532c-1.78125-3.722656-.207031-8.199218 3.511719-9.984375l6.285156-3.011719c1.023438-.492187 2.125-.738281 3.230469-.738281.835938 0 1.675781.140625 2.488281.425781 1.886719.664063 3.402344 2.023438 4.265625 3.828126l7.613282 15.894531c1.78125 3.71875.207031 8.195312-3.511719 9.980469l-3.589844 1.722656c-.011719.003906-.019531.007812-.027344.011718l-3.324219 1.554688c-1.632812.601562-3.40625.617188-5.0625.035156zm-239.304687 131.328125 6.199219-3.179687c1.074218-.546875 2.234375-.828125 3.40625-.828125.769531 0 1.550781.121093 2.304687.367187 1.902344.613282 3.453125 1.929688 4.363281 3.710938l8.03125 15.6875c1.738282 3.394531.621094 7.507812-2.460937 9.59375l-2.25 1.226562-4.738281 2.425782c-1.78125.914062-3.808594 1.078124-5.710938.460937-1.902344-.613281-3.453125-1.929687-4.363281-3.710937l-8.03125-15.6875c-1.878906-3.667969-.421875-8.1875 3.25-10.066407zm304.609375-.359375-23.914062 26.144532c-3.324219 3.636718-4.117188 8.832031-2.042969 13.289062l25.96875 59.308594h-3.117188l-46.582031-63.363282c-.035156-.046874-.066406-.089843-.097656-.132812l-.308594-.417969c-.074219-.101562-.148438-.199219-.230469-.296875-.941406-1.15625-1.261719-2.707031-.851562-4.140625l14.972656-52.519531 10.609375-3.980469 28.367188-10.640625 2.210937 4.800782c4.929687 10.710937 2.972656 23.25-4.984375 31.949218zm-35.371094 98.742188-16.109375-40.460938 29.742188 40.460938zm-53.726562-68.46875 31.441406-31.910156-7.953125 27.910156c-1.253906 4.394531-.910156 9.027344.859375 13.125l-2.4375 3.359375c-2.675781 3.695312-3.269531 8.4375-1.578125 12.695312l17.238281 43.289063h-3.09375l-35.601562-58.890625c-1.859375-3.074219-1.398438-7.015625 1.125-9.578125zm-124.464844 134.015625-5.796875 46.894531h-3.816406l-3.851563-39.1875c-.527344-5.496094-4.011718-10.273438-9.089844-12.46875l-13.429687-5.792969-.929687-21.457031 32.246093 21.761719c3.378907 2.273437 5.164063 6.203125 4.667969 10.25zm-41.050781 71.148437v19.171875c-2.851563-1.179687-5.972657-1.835937-9.242188-1.835937h-26.277343l36.335937-42.3125c4.121094-4.796875 6.238281-10.917969 5.964844-17.238282l-.992188-22.828124 6.757813 2.914062c.054687.023438.089844.070312.097656.140625l3.835938 39.019531c-9.570313 3.25-16.480469 12.316406-16.480469 22.96875zm-32.929688-29.851562c2.5-4.757813 3.164063-10.25 1.871094-15.46875l-11.953125-48.28125 8.515625-3.496094 23.453125-9.613281 2.828125 65.148437c.105469 2.496094-.730469 4.910156-2.355469 6.808594l-44.734375 52.089844h-2.429687zm-42.167969 71.441406c0-5.097656 4.144532-9.242188 9.242188-9.242188h56.613281c5.097657 0 9.242188 4.144532 9.242188 9.242188v24.296875h-75.097657zm90.109376 0v-41.589844c0-5.097656 4.144531-9.242187 9.242187-9.242187h.355469.023437 17.253907.023437 38.953125c5.097656 0 9.242188 4.144531 9.242188 9.242187v65.886719h-75.097657v-24.296875zm90.105468-41.589844v-44.675781c0-5.097656 4.148438-9.246094 9.246094-9.246094h56.609375c5.097656 0 9.242187 4.148438 9.242187 9.246094v110.5625h-75.097656zm180.21875 65.886719v-105.191406c0-4.148438-3.359375-7.507813-7.503906-7.507813-4.148438 0-7.507812 3.359375-7.507812 7.507813v105.191406h-75.097657v-178.324219c0-5.101562 4.144531-9.246094 9.242188-9.246094h56.613281c5.097656 0 9.242188 4.148438 9.242188 9.246094v35.816406c0 4.144532 3.359374 7.503907 7.503906 7.503907 4.148437 0 7.507812-3.359375 7.507812-7.503907v-133.265624c0-5.097657 4.144532-9.246094 9.238282-9.246094h56.617187c5.097656 0 9.238281 4.148437 9.238281 9.246094v275.777343h-75.09375zm0 0" fill="#022F55"/></svg>
