<?xml version="1.0"?>
<svg xmlns="http://www.w3.org/2000/svg" height="512px" viewBox="0 0 512 512" width="512px"><path d="m388.933594 149.765625c-13.507813 0-23.847656 5.835937-23.847656 21.511719v24.183594c0 15.84375 10.339843 21.515624 23.847656 21.515624 13.34375 0 23.683594-5.671874 23.683594-21.515624v-24.183594c0-15.675782-10.339844-21.511719-23.683594-21.511719zm9.507812 45.695313c0 6.171874-3.667968 9.003906-9.507812 9.003906-5.835938 0-9.339844-2.832032-9.339844-9.003906v-24.183594c0-6.171875 3.503906-9.003906 9.339844-9.003906 5.839844 0 9.507812 2.835937 9.507812 9.003906zm0 0" fill="#022F55"/><path d="m389.269531 95.394531c0-4.5-4.503906-7.503906-8.339843-7.503906-2.503907 0-4.835938 1.167969-6.003907 3.5l-60.039062 121.582031c-.335938.832032-.667969 1.832032-.667969 2.835938 0 3.5 3.167969 7.335937 7.835938 7.335937 2.835937 0 5.503906-1.332031 6.507812-3.667969l60.039062-121.082031c.5-1 .667969-2 .667969-3zm0 0" fill="#022F55"/><path d="m337.398438 140.257812v-24.183593c0-15.675781-10.339844-21.511719-23.679688-21.511719-13.507812 0-23.851562 5.835938-23.851562 21.511719v24.183593c0 15.679688 10.34375 21.515626 23.851562 21.515626 13.339844 0 23.679688-5.839844 23.679688-21.515626zm-14.175782 0c0 6.171876-3.667968 9.007813-9.503906 9.007813s-9.339844-2.835937-9.339844-9.007813v-24.183593c0-6.167969 3.503906-9.003907 9.339844-9.003907s9.503906 2.835938 9.503906 9.003907zm0 0" fill="#022F55"/><path d="m95.632812 173.671875h-30.53125c-6.933593 0-12.574218 5.640625-12.574218 12.574219v30.261718h-.824219c-4.167969 0-7.546875 3.378907-7.546875 7.542969 0 4.167969 3.378906 7.546875 7.546875 7.546875h178.488281c4.167969 0 7.542969-3.378906 7.542969-7.546875 0-4.164062-3.375-7.542969-7.542969-7.542969h-.828125v-44.117187c0-6.933594-5.640625-12.574219-12.574219-12.574219h-30.53125c-6.933593 0-12.574218 5.640625-12.574218 12.574219v44.117187h-4.898438v-126.835937c0-6.933594-5.640625-12.574219-12.574218-12.574219h-30.527344c-6.933594 0-12.574219 5.640625-12.574219 12.574219v126.835937h-4.898437v-30.261718c-.003907-6.933594-5.644532-12.574219-12.578126-12.574219zm-2.515624 42.835937h-25.5v-27.746093h25.5zm95.65625-41.601562h25.5v41.601562h-25.5zm-60.578126-82.71875h25.5v124.320312h-25.5zm0 0" fill="#022F55"/><path d="m437.015625 74.980469c-48.351563-48.351563-112.636719-74.980469-181.015625-74.980469-36.167969 0-71.132812 7.394531-103.917969 21.972656-31.671875 14.085938-59.753906 34.140625-83.472656 59.613282-2.839844 3.046874-2.667969 7.824218.382813 10.660156 3.046874 2.839844 7.820312 2.671875 10.660156-.378906 22.328125-23.976563 48.757812-42.851563 78.558594-56.105469 28.5625-12.703125 58.886718-19.59375 90.242187-20.546875v233.238281h-233.246094c1.4375-46.886719 16.277344-91.761719 43.140625-130.226563 2.386719-3.414062 1.550782-8.117187-1.867187-10.503906-3.417969-2.386718-8.117188-1.550781-10.503907 1.863282-30.078124 43.070312-45.976562 93.699218-45.976562 146.414062 0 34.492188 6.804688 67.933594 19.730469 98.824219-4.683594 12.15625-7.257813 25.351562-7.257813 39.136719 0 60.230468 49 109.230468 109.230469 109.230468 14.8125 0 28.945313-2.96875 41.839844-8.335937 29.09375 11.253906 60.320312 17.144531 92.457031 17.144531 68.378906 0 132.664062-26.628906 181.015625-74.980469 48.355469-48.351562 74.984375-112.640625 74.984375-181.019531s-26.628906-132.667969-74.984375-181.019531zm-173.472656 188.5625h31.632812l-31.632812 33.082031zm0 54.917969 52.507812-54.917969h47.015625l-99.523437 104.066406zm-141.839844 169.640624c-51.90625 0-94.140625-42.230468-94.140625-94.140624 0-51.910157 42.234375-94.140626 94.140625-94.140626 51.910156 0 94.140625 42.230469 94.140625 94.140626 0 51.910156-42.230469 94.140624-94.140625 94.140624zm59.921875-2.859374c29.679688-19.546876 49.308594-53.164063 49.308594-91.28125 0-60.230469-49-109.230469-109.230469-109.230469-39.175781 0-73.59375 20.738281-92.875 51.804687-8.210937-23.210937-12.851563-47.765625-13.621094-72.988281h233.25v202.003906c-.0625.5625-.066406 1.128907 0 1.691407v29.554687c-23.007812-.703125-45.453125-4.640625-66.832031-11.554687zm244.722656-58.894532c-29.945312 29.945313-66.382812 51.03125-106.140625 61.953125l170.699219-178.5c-9.945312 43.800781-32.019531 84.007813-64.558594 116.546875zm69.027344-143.054687-201.445312 210.652343c-9.988282 1.570313-20.128907 2.535157-30.386719 2.851563v-27.367187l118.832031-122.4375c2.902344-2.992188 2.832031-7.769532-.15625-10.671876-2.992188-2.898437-7.769531-2.828124-10.671875.160157l-108.003906 111.28125v-58.320313l120.402343-125.894531h58.390626l-47.640626 49.085937c-2.898437 2.988282-2.828124 7.765626.160157 10.667969 1.46875 1.421875 3.363281 2.128907 5.253906 2.128907 1.96875 0 3.9375-.761719 5.414063-2.289063l57.839843-59.59375h33.429688c-.199219 6.632813-.6875 13.21875-1.417969 19.746094zm-231.832031-34.835938v-233.238281c.820312.023438 1.632812.054688 2.453125.089844.878906.035156 1.761718.066406 2.640625.109375 1.089843.058593 2.175781.128906 3.261719.199219.867187.054687 1.730468.105468 2.59375.171874 1.105468.082032 2.207031.183594 3.308593.28125.839844.074219 1.683594.144532 2.523438.226563 1.128906.113281 2.257812.246094 3.386719.375.804687.089844 1.609374.171875 2.410156.269531 1.203125.152344 2.398437.320313 3.597656.488282.722656.101562 1.445312.191406 2.164062.296874 1.429688.210938 2.847657.449219 4.269532.683594.488281.082032.976562.152344 1.460937.234375 1.902344.332031 3.800781.683594 5.6875 1.058594.523438.101563 1.042969.21875 1.5625.328125 1.367188.277344 2.734375.558594 4.09375.863281.730469.160157 1.453125.339844 2.179688.511719 1.148437.265625 2.296875.53125 3.4375.8125.792969.199219 1.582031.414062 2.375.617188 1.066406.277343 2.136719.550781 3.203125.84375.824218.226562 1.640625.46875 2.464844.703124 1.023437.292969 2.046874.582032 3.066406.886719.839844.253907 1.671875.519531 2.507812.78125.996094.3125 1.988282.621094 2.980469.945313.84375.273437 1.679687.5625 2.519531.847656.976563.332031 1.953125.664062 2.921875 1.007812.84375.296876 1.683594.609376 2.523438.917969.957031.351563 1.917969.703125 2.871093 1.066407.84375.320312 1.679688.652343 2.519532.984374.941406.371094 1.882812.746094 2.820312 1.128907.839844.34375 1.675782.695312 2.511719 1.050781.929687.390625 1.855469.785156 2.777344 1.191406.835937.363282 1.664062.738282 2.496093 1.113282.914063.414062 1.832032.832031 2.742188 1.257812.828125.386719 1.648438.777344 2.472656 1.175781.90625.433594 1.808594.875 2.707032 1.320313.816406.40625 1.632812.820312 2.445312 1.234375.898438.460937 1.789062.921875 2.679688 1.390625.808593.425781 1.613281.859375 2.414062 1.292968.886719.480469 1.769531.964844 2.652344 1.457032.792968.445312 1.589844.894531 2.382812 1.347656.875.503906 1.746094 1.015625 2.617188 1.527344.785156.464844 1.570312.929687 2.347656 1.402344.867188.527343 1.734375 1.0625 2.59375 1.601562.773438.480469 1.542969.964844 2.308594 1.453125.859375.550781 1.714844 1.113281 2.570312 1.675781.757813.496094 1.511719.992188 2.265625 1.5.855469.578125 1.699219 1.164063 2.546875 1.753906.742188.511719 1.480469 1.023438 2.214844 1.542969.851562.601563 1.695312 1.21875 2.535156 1.835938.722656.523437 1.445313 1.046875 2.160156 1.582031.84375.632812 1.683594 1.277344 2.519532 1.921875.699218.535156 1.40625 1.070313 2.101562 1.617187.847656.664063 1.679688 1.34375 2.519532 2.019532.675781.542968 1.355468 1.082031 2.027343 1.636718.855469.707032 1.703125 1.429688 2.554688 2.152344.636719.539063 1.277343 1.074219 1.910156 1.621094.886719.769531 1.761719 1.554688 2.640625 2.335938.582031.519531 1.171875 1.03125 1.75 1.554687.96875.878906 1.921875 1.777344 2.875 2.671875.476562.449219.960938.886719 1.433594 1.339844 1.421875 1.355468 2.832031 2.730468 4.226562 4.125 1.367188 1.363281 2.714844 2.746094 4.042969 4.136718 35.890625 37.613282 58.253906 84.859376 64.632813 135.800782.945312 7.546875 1.539062 15.175781 1.773437 22.863281h-233.253906zm0 0" fill="#022F55"/><path d="m157.054688 453.53125c-10.65625 6.335938-22.878907 9.6875-35.351563 9.6875-38.1875 0-69.253906-31.070312-69.253906-69.257812 0-11.289063 2.625-22.050782 7.808593-31.980469 1.925782-3.695313.496094-8.253907-3.199218-10.179688-3.699219-1.929687-8.253906-.496093-10.179688 3.199219-6.230468 11.9375-9.519531 25.410156-9.519531 38.960938 0 46.507812 37.835937 84.347656 84.34375 84.347656 15.1875 0 30.078125-4.082032 43.0625-11.808594 3.582031-2.128906 4.757813-6.757812 2.628906-10.339844-2.128906-3.582031-6.761719-4.761718-10.339843-2.628906zm0 0" fill="#022F55"/><path d="m191.960938 432.566406c2.894531 0 5.65625-1.675781 6.902343-4.492187 4.769531-10.769531 7.1875-22.246094 7.1875-34.113281 0-46.507813-37.835937-84.34375-84.347656-84.34375-14.789063 0-29.34375 3.882812-42.085937 11.234374-3.609376 2.082032-4.847657 6.695313-2.765626 10.304688 2.082032 3.609375 6.695313 4.847656 10.304688 2.765625 10.453125-6.03125 22.402344-9.214844 34.546875-9.214844 38.191406 0 69.257813 31.066407 69.257813 69.253907 0 9.75-1.980469 19.171874-5.894532 28.003906-1.683594 3.8125.035156 8.265625 3.847656 9.953125.992188.441406 2.027344.648437 3.046876.648437zm0 0" fill="#022F55"/><path d="m94.234375 417.785156c-4.101563 0-7.410156 5.558594-7.410156 9.261719 0 7.410156 12.042969 16.007813 28.050781 16.40625v3.703125c0 1.722656 1.984375 3.308594 4.496094 3.308594 2.25 0 4.5-1.585938 4.5-3.308594v-4.101562c14.816406-2.378907 25.003906-11.773438 25.003906-28.046876 0-17.992187-13.230469-23.945312-25.003906-28.3125v-23.285156c8.863281.660156 11.90625 4.894532 15.609375 4.894532 4.898437 0 7.011719-6.085938 7.011719-9.128907 0-7.671875-14.023438-10.1875-22.621094-10.453125v-3.4375c0-1.722656-2.25-3.308594-4.496094-3.308594-2.515625 0-4.5 1.585938-4.5 3.308594v3.703125c-13.230469 1.71875-25.667969 8.996094-25.667969 25.796875 0 16.9375 13.628907 22.097656 25.667969 26.59375v26.328125c-11.644531-1.320312-15.613281-9.921875-20.640625-9.921875zm28.578125-13.230468c5.6875 2.515624 9.921875 5.691406 9.921875 12.171874 0 6.21875-4.101563 9.660157-9.921875 10.847657zm-17.464844-31.484376c0-5.027343 3.96875-8.203124 10.582032-9.261718v19.976562c-6.085938-2.382812-10.582032-4.894531-10.582032-10.714844zm0 0" fill="#022F55"/></svg>
