<?xml version="1.0" encoding="iso-8859-1"?>
<!-- Generator: Adobe Illustrator 19.0.0, SVG Export Plug-In . SVG Version: 6.00 Build 0)  -->
<svg xmlns="http://www.w3.org/2000/svg" xmlns:xlink="http://www.w3.org/1999/xlink" version="1.1" id="Layer_1" x="0px" y="0px" viewBox="0 0 512 512" style="enable-background:new 0 0 512 512;" xml:space="preserve" width="512px" height="512px">
<g>
	<path d="M376.243,67.106c10.102,0,16.548,4.905,16.548,8.282c0,4.142,3.358,7.5,7.5,7.5s7.5-3.358,7.5-7.5   c0-11.208-10.217-20.324-24.3-22.681V51.59c0-4.142-3.358-7.5-7.5-7.5s-7.5,3.358-7.5,7.5v1.2   c-13.824,2.488-23.797,11.524-23.797,22.598c0,18.29,17.639,23.802,29.312,27.449c15.974,4.992,18.785,8.212,18.785,13.132   c0,3.377-6.447,8.282-16.548,8.282s-16.548-4.905-16.548-8.282c0-4.142-3.358-7.5-7.5-7.5s-7.5,3.358-7.5,7.5   c0,11.074,9.973,20.11,23.797,22.598v1.2c0,4.142,3.358,7.5,7.5,7.5s7.5-3.358,7.5-7.5v-1.116   c14.083-2.358,24.3-11.474,24.3-22.681c0-18.29-17.639-23.802-29.311-27.449c-15.975-4.992-18.786-8.212-18.786-13.132   C359.694,72.011,366.141,67.106,376.243,67.106z" fill="#022F55"/>
	<path d="M504.5,492.99h-24.564V147.783c0-8.556-6.96-15.516-15.516-15.516h-16.032c-8.555,0-15.516,6.96-15.516,15.516V492.99   h-33.097V211.912c0-8.556-6.96-15.516-15.516-15.516h-16.032c-8.556,0-15.516,6.96-15.516,15.516v72.146c0,4.142,3.358,7.5,7.5,7.5   s7.5-3.358,7.5-7.5v-72.146c0-0.285,0.231-0.516,0.516-0.516h16.032c0.285,0,0.516,0.231,0.516,0.516v112.741h-17.064v-8.532   c0-4.142-3.358-7.5-7.5-7.5s-7.5,3.358-7.5,7.5v176.87h-33.096V276.04c0-8.556-6.96-15.516-15.516-15.516h-16.032   c-8.556,0-15.516,6.96-15.516,15.516v216.95h-33.097V340.169c0-8.556-6.96-15.516-15.516-15.516h-16.032   c-8.555,0-15.516,6.96-15.516,15.516V492.99h-33.097v-8.533c0-4.142-3.358-7.5-7.5-7.5s-7.5,3.358-7.5,7.5v8.533h-17.064v-57.145   h17.064v16.548c0,4.142,3.358,7.5,7.5,7.5s7.5-3.358,7.5-7.5v-48.096c0-8.556-6.96-15.516-15.516-15.516h-16.032   c-8.556,0-15.516,6.96-15.516,15.516v88.693H79.132v-24.564c0-8.556-6.96-15.516-15.516-15.516H47.584   c-8.556,0-15.516,6.96-15.516,15.516v24.564H7.503c-4.142,0-7.5,3.358-7.5,7.5s3.358,7.5,7.5,7.5H504.5c4.142,0,7.5-3.358,7.5-7.5   S508.642,492.99,504.5,492.99z M127.744,403.782h16.032c0.285,0,0.516,0.231,0.516,0.516v16.548h-17.064v-16.548   C127.228,404.013,127.46,403.782,127.744,403.782z M448.387,147.267h16.032c0.285,0,0.516,0.231,0.516,0.516v80.677h-17.064   v-80.677C447.872,147.498,448.103,147.267,448.387,147.267z M447.872,243.46h17.064V492.99h-17.064V243.46z M367.711,339.653   h17.064V492.99h-17.064V339.653z M288.066,275.524h16.032c0.285,0,0.516,0.231,0.516,0.516v48.613H287.55V276.04   C287.55,275.756,287.781,275.524,288.066,275.524z M287.55,339.653h17.064V492.99H287.55V339.653z M207.905,339.653h16.032   c0.285,0,0.516,0.231,0.516,0.516v64.645h-17.064v-64.645C207.389,339.884,207.621,339.653,207.905,339.653z M207.389,419.814   h17.064v73.177h-17.064V419.814z M47.068,468.426c0-0.285,0.231-0.516,0.516-0.516h16.032c0.285,0,0.516,0.231,0.516,0.516v24.564   H47.068V468.426z" fill="#022F55"/>
	<path d="M280.05,179.331h128.257c4.142,0,7.5-3.358,7.5-7.5s-3.358-7.5-7.5-7.5H280.05c-22.385,0-40.597-18.211-40.597-40.596   c0-20.446,15.296-37.75,35.581-40.25c2.85-0.351,5.249-2.298,6.178-5.015c3.968-11.592,14.775-19.38,26.894-19.38   c1.466,0,3.081,0.168,5.082,0.528c3.136,0.564,6.284-0.912,7.854-3.684c12.908-22.776,37.131-36.925,63.217-36.925   c29.285,0,55.572,17.435,66.967,44.416c0.991,2.346,3.104,4.029,5.613,4.469C480.11,71.979,497,92.092,497,115.719   c0,4.734-0.677,9.409-2.013,13.896c-1.182,3.97,1.078,8.146,5.048,9.328c3.971,1.183,8.146-1.079,9.328-5.048   c1.75-5.876,2.637-11.992,2.637-18.176c0-29.563-20.202-54.923-48.591-61.77C448.895,23.48,418.253,4.01,384.259,4.01   c-29.777,0-57.538,15.269-73.627,40.17c-0.861-0.06-1.699-0.09-2.526-0.09c-16.99,0-32.282,9.972-39.365,25.241   c-25.543,5.274-44.288,27.914-44.288,54.404C224.453,154.391,249.394,179.331,280.05,179.331z" fill="#022F55"/>
	<path d="M7.504,425.074c1.685,0,3.379-0.564,4.778-1.722l229.07-189.581l-5.244,16.868c-1.229,3.955,0.98,8.159,4.936,9.388   c0.742,0.23,1.491,0.34,2.229,0.34c3.197,0,6.16-2.062,7.16-5.276l12.731-40.954c0.744-2.395,0.243-5.003-1.337-6.95   c-1.579-1.948-4.028-2.978-6.524-2.743l-42.701,3.999c-4.124,0.386-7.154,4.042-6.768,8.167c0.386,4.124,4.041,7.153,8.167,6.768   l18.474-1.73L2.718,411.796c-3.191,2.641-3.637,7.369-0.996,10.56C3.206,424.148,5.346,425.074,7.504,425.074z" fill="#022F55"/>
</g>















</svg>
