<?xml version="1.0"?>
<svg xmlns="http://www.w3.org/2000/svg" height="512px" viewBox="0 -30 512 512" width="512px"><path d="m504.5 328.75c4.144531 0 7.5-3.359375 7.5-7.5v-298.75c0-12.40625-10.09375-22.5-22.5-22.5s-22.5 10.09375-22.5 22.5v50.5h-46.75v-12.5c0-15.164062-12.335938-27.5-27.5-27.5s-27.5 12.335938-27.5 27.5v12.5h-123.75v-12.5c0-15.164062-12.335938-27.5-27.5-27.5-7.871094 0-14.980469 3.324219-20 8.644531-5.019531-5.320312-12.128906-8.644531-20-8.644531s-14.980469 3.324219-20 8.644531c-5.019531-5.320312-12.128906-8.644531-20-8.644531-15.164062 0-27.5 12.335938-27.5 27.5v12.5h-61.5v-50.5c0-12.40625-10.09375-22.5-22.5-22.5s-22.5 10.09375-22.5 22.5v74.75c0 4.140625 3.359375 7.5 7.5 7.5s7.5-3.359375 7.5-7.5v-74.75c0-4.136719 3.363281-7.5 7.5-7.5s7.5 3.363281 7.5 7.5v406c0 4.136719-3.363281 7.5-7.5 7.5s-7.5-3.363281-7.5-7.5v-299.25c0-4.140625-3.359375-7.5-7.5-7.5s-7.5 3.359375-7.5 7.5v299.25c0 12.40625 10.09375 22.5 22.5 22.5s22.5-10.09375 22.5-22.5v-50.5h101.5v12.988281c0 15.164063 12.335938 27.5 27.5 27.5 7.871094 0 14.980469-3.328125 20-8.644531 5.019531 5.316406 12.128906 8.644531 20 8.644531s14.980469-3.328125 20-8.644531c5.019531 5.316406 12.128906 8.644531 20 8.644531 15.164062 0 27.5-12.335937 27.5-27.5v-12.988281h45v12.988281c0 15.164063 12.335938 27.5 27.5 27.5s27.5-12.335937 27.5-27.5v-12.988281h85.5v50.5c0 12.40625 10.09375 22.5 22.5 22.5s22.5-10.09375 22.5-22.5v-75c0-4.140625-3.355469-7.5-7.5-7.5s-7.5 3.359375-7.5 7.5v75c0 4.136719-3.363281 7.5-7.5 7.5s-7.5-3.363281-7.5-7.5v-406c0-4.136719 3.363281-7.5 7.5-7.5s7.5 3.363281 7.5 7.5v298.75c0 4.140625 3.355469 7.5 7.5 7.5zm-124.25-268.25c0-6.894531 5.605469-12.5 12.5-12.5s12.5 5.605469 12.5 12.5v40c0 6.894531-5.605469 12.5-12.5 12.5s-12.5-5.605469-12.5-12.5zm-166.25-12.5c6.894531 0 12.5 5.605469 12.5 12.5v40c0 6.894531-5.605469 12.5-12.5 12.5s-12.5-5.605469-12.5-12.5v-40c0-6.894531 5.605469-12.5 12.5-12.5zm-40 0c6.894531 0 12.5 5.605469 12.5 12.5v40c0 6.894531-5.605469 12.5-12.5 12.5s-12.5-5.605469-12.5-12.5v-40c0-6.894531 5.605469-12.5 12.5-12.5zm-52.5 12.5c0-6.894531 5.605469-12.5 12.5-12.5s12.5 5.605469 12.5 12.5v40c0 6.894531-5.605469 12.5-12.5 12.5s-12.5-5.605469-12.5-12.5zm52.5 342.988281c-6.894531 0-12.5-5.609375-12.5-12.5v-40c0-6.894531 5.605469-12.5 12.5-12.5s12.5 5.605469 12.5 12.5v40c0 6.890625-5.605469 12.5-12.5 12.5zm40 0c-6.894531 0-12.5-5.609375-12.5-12.5v-40c0-6.894531 5.605469-12.5 12.5-12.5s12.5 5.605469 12.5 12.5v40c0 6.890625-5.605469 12.5-12.5 12.5zm52.5-12.5c0 6.890625-5.605469 12.5-12.5 12.5s-12.5-5.609375-12.5-12.5v-40c0-6.894531 5.605469-12.5 12.5-12.5s12.5 5.605469 12.5 12.5zm100 0c0 6.890625-5.605469 12.5-12.5 12.5s-12.5-5.609375-12.5-12.5v-40c0-6.894531 5.605469-12.5 12.5-12.5s12.5 5.605469 12.5 12.5zm15-27.988281v-12.011719c0-15.164062-12.335938-27.5-27.5-27.5s-27.5 12.335938-27.5 27.5v12.011719h-45v-12.011719c0-15.164062-12.335938-27.5-27.5-27.5-7.871094 0-14.980469 3.324219-20 8.644531-5.019531-5.320312-12.128906-8.644531-20-8.644531s-14.980469 3.324219-20 8.644531c-5.019531-5.320312-12.128906-8.644531-20-8.644531-15.164062 0-27.5 12.335938-27.5 27.5v12.011719h-101.5v-130h51c4.140625 0 7.5-3.359375 7.5-7.5s-3.359375-7.5-7.5-7.5h-51v-130h61.5v12.5c0 15.164062 12.335938 27.5 27.5 27.5 7.871094 0 14.980469-3.324219 20-8.644531 5.019531 5.320312 12.128906 8.644531 20 8.644531s14.980469-3.324219 20-8.644531c5.019531 5.320312 12.128906 8.644531 20 8.644531 15.164062 0 27.5-12.335938 27.5-27.5v-12.5h123.75v12.5c0 15.164062 12.335938 27.5 27.5 27.5s27.5-12.335938 27.5-27.5v-12.5h46.75v130h-45.5v-12.5c0-15.164062-12.335938-27.5-27.5-27.5-7.871094 0-14.980469 3.324219-20 8.644531-5.019531-5.320312-12.128906-8.644531-20-8.644531s-14.980469 3.324219-20 8.644531c-5.019531-5.320312-12.128906-8.644531-20-8.644531-15.164062 0-27.5 12.335938-27.5 27.5v12.5h-45v-12.5c0-15.164062-12.335938-27.5-27.5-27.5s-27.5 12.335938-27.5 27.5v12.5h-58.5c-4.140625 0-7.5 3.359375-7.5 7.5s3.359375 7.5 7.5 7.5h58.5v12.5c0 15.164062 12.335938 27.5 27.5 27.5s27.5-12.335938 27.5-27.5v-12.5h45v12.5c0 15.164062 12.335938 27.5 27.5 27.5 7.871094 0 14.980469-3.324219 20-8.644531 5.019531 5.320312 12.128906 8.644531 20 8.644531s14.980469-3.324219 20-8.644531c5.019531 5.320312 12.128906 8.644531 20 8.644531 15.164062 0 27.5-12.335938 27.5-27.5v-12.5h45.5v130zm0-157.5c0-6.894531 5.605469-12.5 12.5-12.5s12.5 5.605469 12.5 12.5v40c0 6.894531-5.605469 12.5-12.5 12.5s-12.5-5.605469-12.5-12.5zm-15 40c0 6.894531-5.605469 12.5-12.5 12.5s-12.5-5.605469-12.5-12.5v-40c0-6.894531 5.605469-12.5 12.5-12.5s12.5 5.605469 12.5 12.5zm-40 0c0 6.894531-5.605469 12.5-12.5 12.5s-12.5-5.605469-12.5-12.5v-40c0-6.894531 5.605469-12.5 12.5-12.5s12.5 5.605469 12.5 12.5zm-125-40c0-6.894531 5.605469-12.5 12.5-12.5s12.5 5.605469 12.5 12.5v40c0 6.894531-5.605469 12.5-12.5 12.5s-12.5-5.605469-12.5-12.5zm0 0" fill="#022F55"/></svg>
