<?xml version="1.0" encoding="iso-8859-1"?>
<!-- Generator: Adobe Illustrator 19.0.0, SVG Export Plug-In . SVG Version: 6.00 Build 0)  -->
<svg xmlns="http://www.w3.org/2000/svg" xmlns:xlink="http://www.w3.org/1999/xlink" version="1.1" id="Capa_1" x="0px" y="0px" viewBox="0 0 512 512" style="enable-background:new 0 0 512 512;" xml:space="preserve" width="512px" height="512px">
<g>
	<g>
		<g>
			<path d="M508.932,254.449l-63.531-46.53c-3.727-2.729-8.603-3.126-12.721-1.038c-4.12,2.09-6.679,6.257-6.679,10.877v27.953     l-51.6-37.792c-3.727-2.729-8.602-3.126-12.721-1.038c-4.12,2.09-6.679,6.257-6.679,10.877v27.953L303.4,207.919     c-3.728-2.728-8.602-3.127-12.721-1.036c-4.119,2.09-6.678,6.257-6.678,10.876V306h-11.162l-4.618-27.295     c-0.816-4.824-3.733-8.81-7.72-11.1V263c0-39.425-32.075-71.5-71.5-71.5s-71.5,32.075-71.5,71.5v4.605     c-3.987,2.29-6.903,6.276-7.72,11.1L105.162,306H93.287L82.862,118.031C82.486,110.724,76.459,105,69.142,105H39.858     c-7.29,0-13.299,5.682-13.717,12.95L0.019,487.972c-0.146,2.076,0.576,4.119,1.995,5.642S5.419,496,7.5,496h497     c4.142,0,7.5-3.357,7.5-7.5v-228C512,258.109,510.859,255.862,508.932,254.449z M41.033,120H67.95l2.052,37h-31.58L41.033,120z      M37.362,172h33.471l2.495,45H34.185L37.362,172z M33.127,232h41.034l2.218,40H30.302L33.127,232z M29.244,287h47.967l2.496,45     h-53.64L29.244,287z M25.008,347h55.53l1.553,28h-59.06L25.008,347z M21.973,390h60.95l2.496,45H18.796L21.973,390z M15.547,481     l2.188-31H86.25l1.719,31H15.547z M253.43,281.207L257.625,306h-34.249l4.194-24.793c0.069-0.409,0.421-0.707,0.837-0.707h24.186     C253.009,280.5,253.361,280.798,253.43,281.207z M132.5,263c0-31.154,25.346-56.5,56.5-56.5s56.5,25.346,56.5,56.5v2.5h-10V263     c0-25.641-20.86-46.5-46.5-46.5s-46.5,20.859-46.5,46.5v2.5h-10V263z M220.5,263v4.605c-3.987,2.29-6.903,6.276-7.72,11.1     L208.162,306h-38.324l-4.618-27.295c-0.816-4.824-3.733-8.81-7.72-11.1V263c0-17.369,14.131-31.5,31.5-31.5     S220.5,245.631,220.5,263z M124.57,281.207c0.069-0.409,0.421-0.707,0.837-0.707h24.186c0.416,0,0.768,0.298,0.837,0.707     L154.625,306h-34.249L124.57,281.207z M355,481h-56v-88.5c0-4.143-3.358-7.5-7.5-7.5c-4.142,0-7.5,3.357-7.5,7.5V481H102.993     l-6.426-115.873L94.119,321H284v41.5c0,4.143,3.358,7.5,7.5,7.5c4.142,0,7.5-3.357,7.5-7.5V223.289l56,41.015V481z M426,481h-56     V223.289l56,41.015V481z M497,481h-56V223.289l56,41.015V481z" fill="#022F55"/>
			<path d="M317.37,474h20.261c5.718,0,10.37-4.652,10.37-10.37V345.37c0-5.718-4.652-10.37-10.37-10.37H317.37     c-5.718,0-10.37,4.652-10.37,10.37v118.26C307,469.348,311.652,474,317.37,474z M322,350h11v109h-11V350z" fill="#022F55"/>
			<path d="M408.63,335h-20.26c-5.718,0-10.37,4.652-10.37,10.37v118.26c0,5.718,4.652,10.37,10.37,10.37h20.261     c5.718,0,10.37-4.652,10.37-10.37V345.37C419,339.652,414.348,335,408.63,335z M404,459h-11V350h11V459z" fill="#022F55"/>
			<path d="M459.37,474h20.261c5.718,0,10.37-4.652,10.37-10.37V345.37c0-5.718-4.652-10.37-10.37-10.37H459.37     c-5.718,0-10.37,4.652-10.37,10.37v118.26C449,469.348,453.652,474,459.37,474z M464,350h11v109h-11V350z" fill="#022F55"/>
			<path d="M314.5,327c4.142,0,7.5-3.357,7.5-7.5v-10c0-4.143-3.358-7.5-7.5-7.5c-4.142,0-7.5,3.357-7.5,7.5v10     C307,323.643,310.358,327,314.5,327z" fill="#022F55"/>
			<path d="M340.5,327c4.142,0,7.5-3.357,7.5-7.5v-10c0-4.143-3.358-7.5-7.5-7.5c-4.142,0-7.5,3.357-7.5,7.5v10     C333,323.643,336.358,327,340.5,327z" fill="#022F55"/>
			<path d="M314.5,296c4.142,0,7.5-3.357,7.5-7.5v-10c0-4.143-3.358-7.5-7.5-7.5c-4.142,0-7.5,3.357-7.5,7.5v10     C307,292.643,310.358,296,314.5,296z" fill="#022F55"/>
			<path d="M340.5,296c4.142,0,7.5-3.357,7.5-7.5v-10c0-4.143-3.358-7.5-7.5-7.5c-4.142,0-7.5,3.357-7.5,7.5v10     C333,292.643,336.358,296,340.5,296z" fill="#022F55"/>
			<path d="M383.5,327c4.142,0,7.5-3.357,7.5-7.5v-10c0-4.143-3.358-7.5-7.5-7.5c-4.142,0-7.5,3.357-7.5,7.5v10     C376,323.643,379.358,327,383.5,327z" fill="#022F55"/>
			<path d="M409.5,327c4.142,0,7.5-3.357,7.5-7.5v-10c0-4.143-3.358-7.5-7.5-7.5c-4.142,0-7.5,3.357-7.5,7.5v10     C402,323.643,405.358,327,409.5,327z" fill="#022F55"/>
			<path d="M383.5,296c4.142,0,7.5-3.357,7.5-7.5v-10c0-4.143-3.358-7.5-7.5-7.5c-4.142,0-7.5,3.357-7.5,7.5v10     C376,292.643,379.358,296,383.5,296z" fill="#022F55"/>
			<path d="M409.5,296c4.142,0,7.5-3.357,7.5-7.5v-10c0-4.143-3.358-7.5-7.5-7.5c-4.142,0-7.5,3.357-7.5,7.5v10     C402,292.643,405.358,296,409.5,296z" fill="#022F55"/>
			<path d="M456.5,327c4.142,0,7.5-3.357,7.5-7.5v-10c0-4.143-3.358-7.5-7.5-7.5c-4.142,0-7.5,3.357-7.5,7.5v10     C449,323.643,452.358,327,456.5,327z" fill="#022F55"/>
			<path d="M482.5,327c4.142,0,7.5-3.357,7.5-7.5v-10c0-4.143-3.358-7.5-7.5-7.5c-4.142,0-7.5,3.357-7.5,7.5v10     C475,323.643,478.358,327,482.5,327z" fill="#022F55"/>
			<path d="M456.5,296c4.142,0,7.5-3.357,7.5-7.5v-10c0-4.143-3.358-7.5-7.5-7.5c-4.142,0-7.5,3.357-7.5,7.5v10     C449,292.643,452.358,296,456.5,296z" fill="#022F55"/>
			<path d="M482.5,296c4.142,0,7.5-3.357,7.5-7.5v-10c0-4.143-3.358-7.5-7.5-7.5c-4.142,0-7.5,3.357-7.5,7.5v10     C475,292.643,478.358,296,482.5,296z" fill="#022F55"/>
			<path d="M148.941,343h-20.882c-6.098,0-11.059,4.961-11.059,11.06v20.881c0,6.099,4.961,11.06,11.059,11.06h20.882     c6.098,0,11.059-4.961,11.059-11.06V354.06C160,347.961,155.039,343,148.941,343z M145,371h-13v-13h13V371z" fill="#022F55"/>
			<path d="M202.941,343h-20.882c-6.098,0-11.059,4.961-11.059,11.06v20.881c0,6.099,4.961,11.06,11.059,11.06h20.882     c6.098,0,11.059-4.961,11.059-11.06V354.06C214,347.961,209.039,343,202.941,343z M199,371h-13v-13h13V371z" fill="#022F55"/>
			<path d="M256.941,343h-20.882c-6.098,0-11.059,4.961-11.059,11.06v20.881c0,6.099,4.961,11.06,11.059,11.06h20.882     c6.098,0,11.059-4.961,11.059-11.06V354.06C268,347.961,263.039,343,256.941,343z M253,371h-13v-13h13V371z" fill="#022F55"/>
			<path d="M148.941,396h-20.882c-6.098,0-11.059,4.961-11.059,11.06v20.881c0,6.099,4.961,11.06,11.059,11.06h20.882     c6.098,0,11.059-4.961,11.059-11.06V407.06C160,400.961,155.039,396,148.941,396z M145,424h-13v-13h13V424z" fill="#022F55"/>
			<path d="M202.941,396h-20.882c-6.098,0-11.059,4.961-11.059,11.06v20.881c0,6.099,4.961,11.06,11.059,11.06h20.882     c6.098,0,11.059-4.961,11.059-11.06V407.06C214,400.961,209.039,396,202.941,396z M199,424h-13v-13h13V424z" fill="#022F55"/>
			<path d="M256.941,396h-20.882c-6.098,0-11.059,4.961-11.059,11.06v20.881c0,6.099,4.961,11.06,11.059,11.06h20.882     c6.098,0,11.059-4.961,11.059-11.06V407.06C268,400.961,263.039,396,256.941,396z M253,424h-13v-13h13V424z" fill="#022F55"/>
			<path d="M44,80h6.193l4.087,14.53c0.826,2.938,3.351,5.083,6.385,5.423c0.28,0.031,0.56,0.047,0.837,0.047     c2.726,0,5.268-1.487,6.589-3.922L76.819,80H123c15.991,0,29-13.01,29-29s-13.009-29-29-29H44c-15.991,0-29,13.01-29,29     S28.008,80,44,80z M44,37h79c7.72,0,14,6.28,14,14c0,7.72-6.28,14-14,14H72.357c-2.75,0-5.279,1.505-6.591,3.922L63.72,72.69     l-0.625-2.221c-0.91-3.235-3.86-5.47-7.22-5.47H44c-7.72,0-14-6.28-14-14C30,43.279,36.28,37,44,37z" fill="#022F55"/>
			<path d="M138,107.5c0,14.061,11.439,25.5,25.5,25.5h40c14.061,0,25.5-11.439,25.5-25.5S217.561,82,203.5,82h-40     C149.44,82,138,93.439,138,107.5z M163.5,97h40c5.79,0,10.5,4.71,10.5,10.5s-4.71,10.5-10.5,10.5h-40     c-5.79,0-10.5-4.71-10.5-10.5S157.711,97,163.5,97z" fill="#022F55"/>
			<path d="M240.5,61h18c12.407,0,22.5-10.094,22.5-22.5S270.907,16,258.5,16h-18C228.093,16,218,26.094,218,38.5     S228.093,61,240.5,61z M240.5,31h18c4.136,0,7.5,3.364,7.5,7.5s-3.364,7.5-7.5,7.5h-18c-4.136,0-7.5-3.364-7.5-7.5     S236.364,31,240.5,31z" fill="#022F55"/>
		</g>
	</g>
</g>
<g>
</g>
<g>
</g>
<g>
</g>
<g>
</g>
<g>
</g>
<g>
</g>
<g>
</g>
<g>
</g>
<g>
</g>
<g>
</g>
<g>
</g>
<g>
</g>
<g>
</g>
<g>
</g>
<g>
</g>
</svg>
