<?xml version="1.0" encoding="iso-8859-1"?>
<!-- Generator: Adobe Illustrator 19.0.0, SVG Export Plug-In . SVG Version: 6.00 Build 0)  -->
<svg xmlns="http://www.w3.org/2000/svg" xmlns:xlink="http://www.w3.org/1999/xlink" version="1.1" id="Capa_1" x="0px" y="0px" viewBox="0 0 512 512" style="enable-background:new 0 0 512 512;" xml:space="preserve" width="512px" height="512px">
<g>
	<g>
		<path d="M131.08,71.894h-29.599c-4.828,0-8.755,3.928-8.755,8.755v40.294c-0.001,4.827,3.927,8.755,8.755,8.755h29.599    c4.828,0,8.755-3.928,8.755-8.755V80.649C139.835,75.822,135.908,71.894,131.08,71.894z M125.261,115.125h-17.963V86.467h17.963    V115.125z" fill="#022F55"/>
	</g>
</g>
<g>
	<g>
		<path d="M196.045,71.894h-29.6c-4.828,0-8.755,3.928-8.755,8.755v40.294c-0.001,4.827,3.927,8.755,8.755,8.755h29.6    c4.828,0,8.755-3.928,8.755-8.755V80.649C204.8,75.822,200.873,71.894,196.045,71.894z M190.226,115.125h-17.964V86.467h17.964    V115.125z" fill="#022F55"/>
	</g>
</g>
<g>
	<g>
		<path d="M261.008,71.894h-29.599c-4.828,0-8.755,3.928-8.755,8.755v40.294c0,4.827,3.927,8.755,8.755,8.755h29.599    c4.828,0,8.755-3.928,8.755-8.755V80.649C269.763,75.822,265.836,71.894,261.008,71.894z M255.19,115.125h-17.963V86.467h17.963    V115.125z" fill="#022F55"/>
	</g>
</g>
<g>
	<g>
		<path d="M131.078,181.516h-29.599c-4.828,0-8.755,3.928-8.755,8.755v40.295c0,4.827,3.927,8.755,8.755,8.755h29.599    c4.828,0,8.755-3.928,8.755-8.755v-40.295C139.833,185.444,135.906,181.516,131.078,181.516z M125.261,224.748h-17.963v-28.659    h17.963V224.748z" fill="#022F55"/>
	</g>
</g>
<g>
	<g>
		<path d="M196.044,181.516h-29.6c-4.828,0-8.755,3.928-8.755,8.755v40.295c0,4.827,3.927,8.755,8.755,8.755h29.6    c4.828,0,8.755-3.928,8.755-8.755v-40.295C204.799,185.444,200.872,181.516,196.044,181.516z M190.226,224.748h-17.964v-28.659    h17.964V224.748z" fill="#022F55"/>
	</g>
</g>
<g>
	<g>
		<path d="M261.008,181.516h-29.599c-4.828,0-8.755,3.928-8.755,8.755v40.295h0c0,4.827,3.927,8.755,8.755,8.755h29.599    c4.828,0,8.755-3.928,8.755-8.755v-40.295C269.763,185.444,265.836,181.516,261.008,181.516z M255.19,224.748h-17.963v-28.659    h17.963V224.748z" fill="#022F55"/>
	</g>
</g>
<g>
	<g>
		<path d="M131.078,291.14h-29.599c-4.828,0-8.755,3.928-8.755,8.755v40.294c0,4.827,3.927,8.755,8.755,8.755h29.599    c4.828,0,8.755-3.928,8.755-8.755v-40.294C139.833,295.068,135.906,291.14,131.078,291.14z M125.261,334.371h-17.963v-28.658    h17.963V334.371z" fill="#022F55"/>
	</g>
</g>
<g>
	<g>
		<path d="M196.044,291.14h-29.6c-4.828,0-8.755,3.928-8.755,8.755v40.294c0,4.827,3.927,8.755,8.755,8.755h29.6    c4.828,0,8.755-3.928,8.755-8.755v-40.294C204.799,295.068,200.872,291.14,196.044,291.14z M190.226,334.371h-17.964v-28.658    h17.964V334.371z" fill="#022F55"/>
	</g>
</g>
<g>
	<g>
		<path d="M261.008,291.14h-29.599c-4.828,0-8.755,3.928-8.755,8.755v40.294h0c0,4.827,3.927,8.755,8.755,8.755h29.599    c4.828,0,8.755-3.928,8.755-8.755v-40.294C269.763,295.068,265.836,291.14,261.008,291.14z M255.19,334.371h-17.963v-28.658    h17.963V334.371z" fill="#022F55"/>
	</g>
</g>
<g>
	<g>
		<path d="M131.078,400.762h-29.599c-4.828,0-8.755,3.928-8.755,8.755v40.294c0,4.827,3.927,8.755,8.755,8.755h29.599    c4.828,0,8.755-3.928,8.755-8.755v-40.294C139.833,404.69,135.906,400.762,131.078,400.762z M125.261,443.993h-17.963v-28.658    h17.963V443.993z" fill="#022F55"/>
	</g>
</g>
<g>
	<g>
		<path d="M261.008,400.762h-29.599c-4.828,0-8.755,3.928-8.755,8.755v40.294h0c0,4.827,3.927,8.755,8.755,8.755h29.599    c4.828,0,8.755-3.928,8.755-8.755v-40.294C269.763,404.69,265.836,400.762,261.008,400.762z M255.19,443.993h-17.963v-28.658    h17.963V443.993z" fill="#022F55"/>
	</g>
</g>
<g>
	<g>
		<path d="M467.928,472.169h-20.479l-0.055-115.78c-0.002-4.023-3.264-7.283-7.287-7.283c-0.001,0-0.002,0-0.003,0    c-4.024,0.002-7.285,3.266-7.283,7.29l0.055,115.772h-39.478v-36.234c0-5.735-4.666-10.401-10.402-10.401h-33.522    c-5.735,0-10.401,4.666-10.401,10.401v36.234h-39.356l-0.098-231.551h133.148l0.033,70.339c0.002,4.023,3.264,7.283,7.287,7.283    c0.001,0,0.002,0,0.003,0c4.024-0.002,7.285-3.266,7.283-7.29l-0.033-70.331h11.768c4.024,0,7.287-3.262,7.287-7.287v-24.8    c0-4.025-3.262-7.287-7.287-7.287H299.602l-0.07-164.47h7.242c5.186,0,9.405-4.219,9.405-9.405V9.405    c0-5.186-4.219-9.405-9.405-9.405H55.01c-5.186,0-9.405,4.219-9.405,9.405V27.37c0,5.186,4.219,9.405,9.405,9.405h7.051    l0.135,317.162c0.002,4.024,3.264,7.284,7.287,7.284c0.001,0,0.002,0,0.003,0c4.024-0.002,7.285-3.266,7.283-7.289L76.634,36.775    h208.325l0.185,435.394h-72.515v-72.892c0-5.88-4.783-10.662-10.662-10.662h-42.149c-5.879,0-10.662,4.783-10.662,10.662v72.892    H76.82l-0.031-72.966c-0.002-4.024-3.264-7.284-7.287-7.284c-0.001,0-0.002,0-0.003,0c-4.024,0.002-7.285,3.266-7.283,7.289    l0.031,72.96H44.072c-10.981,0-19.916,8.934-19.916,19.916S33.09,512,44.072,512h423.857c10.982,0,19.916-8.934,19.916-19.916    C487.844,481.102,478.91,472.169,467.928,472.169z M353.646,440.106h25.179v32.063h-25.179V440.106z M451.821,215.818v10.227    H299.612l-0.005-10.227H451.821z M60.179,22.202v-7.629h241.427v7.629H60.179z M163.728,403.188h34.328v68.981h-34.328V403.188z     M467.928,497.426H44.072c-2.946,0-5.343-2.397-5.343-5.342s2.397-5.342,5.343-5.342h423.856c2.946,0,5.342,2.397,5.342,5.342    S470.873,497.426,467.928,497.426z" fill="#022F55"/>
	</g>
</g>
<g>
	<g>
		<path d="M348.099,267.72h-27.358c-4.767,0-8.644,3.878-8.644,8.644v37.244c0,4.766,3.878,8.643,8.644,8.643H348.1    c4.767,0,8.644-3.878,8.644-8.643v-37.244C356.744,271.597,352.866,267.72,348.099,267.72z M342.171,307.678h-15.5v-25.385h15.5    V307.678z" fill="#022F55"/>
	</g>
</g>
<g>
	<g>
		<path d="M408.145,267.72h-27.358c-4.767,0-8.644,3.878-8.644,8.644v37.244c0,4.766,3.878,8.643,8.644,8.643h27.358    c4.767,0,8.644-3.878,8.644-8.643v-37.244C416.789,271.597,412.911,267.72,408.145,267.72z M402.216,307.678h-15.5v-25.385h15.5    V307.678z" fill="#022F55"/>
	</g>
</g>
<g>
	<g>
		<path d="M348.1,343.899h-27.358c-4.767,0-8.644,3.878-8.644,8.644v37.244c0,4.766,3.878,8.643,8.644,8.643H348.1    c4.767,0,8.644-3.878,8.644-8.643v-37.244C356.744,347.777,352.866,343.899,348.1,343.899z M342.171,383.858h-15.5v-25.385h15.5    V383.858z" fill="#022F55"/>
	</g>
</g>
<g>
	<g>
		<path d="M408.145,343.899h-27.358c-4.767,0-8.644,3.878-8.644,8.644v37.244c0,4.766,3.878,8.643,8.644,8.643h27.358    c4.767,0,8.644-3.878,8.644-8.643v-37.244C416.789,347.777,412.911,343.899,408.145,343.899z M402.216,383.858h-15.5v-25.385h15.5    V383.858z" fill="#022F55"/>
	</g>
</g>
<g>
</g>
<g>
</g>
<g>
</g>
<g>
</g>
<g>
</g>
<g>
</g>
<g>
</g>
<g>
</g>
<g>
</g>
<g>
</g>
<g>
</g>
<g>
</g>
<g>
</g>
<g>
</g>
<g>
</g>
</svg>
