<?xml version="1.0"?>
<svg xmlns="http://www.w3.org/2000/svg" height="512px" viewBox="0 0 511.99965 511" width="512px">
<path d="m388.652344 266.535156h-83.269532c-4.144531 0-7.5 3.359375-7.5 7.5v101.679688c-8.734374 4.273437-15.730468 11.832031-19.117187 21.382812-1.636719 4.605469-.921875 9.746094 1.90625 13.75 2.839844 4.023438 7.476563 6.429688 12.398437 6.429688h12.234376c.023437 0 .050781.003906.078124.003906h83.269532c.023437 0 .050781-.003906.074218-.003906h10.148438c4.925781 0 9.558594-2.40625 12.402344-6.429688 2.828125-4.003906 3.539062-9.144531 1.902344-13.75-3.113282-8.777344-9.273438-15.871094-17.03125-20.28125v-47.59375c0-.007812 0-.019531 0-.027344 0-.011718 0-.019531 0-.03125v-55.128906c0-4.140625-3.355469-7.5-7.496094-7.5zm-7.5 55.160156h-26.632813v-40.164062h26.632813zm-41.628906-40.164062v40.164062h-26.644532v-40.164062zm-26.644532 55.160156h26.644532v35.726563c-3.203126.550781-6.328126 1.503906-9.285157 2.851562-4.914062-2.238281-10.277343-3.410156-15.730469-3.410156-.542968 0-1.085937.011719-1.628906.035156zm86 65.585938h-105.808594c-.148437 0-.183593-.140625-.171874-.167969 3.238281-9.125 11.921874-15.253906 21.609374-15.253906 4.191407 0 8.289063 1.140625 11.851563 3.296875 2.386719 1.445312 5.378906 1.445312 7.765625 0 3.5625-2.15625 7.660156-3.296875 11.847656-3.296875 4.191406 0 8.289063 1.140625 11.851563 3.296875 2.386719 1.445312 5.378906 1.445312 7.765625 0 3.5625-2.15625 7.65625-3.296875 11.847656-3.296875 9.691406 0 18.375 6.128906 21.621094 15.28125 0 0-.035156.140625-.179688.140625zm-21.441406-30.417969c-5.453125 0-10.816406 1.171875-15.730469 3.410156-2.308593-1.050781-4.71875-1.859375-7.1875-2.425781v-36.152344h26.632813v35.359375c-1.226563-.121093-2.464844-.191406-3.714844-.191406zm0 0" class="house-front-window" fill="#5C9EFF"/>
<path d="m256.660156 121.035156c-24.9375 0-45.222656 20.289063-45.222656 45.226563s20.289062 45.226562 45.222656 45.226562c24.941406 0 45.226563-20.289062 45.226563-45.226562s-20.285157-45.226563-45.226563-45.226563zm0 75.457032c-16.667968 0-30.226562-13.5625-30.226562-30.230469s13.558594-30.230469 30.226562-30.230469c16.671875 0 30.230469 13.5625 30.230469 30.230469s-13.558594 30.230469-30.230469 30.230469zm0 0" class="house-round-window" fill="#5C9EFF"/>
<path d="m504.433594 496.644531h-14.660156c-2.3125-19.058593-13.304688-35.472656-28.910157-45.152343v-246.285157l3.925781 2.902344c13.230469 9.78125 31.953126 6.972656 41.734376-6.257813l3.648437-4.9375c3.066406-4.148437 2.183594-10.019531-1.964844-13.085937l-111.769531-82.621094c-3.332031-2.460937-8.027344-1.757812-10.488281 1.574219-2.460938 3.328125-1.757813 8.023438 1.574219 10.484375l107.238281 79.269531-.296875.402344c-4.863282 6.582031-14.179688 7.980469-20.761719 3.113281l-212.585937-157.140625c-2.648438-1.957031-6.265626-1.957031-8.914063 0l-212.582031 157.140625c-3.1875 2.355469-7.105469 3.332031-11.027344 2.742188-3.917969-.585938-7.378906-2.667969-9.734375-5.855469l-.296875-.398438 238.101562-176 97.457032 72.039063c3.328125 2.460937 8.023437 1.757813 10.488281-1.570313 2.460937-3.332031 1.753906-8.027343-1.574219-10.488281l-99.96875-73.898437c-3.828125-2.828125-8.972656-2.828125-12.796875 0l-245.15625 181.207031c-4.144531 3.066406-5.0273435 8.9375-1.960937 13.089844l3.648437 4.933593c4.738281 6.410157 11.6875 10.589844 19.570313 11.773438 1.5.222656 3 .335938 4.488281.335938 6.335937 0 12.484375-2.015626 17.675781-5.851563l3.925782-2.902344v139.835938c0 4.140625 3.359374 7.496093 7.5 7.496093 4.140624 0 7.496093-3.355468 7.496093-7.496093v-150.921875l184.894531-136.671875 4.648438-2.933594 188.867188 139.609375v250.644531c-5.566407-1.648437-11.449219-2.546875-17.542969-2.546875-18.566407 0-35.996094 8.226563-47.8125 22.574219-3.421875 4.15625-8.8125 5.75-13.414063 3.96875-4.359375-1.683594-8.957031-2.539063-13.664062-2.539063-18.339844 0-33.675782 13.089844-37.167969 30.414063h-55.972656v-18.214844c0-6.726562-5.472657-12.199219-12.195313-12.199219h-2.417968v-192.191406c0-4.140625-3.355469-7.496094-7.496094-7.496094h-109.738282c-4.140624 0-7.496093 3.355469-7.496093 7.496094v192.191406h-2.417969c-6.722656 0-12.195312 5.472657-12.195312 12.199219v18.214844h-13.070313c-2.738281-13.585937-12.761719-24.566406-25.804687-28.671875v-88.609375c0-4.140625-3.359376-7.5-7.5-7.5-4.140626 0-7.496094 3.359375-7.496094 7.5v87.046875c-16.707032 1.59375-30.28125 14.070312-33.539063 30.242188h-11.429687c-4.140625 0-7.496094 3.355468-7.496094 7.496093s3.355469 7.5 7.496094 7.5h496.9375c4.140625 0 7.5-3.359375 7.5-7.5s-3.359375-7.5-7.5-7.5zm-368.488282-215.113281h94.738282v184.695312h-94.738282zm-14.613281 199.691406h123.964844v15.417969h-123.964844zm-65.238281 0c10.015625 0 18.546875 6.453125 21.664062 15.417969h-17.796874c-.035157 0-.066407.003906-.097657.003906h-25.429687c3.113281-8.96875 11.648437-15.421875 21.660156-15.421875zm397.367188 15.421875c-.03125 0-.0625-.003906-.097657-.003906h-121.589843c3.113281-8.964844 11.648437-15.417969 21.660156-15.417969 2.847656 0 5.628906.515625 8.253906 1.527344 10.640625 4.117188 22.859375.734375 30.398438-8.417969 8.957031-10.875 22.167968-17.113281 36.234374-17.113281 23.324219 0 42.726563 17.105469 46.328126 39.425781zm0 0" class="house-outline" fill="#1670FF"/>
</svg>
