<?xml version="1.0"?>
<svg xmlns="http://www.w3.org/2000/svg" height="512px" viewBox="0 -3 511.99975 511" width="512px"><path d="m66.972656 387.976562h-34.886718c-17.691407 0-32.085938 14.394532-32.085938 32.089844v53.207032c0 17.695312 14.394531 32.085937 32.085938 32.085937h34.886718c17.691406 0 32.085938-14.390625 32.085938-32.085937v-53.207032c0-17.695312-14.394532-32.089844-32.085938-32.089844zm16.847656 85.296876c0 9.289062-7.558593 16.847656-16.847656 16.847656h-34.886718c-9.289063 0-16.84375-7.558594-16.84375-16.847656v-53.207032c0-9.289062 7.554687-16.847656 16.84375-16.847656h34.886718c9.289063 0 16.847656 7.558594 16.847656 16.847656zm0 0" fill="#022F55"/><path d="m194.429688 328.679688h-34.886719c-17.691407 0-32.085938 14.394531-32.085938 32.085937v65.109375c0 4.207031 3.410157 7.621094 7.617188 7.621094 4.210937 0 7.621093-3.414063 7.621093-7.621094v-65.109375c0-9.289063 7.558594-16.84375 16.847657-16.84375h34.886719c9.289062 0 16.84375 7.554687 16.84375 16.84375v112.507813c0 9.289062-7.558594 16.847656-16.84375 16.847656h-34.886719c-9.289063 0-16.847657-7.558594-16.847657-16.847656v-16.914063c0-4.210937-3.410156-7.621094-7.621093-7.621094-4.207031 0-7.617188 3.410157-7.617188 7.621094v16.914063c0 17.695312 14.394531 32.085937 32.085938 32.085937h34.886719c17.691406 0 32.085937-14.390625 32.085937-32.085937v-112.507813c0-17.691406-14.394531-32.085937-32.085937-32.085937zm0 0" fill="#022F55"/><path d="m321.878906 256.0625h-34.886718c-17.691407 0-32.085938 14.394531-32.085938 32.089844v185.121094c0 17.695312 14.394531 32.085937 32.085938 32.085937h34.886718c17.691406 0 32.085938-14.390625 32.085938-32.085937v-185.121094c0-17.695313-14.394532-32.089844-32.085938-32.089844zm16.847656 217.210938c0 9.289062-7.558593 16.847656-16.847656 16.847656h-34.886718c-9.289063 0-16.84375-7.558594-16.84375-16.847656v-185.121094c0-9.289063 7.554687-16.847656 16.84375-16.847656h34.886718c9.289063 0 16.847656 7.558593 16.847656 16.847656zm0 0" fill="#022F55"/><path d="m508.445312 106.875-53.847656-93.265625c-4.738281-8.207031-13.226562-13.109375-22.707031-13.109375-9.476563 0-17.96875 4.902344-22.707031 13.109375l-53.847656 93.265625c-4.738282 8.210938-4.738282 18.011719 0 26.21875 4.742187 8.210938 13.230468 13.109375 22.707031 13.109375h4.316406v32.773437c0 4.210938 3.414063 7.621094 7.621094 7.621094 4.210937 0 7.621093-3.410156 7.621093-7.621094v-40.390624c0-4.210938-3.410156-7.621094-7.621093-7.621094h-11.9375c-3.96875 0-7.523438-2.054688-9.507813-5.492188s-1.984375-7.539062 0-10.976562l53.847656-93.265625c1.984376-3.4375 5.539063-5.488281 9.507813-5.488281s7.523437 2.050781 9.507813 5.488281l53.847656 93.265625c1.984375 3.4375 1.984375 7.539062 0 10.976562s-5.539063 5.492188-9.507813 5.492188h-11.9375c-4.210937 0-7.621093 3.410156-7.621093 7.621094v334.6875c0 9.289062-7.554688 16.847656-16.847657 16.847656h-34.882812c-9.289063 0-16.847657-7.558594-16.847657-16.847656v-263.8125c0-4.210938-3.410156-7.621094-7.621093-7.621094-4.207031 0-7.621094 3.410156-7.621094 7.621094v263.8125c0 17.695312 14.394531 32.085937 32.089844 32.085937h34.882812c17.695313 0 32.089844-14.390625 32.089844-32.085937v-327.070313h4.316406c9.480469 0 17.96875-4.902344 22.707031-13.109375 4.738282-8.207031 4.738282-18.011719 0-26.21875zm0 0" fill="#022F55"/></svg>
