<?xml version="1.0"?>
<svg xmlns="http://www.w3.org/2000/svg" height="512px" viewBox="-1 0 511 511.99956" width="512px"><path d="m509.492188 251.265625c0-13.058594-10.625-23.683594-23.6875-23.683594h-135.507813v-96.84375l55.882813-19.835937c3.921874-1.394532 5.964843-5.683594 4.574218-9.605469-1.386718-3.910156-5.6875-5.957031-9.609375-4.574219-89.160156 31.648438-40.03125 14.21875-83.691406 29.714844 0-11.269531 0-99.078125 0-110.675781l155.910156 55.332031-43.859375 15.574219c-3.921875 1.382812-5.964844 5.683593-4.574218 9.605469 1.386718 3.910156 5.6875 5.957031 9.597656 4.570312l48.09375-17.074219c11.925781-4.226562 11.9375-21.121093 0-25.351562-175.394532-62.25-163.421875-58.371094-166.769532-58.371094-7.410156 0-13.4375 6.039063-13.4375 13.457031v214.078125h-35.25c-4.15625 0-7.523437 3.363281-7.523437 7.519531 0 4.152344 3.367187 7.519532 7.523437 7.519532h218.644532c4.765625 0 8.640625 3.878906 8.640625 8.644531v66.105469h-286.550781v-66.105469c0-4.765625 3.878906-8.644531 8.644531-8.644531h20.535156c4.15625 0 7.523437-3.367188 7.523437-7.519532 0-4.15625-3.367187-7.519531-7.523437-7.519531h-20.535156c-13.0625 0-23.6875 10.625-23.6875 23.683594v66.105469h-72.496094c-13.054687 0-23.683594 10.632812-23.683594 23.6875v66.113281h-72.492187c-13.066406 0-23.683594 10.617187-23.683594 23.683594v57.457031c0 13.066406 10.617188 23.6875 23.683594 23.6875h30.433594c4.152343 0 7.523437-3.359375 7.523437-7.519531 0-4.152344-3.371094-7.523438-7.523437-7.523438h-30.433594c-4.773438 0-8.640625-3.871093-8.640625-8.644531v-57.457031c0-4.773438 3.867187-8.644531 8.640625-8.644531h470.269531v66.101562c0 4.773438-3.882813 8.644531-8.644531 8.644531h-401.105469c-4.152344 0-7.523437 3.371094-7.523437 7.523438 0 4.160156 3.371093 7.519531 7.523437 7.519531h401.105469c13.054687 0 23.683594-10.621094 23.683594-23.6875.003906-8.277344 0-227.054688 0-237.046875zm-174.238282-23.691406h-17.800781v-85.535157c1.980469-.222656 1.601563-.207031 17.800781-5.957031zm159.199219 179.597656c-5.867187 0-378.34375 0-382.734375 0v-66.113281c0-4.761719 3.878906-8.644532 8.644531-8.644532 8.148438 0 363.542969.003907 374.089844.003907zm0 0" class="svgAnimator" fill="#6EBDFF"/></svg>
