<svg height="512pt" viewBox="0 0 512 512" width="512pt" xmlns="http://www.w3.org/2000/svg"><path d="m34.132812 59.734375h324.265626v418.132813h-324.265626zm0 0" fill="#cad9fc"/><path d="m34.132812 59.734375h298.667969v418.132813h-298.667969zm0 0" fill="#e8edfc"/><path d="m17.066406 460.800781h358.398438c4.714844 0 8.535156 3.820313 8.535156 8.53125v25.601563c0 4.710937-3.820312 8.53125-8.535156 8.53125h-358.398438c-4.710937 0-8.53125-3.820313-8.53125-8.53125v-25.601563c0-4.710937 3.820313-8.53125 8.53125-8.53125zm0 0" fill="#cad9fc"/><path d="m17.066406 460.800781h332.800782c4.710937 0 8.53125 3.820313 8.53125 8.53125v25.601563c0 4.710937-3.820313 8.53125-8.53125 8.53125h-332.800782c-4.710937 0-8.53125-3.820313-8.53125-8.53125v-25.601563c0-4.710937 3.820313-8.53125 8.53125-8.53125zm0 0" fill="#e8edfc"/><path d="m366.933594 25.601562v42.664063c-.015625 4.707031-3.828125 8.519531-8.535156 8.535156h-324.265626c-4.707031-.015625-8.519531-3.828125-8.53125-8.535156v-42.664063zm0 0" fill="#7facfa"/><path d="m341.332031 25.601562v42.664063c-.011719 4.707031-3.824219 8.519531-8.53125 8.535156h-298.667969c-4.707031-.015625-8.519531-3.828125-8.53125-8.535156v-42.664063zm0 0" fill="#a4c2f7"/><path d="m238.933594 384v76.800781h-85.332032v-76.800781c.027344-9.414062 7.652344-17.039062 17.066407-17.066406h51.199219c9.414062.027344 17.039062 7.652344 17.066406 17.066406zm0 0" fill="#cad9fc"/><path d="m213.332031 384v76.800781h-59.730469v-76.800781c.027344-9.414062 7.652344-17.039062 17.066407-17.066406h25.597656c9.414063.027344 17.039063 7.652344 17.066406 17.066406zm0 0" fill="#e8edfc"/><path d="m76.800781 366.933594h34.132813c4.710937 0 8.53125 3.820312 8.53125 8.53125v34.136718c0 4.710938-3.820313 8.53125-8.53125 8.53125h-34.132813c-4.714843 0-8.535156-3.820312-8.535156-8.53125v-34.136718c0-4.710938 3.820313-8.53125 8.535156-8.53125zm0 0" fill="#cad9fc"/><path d="m76.800781 281.601562h34.132813c4.710937 0 8.53125 3.820313 8.53125 8.53125v34.132813c0 4.714844-3.820313 8.535156-8.53125 8.535156h-34.132813c-4.714843 0-8.535156-3.820312-8.535156-8.535156v-34.132813c0-4.710937 3.820313-8.53125 8.535156-8.53125zm0 0" fill="#cad9fc"/><path d="m179.199219 281.601562h34.132812c4.714844 0 8.535157 3.820313 8.535157 8.53125v34.132813c0 4.714844-3.820313 8.535156-8.535157 8.535156h-34.132812c-4.710938 0-8.53125-3.820312-8.53125-8.535156v-34.132813c0-4.710937 3.820312-8.53125 8.53125-8.53125zm0 0" fill="#cad9fc"/><path d="m76.800781 196.265625h34.132813c4.710937 0 8.53125 3.820313 8.53125 8.535156v34.132813c0 4.710937-3.820313 8.53125-8.53125 8.53125h-34.132813c-4.714843 0-8.535156-3.820313-8.535156-8.53125v-34.132813c0-4.714843 3.820313-8.535156 8.535156-8.535156zm0 0" fill="#cad9fc"/><path d="m179.199219 196.265625h34.132812c4.714844 0 8.535157 3.820313 8.535157 8.535156v34.132813c0 4.710937-3.820313 8.53125-8.535157 8.53125h-34.132812c-4.710938 0-8.53125-3.820313-8.53125-8.53125v-34.132813c0-4.714843 3.820312-8.535156 8.53125-8.535156zm0 0" fill="#cad9fc"/><path d="m76.800781 110.933594h34.132813c4.710937 0 8.53125 3.820312 8.53125 8.53125v34.136718c0 4.710938-3.820313 8.53125-8.53125 8.53125h-34.132813c-4.714843 0-8.535156-3.820312-8.535156-8.53125v-34.136718c0-4.710938 3.820313-8.53125 8.535156-8.53125zm0 0" fill="#cad9fc"/><path d="m179.199219 110.933594h34.132812c4.714844 0 8.535157 3.820312 8.535157 8.53125v34.136718c0 4.710938-3.820313 8.53125-8.535157 8.53125h-34.132812c-4.710938 0-8.53125-3.820312-8.53125-8.53125v-34.136718c0-4.710938 3.820312-8.53125 8.53125-8.53125zm0 0" fill="#cad9fc"/><path d="m418.132812 110.933594h68.265626c9.425781 0 17.066406 7.640625 17.066406 17.066406v273.066406c0 9.425782-7.640625 17.066406-17.066406 17.066406h-68.265626c-9.425781 0-17.066406-7.640624-17.066406-17.066406v-273.066406c0-9.425781 7.640625-17.066406 17.066406-17.066406zm0 0" fill="#7facfa"/><path d="m418.132812 110.933594h42.667969c9.425781 0 17.066407 7.640625 17.066407 17.066406v273.066406c0 9.425782-7.640626 17.066406-17.066407 17.066406h-42.667969c-9.425781 0-17.066406-7.640624-17.066406-17.066406v-273.066406c0-9.425781 7.640625-17.066406 17.066406-17.066406zm0 0" fill="#a4c2f7"/><path d="m17.066406 8.535156h358.398438c4.714844 0 8.535156 3.820313 8.535156 8.53125v17.066406c0 4.714844-3.820312 8.535157-8.535156 8.535157h-358.398438c-4.710937 0-8.53125-3.820313-8.53125-8.535157v-17.066406c0-4.710937 3.820313-8.53125 8.53125-8.53125zm0 0" fill="#cad9fc"/><path d="m17.066406 8.535156h332.800782c4.710937 0 8.53125 3.820313 8.53125 8.53125v17.066406c0 4.714844-3.820313 8.535157-8.53125 8.535157h-332.800782c-4.710937 0-8.53125-3.820313-8.53125-8.535157v-17.066406c0-4.710937 3.820313-8.53125 8.53125-8.53125zm0 0" fill="#e8edfc"/><path d="m281.601562 110.933594h34.132813c4.710937 0 8.53125 3.820312 8.53125 8.53125v34.136718c0 4.710938-3.820313 8.53125-8.53125 8.53125h-34.132813c-4.714843 0-8.535156-3.820312-8.535156-8.53125v-34.136718c0-4.710938 3.820313-8.53125 8.535156-8.53125zm0 0" fill="#cad9fc"/><path d="m281.601562 196.265625h34.132813c4.710937 0 8.53125 3.820313 8.53125 8.535156v34.132813c0 4.710937-3.820313 8.53125-8.53125 8.53125h-34.132813c-4.714843 0-8.535156-3.820313-8.535156-8.53125v-34.132813c0-4.714843 3.820313-8.535156 8.535156-8.535156zm0 0" fill="#cad9fc"/><path d="m281.601562 281.601562h34.132813c4.710937 0 8.53125 3.820313 8.53125 8.53125v34.132813c0 4.714844-3.820313 8.535156-8.53125 8.535156h-34.132813c-4.714843 0-8.535156-3.820312-8.535156-8.535156v-34.132813c0-4.710937 3.820313-8.53125 8.535156-8.53125zm0 0" fill="#cad9fc"/><path d="m281.601562 366.933594h34.132813c4.710937 0 8.53125 3.820312 8.53125 8.53125v34.136718c0 4.710938-3.820313 8.53125-8.53125 8.53125h-34.132813c-4.714843 0-8.535156-3.820312-8.535156-8.53125v-34.136718c0-4.710938 3.820313-8.53125 8.535156-8.53125zm0 0" fill="#cad9fc"/><path d="m76.800781 366.933594h8.53125c4.714844 0 8.535157 3.820312 8.535157 8.53125v34.136718c0 4.710938-3.820313 8.53125-8.535157 8.53125h-8.53125c-4.714843 0-8.535156-3.820312-8.535156-8.53125v-34.136718c0-4.710938 3.820313-8.53125 8.535156-8.53125zm0 0" fill="#e8edfc"/><path d="m76.800781 281.601562h8.53125c4.714844 0 8.535157 3.820313 8.535157 8.53125v34.132813c0 4.714844-3.820313 8.535156-8.535157 8.535156h-8.53125c-4.714843 0-8.535156-3.820312-8.535156-8.535156v-34.132813c0-4.710937 3.820313-8.53125 8.535156-8.53125zm0 0" fill="#e8edfc"/><path d="m179.199219 281.601562h8.535156c4.710937 0 8.53125 3.820313 8.53125 8.53125v34.132813c0 4.714844-3.820313 8.535156-8.53125 8.535156h-8.535156c-4.710938 0-8.53125-3.820312-8.53125-8.535156v-34.132813c0-4.710937 3.820312-8.53125 8.53125-8.53125zm0 0" fill="#e8edfc"/><path d="m76.800781 196.265625h8.53125c4.714844 0 8.535157 3.820313 8.535157 8.535156v34.132813c0 4.710937-3.820313 8.53125-8.535157 8.53125h-8.53125c-4.714843 0-8.535156-3.820313-8.535156-8.53125v-34.132813c0-4.714843 3.820313-8.535156 8.535156-8.535156zm0 0" fill="#e8edfc"/><path d="m179.199219 196.265625h8.535156c4.710937 0 8.53125 3.820313 8.53125 8.535156v34.132813c0 4.710937-3.820313 8.53125-8.53125 8.53125h-8.535156c-4.710938 0-8.53125-3.820313-8.53125-8.53125v-34.132813c0-4.714843 3.820312-8.535156 8.53125-8.535156zm0 0" fill="#e8edfc"/><path d="m76.800781 110.933594h8.53125c4.714844 0 8.535157 3.820312 8.535157 8.53125v34.136718c0 4.710938-3.820313 8.53125-8.535157 8.53125h-8.53125c-4.714843 0-8.535156-3.820312-8.535156-8.53125v-34.136718c0-4.710938 3.820313-8.53125 8.535156-8.53125zm0 0" fill="#e8edfc"/><path d="m179.199219 110.933594h8.535156c4.710937 0 8.53125 3.820312 8.53125 8.53125v34.136718c0 4.710938-3.820313 8.53125-8.53125 8.53125h-8.535156c-4.710938 0-8.53125-3.820312-8.53125-8.53125v-34.136718c0-4.710938 3.820312-8.53125 8.53125-8.53125zm0 0" fill="#e8edfc"/><path d="m281.601562 110.933594h8.53125c4.714844 0 8.535157 3.820312 8.535157 8.53125v34.136718c0 4.710938-3.820313 8.53125-8.535157 8.53125h-8.53125c-4.714843 0-8.535156-3.820312-8.535156-8.53125v-34.136718c0-4.710938 3.820313-8.53125 8.535156-8.53125zm0 0" fill="#e8edfc"/><path d="m281.601562 196.265625h8.53125c4.714844 0 8.535157 3.820313 8.535157 8.535156v34.132813c0 4.710937-3.820313 8.53125-8.535157 8.53125h-8.53125c-4.714843 0-8.535156-3.820313-8.535156-8.53125v-34.132813c0-4.714843 3.820313-8.535156 8.535156-8.535156zm0 0" fill="#e8edfc"/><path d="m281.601562 281.601562h8.53125c4.714844 0 8.535157 3.820313 8.535157 8.53125v34.132813c0 4.714844-3.820313 8.535156-8.535157 8.535156h-8.53125c-4.714843 0-8.535156-3.820312-8.535156-8.535156v-34.132813c0-4.710937 3.820313-8.53125 8.535156-8.53125zm0 0" fill="#e8edfc"/><path d="m281.601562 366.933594h8.53125c4.714844 0 8.535157 3.820312 8.535157 8.53125v34.136718c0 4.710938-3.820313 8.53125-8.535157 8.53125h-8.53125c-4.714843 0-8.535156-3.820312-8.535156-8.53125v-34.136718c0-4.710938 3.820313-8.53125 8.535156-8.53125zm0 0" fill="#e8edfc"/><path d="m17.066406 503.464844h25.601563c-4.714844 0-8.535157-3.820313-8.535157-8.53125v-25.601563c0-4.710937 3.820313-8.53125 8.535157-8.53125h17.066406v-384c-4.707031-.015625-8.519531-3.828125-8.535156-8.535156v-25.597656h-8.53125c-4.707031-.015625-8.519531-3.828125-8.535157-8.535157v-17.066406c.015626-4.707031 3.828126-8.519531 8.535157-8.53125h-25.601563c-4.707031.011719-8.519531 3.824219-8.53125 8.53125v17.066406c.011719 4.707032 3.824219 8.519532 8.53125 8.535157h8.535156v25.597656c.011719 4.707031 3.824219 8.519531 8.53125 8.535156v384h-17.066406c-4.710937 0-8.53125 3.820313-8.53125 8.53125v25.601563c0 4.710937 3.820313 8.53125 8.53125 8.53125zm0 0" fill="#fff"/><path d="m375.464844 51.199219h-358.398438c-9.421875-.011719-17.0546872-7.644531-17.066406-17.066407v-17.066406c.0117188-9.421875 7.644531-17.0546872 17.066406-17.066406h358.398438c9.421875.0117188 17.058594 7.644531 17.070312 17.066406v17.066406c-.011718 9.421876-7.648437 17.054688-17.070312 17.066407zm-358.398438-34.132813v17.066406h358.410156l-.011718-17.066406zm0 0" fill="#428dff"/><path d="m375.464844 512h-358.398438c-9.421875-.011719-17.0546872-7.644531-17.066406-17.066406v-25.601563c.0117188-9.417969 7.644531-17.054687 17.066406-17.066406h358.398438c9.421875.011719 17.058594 7.648437 17.070312 17.066406v25.601563c-.011718 9.421875-7.648437 17.054687-17.070312 17.066406zm-358.398438-42.667969v25.601563h358.410156l-.011718-25.601563zm0 0" fill="#428dff"/><path d="m358.398438 85.332031h-324.265626c-9.421874-.007812-17.054687-7.644531-17.066406-17.066406v-25.597656c0-4.714844 3.820313-8.535157 8.535156-8.535157h341.332032c4.710937 0 8.53125 3.820313 8.53125 8.535157v25.597656c-.007813 9.421875-7.644532 17.058594-17.066406 17.066406zm-324.265626-34.132812v17.066406h324.277344l-.011718-17.066406zm0 0" fill="#428dff"/><path d="m42.667969 76.800781v384h-17.066407v-384zm0 0" fill="#fff"/><g fill="#428dff"><path d="m34.132812 119.464844c4.707032-.011719 8.519532-3.824219 8.535157-8.53125v-34.132813h-17.066407v34.132813c.011719 4.707031 3.824219 8.519531 8.53125 8.53125zm0 0"/><path d="m25.601562 460.800781h17.066407v-281.601562c0-4.710938-3.820313-8.53125-8.535157-8.53125-4.710937 0-8.53125 3.820312-8.53125 8.53125zm0 0"/><path d="m42.667969 145.066406c-.035157-2.257812-.917969-4.421875-2.476563-6.058594l-1.28125-1.023437c-.472656-.324219-.992187-.582031-1.535156-.769531-.484375-.246094-1-.417969-1.535156-.511719-.5625-.09375-1.132813-.152344-1.707032-.167969-2.257812.03125-4.421874.914063-6.058593 2.472656-2.070313 1.996094-2.976563 4.910157-2.40625 7.726563.570312 2.820313 2.539062 5.148437 5.222656 6.183594 1.027344.4375 2.128906.667969 3.242187.683593 2.269532.023438 4.453126-.871093 6.058594-2.476562 1.605469-1.605469 2.5-3.789062 2.476563-6.058594zm0 0"/><path d="m358.398438 469.332031h-324.265626c-4.710937 0-8.53125-3.820312-8.53125-8.53125 0-4.714843 3.820313-8.535156 8.53125-8.535156h315.734376v-366.933594h-315.734376c-4.710937 0-8.53125-3.820312-8.53125-8.53125 0-4.714843 3.820313-8.535156 8.53125-8.535156h324.265626c4.714843 0 8.535156 3.820313 8.535156 8.535156v384c0 4.710938-3.820313 8.53125-8.535156 8.53125zm0 0"/><path d="m238.933594 469.332031h-85.332032c-4.714843 0-8.535156-3.820312-8.535156-8.53125v-76.800781c.015625-14.132812 11.46875-25.585938 25.601563-25.601562h51.199219c14.132812.015624 25.582031 11.46875 25.597656 25.601562v76.800781c0 4.710938-3.820313 8.53125-8.53125 8.53125zm-76.800782-17.066406h68.265626v-68.265625c-.003907-4.710938-3.820313-8.527344-8.53125-8.535156h-51.199219c-4.710938.007812-8.53125 3.824218-8.535157 8.535156zm0 0"/><path d="m196.265625 469.332031c-4.710937 0-8.53125-3.820312-8.53125-8.53125v-93.867187c0-4.714844 3.820313-8.535156 8.53125-8.535156 4.714844 0 8.535156 3.820312 8.535156 8.535156v93.867187c0 4.710938-3.820312 8.53125-8.535156 8.53125zm0 0"/><path d="m204.800781 426.667969h-17.066406c-4.714844 0-8.535156-3.820313-8.535156-8.535157 0-4.710937 3.820312-8.53125 8.535156-8.53125h17.066406c4.710938 0 8.53125 3.820313 8.53125 8.53125 0 4.714844-3.820312 8.535157-8.53125 8.535157zm0 0"/><path d="m110.933594 426.667969h-34.132813c-9.421875-.011719-17.054687-7.648438-17.066406-17.066407v-34.136718c.011719-9.417969 7.644531-17.054688 17.066406-17.066406h34.132813c9.421875.011718 17.054687 7.648437 17.066406 17.066406v34.136718c-.011719 9.417969-7.644531 17.054688-17.066406 17.066407zm-34.132813-51.203125v34.136718h34.140625l-.007812-34.136718zm0 0"/><path d="m315.734375 426.667969h-34.132813c-9.421874-.011719-17.058593-7.648438-17.066406-17.066407v-34.136718c.007813-9.417969 7.644532-17.054688 17.066406-17.066406h34.132813c9.421875.011718 17.054687 7.648437 17.066406 17.066406v34.136718c-.011719 9.417969-7.644531 17.054688-17.066406 17.066407zm-34.132813-51.203125v34.136718h34.140626l-.007813-34.136718zm0 0"/><path d="m110.933594 341.332031h-34.132813c-9.421875-.007812-17.054687-7.644531-17.066406-17.066406v-34.132813c.011719-9.421874 7.644531-17.054687 17.066406-17.066406h34.132813c9.421875.011719 17.054687 7.644532 17.066406 17.066406v34.132813c-.011719 9.421875-7.644531 17.058594-17.066406 17.066406zm-34.132813-51.199219v34.132813h34.140625l-.007812-34.132813zm0 0"/><path d="m213.332031 341.332031h-34.132812c-9.421875-.007812-17.054688-7.644531-17.066407-17.066406v-34.132813c.011719-9.421874 7.644532-17.054687 17.066407-17.066406h34.132812c9.421875.011719 17.058594 7.644532 17.066407 17.066406v34.132813c-.007813 9.421875-7.644532 17.058594-17.066407 17.066406zm-34.132812-51.199219v34.132813h34.144531l-.011719-34.132813zm0 0"/><path d="m315.734375 341.332031h-34.132813c-9.421874-.007812-17.058593-7.644531-17.066406-17.066406v-34.132813c.007813-9.421874 7.644532-17.054687 17.066406-17.066406h34.132813c9.421875.011719 17.054687 7.644532 17.066406 17.066406v34.132813c-.011719 9.421875-7.644531 17.058594-17.066406 17.066406zm-34.132813-51.199219v34.132813h34.140626l-.007813-34.132813zm0 0"/><path d="m110.933594 256h-34.132813c-9.421875-.011719-17.054687-7.644531-17.066406-17.066406v-34.132813c.011719-9.421875 7.644531-17.054687 17.066406-17.066406h34.132813c9.421875.011719 17.054687 7.644531 17.066406 17.066406v34.132813c-.011719 9.421875-7.644531 17.054687-17.066406 17.066406zm-34.132813-51.199219v34.132813h34.140625l-.007812-34.132813zm0 0"/><path d="m213.332031 256h-34.132812c-9.421875-.011719-17.054688-7.644531-17.066407-17.066406v-34.132813c.011719-9.421875 7.644532-17.054687 17.066407-17.066406h34.132812c9.421875.011719 17.058594 7.644531 17.066407 17.066406v34.132813c-.007813 9.421875-7.644532 17.054687-17.066407 17.066406zm-34.132812-51.199219v34.132813h34.144531l-.011719-34.132813zm0 0"/><path d="m315.734375 256h-34.132813c-9.421874-.011719-17.058593-7.644531-17.066406-17.066406v-34.132813c.007813-9.421875 7.644532-17.054687 17.066406-17.066406h34.132813c9.421875.011719 17.054687 7.644531 17.066406 17.066406v34.132813c-.011719 9.421875-7.644531 17.054687-17.066406 17.066406zm-34.132813-51.199219v34.132813h34.140626l-.007813-34.132813zm0 0"/><path d="m110.933594 170.667969h-34.132813c-9.421875-.011719-17.054687-7.648438-17.066406-17.066407v-34.136718c.011719-9.417969 7.644531-17.054688 17.066406-17.066406h34.132813c9.421875.011718 17.054687 7.648437 17.066406 17.066406v34.136718c-.011719 9.417969-7.644531 17.054688-17.066406 17.066407zm-34.132813-51.203125v34.136718h34.140625l-.007812-34.136718zm0 0"/><path d="m213.332031 170.667969h-34.132812c-9.421875-.011719-17.054688-7.648438-17.066407-17.066407v-34.136718c.011719-9.417969 7.644532-17.054688 17.066407-17.066406h34.132812c9.421875.011718 17.058594 7.648437 17.066407 17.066406v34.136718c-.007813 9.417969-7.644532 17.054688-17.066407 17.066407zm-34.132812-51.203125v34.136718h34.144531l-.011719-34.136718zm0 0"/><path d="m315.734375 170.667969h-34.132813c-9.421874-.011719-17.058593-7.648438-17.066406-17.066407v-34.136718c.007813-9.417969 7.644532-17.054688 17.066406-17.066406h34.132813c9.421875.011718 17.054687 7.648437 17.066406 17.066406v34.136718c-.011719 9.417969-7.644531 17.054688-17.066406 17.066407zm-34.132813-51.203125v34.136718h34.140626l-.007813-34.136718zm0 0"/><path d="m486.398438 426.667969h-68.265626c-14.132812-.015625-25.582031-11.46875-25.597656-25.601563v-273.066406c.015625-14.132812 11.464844-25.585938 25.597656-25.601562h68.265626c14.132812.015624 25.585937 11.46875 25.601562 25.601562v273.066406c-.015625 14.132813-11.46875 25.585938-25.601562 25.601563zm-68.265626-307.203125c-4.710937.007812-8.527343 3.824218-8.53125 8.535156v273.066406c.003907 4.710938 3.820313 8.53125 8.53125 8.535156h68.265626c4.710937-.003906 8.53125-3.824218 8.535156-8.535156v-273.066406c-.003906-4.710938-3.824219-8.527344-8.535156-8.535156zm0 0"/><path d="m401.066406 153.601562h-42.667968c-4.710938 0-8.53125-3.820312-8.53125-8.535156 0-4.710937 3.820312-8.53125 8.53125-8.53125h42.667968c4.714844 0 8.535156 3.820313 8.535156 8.53125 0 4.714844-3.820312 8.535156-8.535156 8.535156zm0 0"/><path d="m401.066406 392.535156h-42.667968c-4.710938 0-8.53125-3.824218-8.53125-8.535156s3.820312-8.535156 8.53125-8.535156h42.667968c4.714844 0 8.535156 3.824218 8.535156 8.535156s-3.820312 8.535156-8.535156 8.535156zm0 0"/><path d="m435.199219 324.265625c-4.710938 0-8.53125-3.820313-8.53125-8.53125v-162.132813c0-4.714843 3.820312-8.535156 8.53125-8.535156 4.714843 0 8.535156 3.820313 8.535156 8.535156v162.132813c0 4.710937-3.820313 8.53125-8.535156 8.53125zm0 0"/><path d="m435.199219 384c-4.710938 0-8.53125-3.820312-8.53125-8.535156v-25.597656c0-4.714844 3.820312-8.535157 8.53125-8.535157 4.714843 0 8.535156 3.820313 8.535156 8.535157v25.597656c0 4.714844-3.820313 8.535156-8.535156 8.535156zm0 0"/><path d="m469.332031 384c-4.710937 0-8.53125-3.820312-8.53125-8.535156v-162.132813c0-4.710937 3.820313-8.53125 8.53125-8.53125 4.714844 0 8.535157 3.820313 8.535157 8.53125v162.132813c0 4.714844-3.820313 8.535156-8.535157 8.535156zm0 0"/><path d="m469.332031 187.734375c-4.710937 0-8.53125-3.820313-8.53125-8.535156v-25.597657c0-4.714843 3.820313-8.535156 8.53125-8.535156 4.714844 0 8.535157 3.820313 8.535157 8.535156v25.597657c0 4.714843-3.820313 8.535156-8.535157 8.535156zm0 0"/></g></svg>