<?xml version="1.0" encoding="UTF-8" standalone="no"?>
<!-- Generator: Adobe Illustrator 19.0.0, SVG Export Plug-In . SVG Version: 6.00 Build 0)  -->

<svg
   xmlns:osb="http://www.openswatchbook.org/uri/2009/osb"
   xmlns:dc="http://purl.org/dc/elements/1.1/"
   xmlns:cc="http://creativecommons.org/ns#"
   xmlns:rdf="http://www.w3.org/1999/02/22-rdf-syntax-ns#"
   xmlns:svg="http://www.w3.org/2000/svg"
   xmlns="http://www.w3.org/2000/svg"
   xmlns:sodipodi="http://sodipodi.sourceforge.net/DTD/sodipodi-0.dtd"
   xmlns:inkscape="http://www.inkscape.org/namespaces/inkscape"
   version="1.1"
   id="Layer_1"
   x="0px"
   y="0px"
   viewBox="0 0 512 512"
   style="enable-background:new 0 0 512 512;"
   xml:space="preserve"
   inkscape:version="0.91 r13725"
   sodipodi:docname="blueprint-svgrepo-com.svg"
   inkscape:export-filename="/Users/Ali/Repos/bluprnts/media/logos/bluprnt-logo"
   inkscape:export-xdpi="90"
   inkscape:export-ydpi="90"><metadata
     id="metadata75"><rdf:RDF><cc:Work
         rdf:about=""><dc:format>image/svg+xml</dc:format><dc:type
           rdf:resource="http://purl.org/dc/dcmitype/StillImage" /><dc:title></dc:title></cc:Work></rdf:RDF></metadata><defs
     id="defs73"><linearGradient
       id="linearGradient5919"
       osb:paint="solid"><stop
         style="stop-color:#f8f8f9;stop-opacity:1;"
         offset="0"
         id="stop5921" /></linearGradient></defs><sodipodi:namedview
     pagecolor="#ffffff"
     bordercolor="#666666"
     borderopacity="1"
     objecttolerance="10"
     gridtolerance="10"
     guidetolerance="10"
     inkscape:pageopacity="0"
     inkscape:pageshadow="2"
     inkscape:window-width="1455"
     inkscape:window-height="849"
     id="namedview71"
     showgrid="false"
     inkscape:zoom="0.98"
     inkscape:cx="257.14908"
     inkscape:cy="256"
     inkscape:window-x="0"
     inkscape:window-y="0"
     inkscape:window-maximized="0"
     inkscape:current-layer="Layer_1" /><polygon
     style="fill:#7AB9E8;"
     points="512,48.762 512,414.476 341.333,463.238 170.667,414.476 0,463.238 0,97.524 170.667,48.762   341.333,97.524 "
     id="polygon3" /><polygon
     style="fill:#61AAE4;"
     points="170.667,48.762 170.667,414.476 341.333,463.238 341.333,97.524 "
     id="polygon5" /><path
     inkscape:connector-curvature="0"
     id="path9"
     d="m 456.554,132.02 c -2.291,-1.729 -5.26,-2.286 -8.018,-1.492 l -107.203,30.63 -168.154,-48.044 c -1.642,-0.469 -3.382,-0.469 -5.024,0 L 58.441,144.461 c -3.925,1.123 -6.63,4.709 -6.63,8.792 l 0,158.259 0,0.005 0,61.164 c 0,2.87 1.346,5.571 3.636,7.298 2.291,1.727 5.258,2.283 8.018,1.492 l 107.202,-30.63 168.154,48.044 c 0.82,0.234 1.666,0.352 2.512,0.352 0.845,0 1.691,-0.118 2.511,-0.352 l 109.714,-31.347 c 3.925,-1.123 6.632,-4.709 6.632,-8.792 l 0,-219.427 c 0,-2.869 -1.347,-5.571 -3.636,-7.299 z M 341.333,380.587 173.179,332.543 c -0.82,-0.234 -1.666,-0.352 -2.512,-0.352 -0.845,0 -1.691,0.118 -2.512,0.352 l -98.06,28.017 0,-41.935 10.951,-3.128 c 4.855,-1.386 7.667,-6.448 6.279,-11.302 -1.387,-4.855 -6.451,-7.669 -11.303,-6.278 l -5.927,1.693 C 69.938739,173.95774 70.795776,198.23492 70.094,160.153 l 100.571,-28.739 168.154,48.046 c 1.642,0.469 3.382,0.469 5.024,0 l 98.06,-28.016 0,49.301 c -3.319,2.119 -5.007,6.233 -3.869,10.214 0.636,2.227 2.06,4.001 3.869,5.16 0.0192,17.20326 0.57748,103.0117 10e-4,135.735 z"
     style="fill:#f8f8f9;fill-rule:evenodd"
     sodipodi:nodetypes="ccccccsccsccccsccsscccsccccccccccccccccc" /><path
     inkscape:connector-curvature="0"
     id="path11"
     d="m 356.403,224.772 -17.582,5.024 c -4.855,1.387 -7.667,6.448 -6.279,11.302 1.147,4.016 4.808,6.633 8.786,6.633 0.831,0 1.677,-0.115 2.516,-0.355 l 17.582,-5.024 c 4.855,-1.386 7.667,-6.448 6.279,-11.302 -1.386,-4.854 -6.449,-7.674 -11.302,-6.278 z"
     style="fill:#f8f8f9" /><path
     inkscape:connector-curvature="0"
     id="path13"
     d="m 420.453,215.98 c -1.387,-4.854 -6.45,-7.67 -11.303,-6.278 l -17.582,5.024 c -4.855,1.387 -7.667,6.448 -6.279,11.302 1.147,4.016 4.808,6.633 8.786,6.633 0.831,0 1.677,-0.115 2.517,-0.355 l 17.582,-5.024 c 4.855,-1.386 7.666,-6.448 6.279,-11.302 z"
     style="fill:#f8f8f9" /><path
     inkscape:connector-curvature="0"
     id="path15"
     d="m 168.155,271.589 -4.222,1.206 c -4.855,1.388 -7.667,6.448 -6.279,11.304 1.147,4.016 4.807,6.633 8.786,6.633 0.831,0 1.677,-0.115 2.516,-0.354 l 4.222,-1.206 c 4.855,-1.389 7.667,-6.448 6.279,-11.303 -1.386,-4.855 -6.45,-7.667 -11.302,-6.28 z"
     style="fill:#f8f8f9" /><path
     inkscape:connector-curvature="0"
     id="path17"
     d="m 128.769,282.843 -17.582,5.024 c -4.855,1.387 -7.667,6.448 -6.279,11.302 1.147,4.016 4.808,6.633 8.786,6.633 0.831,0 1.677,-0.115 2.516,-0.355 l 17.582,-5.024 c 4.855,-1.387 7.667,-6.448 6.279,-11.302 -1.386,-4.853 -6.446,-7.671 -11.302,-6.278 z"
     style="fill:#f8f8f9" /><g
     id="g41" /><g
     id="g43" /><g
     id="g45" /><g
     id="g47" /><g
     id="g49" /><g
     id="g51" /><g
     id="g53" /><g
     id="g55" /><g
     id="g57" /><g
     id="g59" /><g
     id="g61" /><g
     id="g63" /><g
     id="g65" /><g
     id="g67" /><g
     id="g69" /><path
     style="fill:#000000;stroke:#f8f8f9;stroke-opacity:1;fill-opacity:0;stroke-linejoin:round;stroke-width:2.4000001;stroke-miterlimit:4;stroke-dasharray:4.80000019, 4.80000019000000044;stroke-dashoffset:2.6400001"
     d="m 212.27797,259.89049 -17.88962,3.78531 c -4.93993,1.04495 -8.09812,5.89747 -7.0521,10.83647 0.86407,4.08622 4.3336,6.95223 8.3019,7.22972 0.82898,0.058 1.68095,0.002 2.53464,-0.17863 l 17.88963,-3.7853 c 4.93985,-1.04396 8.09811,-5.89747 7.05209,-10.83647 -1.04403,-4.93886 -5.89798,-8.10517 -10.83654,-7.0511 z"
     id="path4382"
     inkscape:connector-curvature="0" /><path
     inkscape:connector-curvature="0"
     id="path4412"
     d="m 262.31878,247.68641 -17.88962,3.78531 c -4.93993,1.04495 -8.09812,5.89747 -7.0521,10.83647 0.86407,4.08622 4.3336,6.95223 8.3019,7.22972 0.82898,0.058 1.68095,0.002 2.53464,-0.17863 l 17.88963,-3.7853 c 4.93985,-1.04396 8.09811,-5.89747 7.05209,-10.83647 -1.04403,-4.93886 -5.89798,-8.10517 -10.83654,-7.0511 z"
     style="fill:#000000;fill-opacity:0;stroke:#f8f8f9;stroke-width:2.4000001;stroke-linejoin:round;stroke-miterlimit:4;stroke-dasharray:4.80000019, 4.80000019;stroke-dashoffset:2.6400001;stroke-opacity:1" /><path
     style="fill:#000000;fill-opacity:0;stroke:#f8f8f9;stroke-width:2.4000001;stroke-linejoin:round;stroke-miterlimit:4;stroke-dasharray:4.80000019, 4.80000019;stroke-dashoffset:2.6400001;stroke-opacity:1"
     d="m 312.23715,236.46192 -17.88962,3.78531 c -4.93993,1.04495 -8.09812,5.89747 -7.0521,10.83647 0.86407,4.08622 4.3336,6.95223 8.3019,7.22972 0.82898,0.058 1.68095,0.002 2.53464,-0.17863 l 17.88963,-3.7853 c 4.93985,-1.04396 8.09811,-5.89747 7.05209,-10.83647 -1.04403,-4.93886 -5.89798,-8.10517 -10.83654,-7.0511 z"
     id="path4414"
     inkscape:connector-curvature="0" /></svg>