<?xml version="1.0" encoding="UTF-8" standalone="no"?>
<!-- Generator: Adobe Illustrator 19.0.0, SVG Export Plug-In . SVG Version: 6.00 Build 0)  -->

<svg
   xmlns:dc="http://purl.org/dc/elements/1.1/"
   xmlns:cc="http://creativecommons.org/ns#"
   xmlns:rdf="http://www.w3.org/1999/02/22-rdf-syntax-ns#"
   xmlns:svg="http://www.w3.org/2000/svg"
   xmlns="http://www.w3.org/2000/svg"
   xmlns:sodipodi="http://sodipodi.sourceforge.net/DTD/sodipodi-0.dtd"
   xmlns:inkscape="http://www.inkscape.org/namespaces/inkscape"
   version="1.1"
   id="Layer_1"
   x="0px"
   y="0px"
   viewBox="0 0 3178.0813 624.35728"
   xml:space="preserve"
   inkscape:version="0.91 r13725"
   sodipodi:docname="bluprnts.svg"
   inkscape:export-filename="/Users/Ali/Repos/bluprnts/media/logos/logo v3 - white.png"
   inkscape:export-xdpi="90"
   inkscape:export-ydpi="90"
   width="3178.0813"
   height="624.3573"><metadata
     id="metadata47"><rdf:RDF><cc:Work
         rdf:about=""><dc:format>image/svg+xml</dc:format><dc:type
           rdf:resource="http://purl.org/dc/dcmitype/StillImage" /><dc:title></dc:title></cc:Work></rdf:RDF></metadata><defs
     id="defs45" /><sodipodi:namedview
     pagecolor="#ffffff"
     bordercolor="#666666"
     borderopacity="1"
     objecttolerance="10"
     gridtolerance="10"
     guidetolerance="10"
     inkscape:pageopacity="0"
     inkscape:pageshadow="2"
     inkscape:window-width="1509"
     inkscape:window-height="850"
     id="namedview43"
     showgrid="false"
     fit-margin-top="0"
     fit-margin-left="0"
     fit-margin-right="0"
     fit-margin-bottom="0"
     inkscape:zoom="0.29029174"
     inkscape:cx="1461.6623"
     inkscape:cy="-107.52828"
     inkscape:window-x="-2"
     inkscape:window-y="125"
     inkscape:window-maximized="0"
     inkscape:current-layer="Layer_1"
     inkscape:snap-bbox="true" /><g
     id="g4452"
     transform="translate(600.41159,71.134628)"
     style="fill:#ffffff"><g
       transform="matrix(0.71855409,0,0,0.73478871,-501.25242,73.135747)"
       id="g4254"
       style="fill:#ffffff"><rect
         height="213.45"
         width="30.000999"
         style="fill:#ffffff;fill-opacity:1"
         transform="matrix(-0.8835,-0.4685,0.4685,-0.8835,631.6956,475.71)"
         y="52.568001"
         x="360.01001"
         id="XMLID_532_" /><rect
         height="30.000999"
         width="134.541"
         style="fill:#ffffff;fill-opacity:1"
         transform="matrix(-0.7433,-0.669,0.669,-0.7433,339.8557,547.5782)"
         y="193.57899"
         x="207.724"
         id="XMLID_533_" /><rect
         height="201.55499"
         width="30"
         style="fill:#ffffff"
         transform="matrix(-0.8682,-0.4962,0.4962,-0.8682,202.327,555.8734)"
         y="150.28999"
         x="159.985"
         id="XMLID_534_" /><circle
         r="35"
         cy="163.56799"
         cx="225"
         style="fill:#ffffff;fill-opacity:1"
         id="XMLID_535_" /><circle
         r="35"
         cy="253.56799"
         cx="325"
         style="fill:#ffffff;fill-opacity:1"
         id="XMLID_536_" /><circle
         r="35"
         cy="65"
         cx="425"
         style="fill:#ffffff;fill-opacity:1"
         id="XMLID_782_" /><circle
         r="35"
         cy="338.56799"
         cx="125"
         style="fill:#ffffff;fill-opacity:1"
         id="XMLID_783_" /><circle
         id="circle4297"
         style="fill:#ffffff;fill-opacity:0"
         cx="225"
         cy="163.56799"
         r="35" /></g><path
       sodipodi:nodetypes="scsccsscsscscsscscscscssscsccc"
       inkscape:connector-curvature="0"
       id="path7"
       d="m -213.48459,387.19854 -244.428,0 0,-253.282 c 0,-6.009 -3.397,-11.503 -8.773,-14.188 -5.375,-2.683 -11.804,-2.1 -16.614,1.51 -9.311,6.997 -20.359,10.696 -31.946,10.696 -29.461,0 -53.427,-23.967 -53.427,-53.426995 0,-0.308 -0.029,-0.609 -0.046,-0.912 2.342,-27.894 25.776,-49.88 54.266,-49.88 8.758,0 15.859,-7.102 15.859,-15.859 0,-8.7570003 -7.102,-15.8590003 -15.859,-15.8590003 -47.53,-0.003 -85.959,38.9240003 -85.959,86.4520003 0,0.939 0.019,2.487 0.019,2.487 l 0,316.008995 c 0,46.95 38.197,85.146 85.148,85.146 18.514,0 36.15,-5.9 50.999,-17.06 3.987,-2.996 6.331,-7.692 6.331,-12.678 l 0,-37.436 244.428,0 c 8.758,0 15.859,-7.102 15.859,-15.859 0.001,-8.758 -7.099,-15.86 -15.857,-15.86 z m -276.147,60.583 c -7.828,4.33 -16.554,6.591 -25.611,6.591 l -0.003,0 c -29.461,0 -53.427,-23.967 -53.427,-53.427 l 0,-256.187 c 14.621,11.814 33.211,18.895 53.429,18.895 8.805,0 17.41,-1.334 25.611,-3.933 l 0,288.061 z"
       style="fill:#ffffff;fill-opacity:1" /><path
       sodipodi:nodetypes="cssssscsccsscsscccssccsccs"
       inkscape:connector-curvature="0"
       id="path11"
       d="m -18.50859,78.395545 c -1.992,-45.774 -39.841,-82.4010003 -86.096,-82.4010003 l -339.032,0 c -8.758,0 -15.859,7.102 -15.859,15.8590003 0,8.757 7.102,15.859 15.859,15.859 l 339.032,0 c 29.689,0 53.889,23.878 54.447,53.435 -0.558,28.981995 -24.289,52.389995 -53.402,52.389995 -11.669,0 -22.784,-3.752 -32.141,-10.853 -4.797,-3.643 -11.244,-4.249 -16.64,-1.572 -5.394,2.679 -8.807,8.182 -8.807,14.205 l 0,320.838 c 0,4.961 2.322,9.636 6.274,12.635 14.921,11.32 32.664,17.303 51.312,17.303 46.95,0 85.146,-38.197 85.146,-85.146 l 0,-86.16 0,-232.599995 c 0.004,0 -0.032,-3.229 -0.093,-3.792 z m -31.622,322.549995 c 0,29.46 -23.967,53.427 -53.427,53.427 -9.156,0 -17.974,-2.312 -25.868,-6.739 l 0,-286.391 c 8.277,2.655 16.968,4.016 25.868,4.016 20.216,0 38.808,-7.081 53.427,-18.895 l 0,168.422 z"
       style="fill:#ffffff;fill-opacity:1" /></g><g
     id="g13"
     transform="translate(0,-10.949)" /><g
     id="g15"
     transform="translate(0,-10.949)" /><g
     id="g17"
     transform="translate(0,-10.949)" /><g
     id="g19"
     transform="translate(0,-10.949)" /><g
     id="g21"
     transform="translate(0,-10.949)" /><g
     id="g23"
     transform="translate(0,-10.949)" /><g
     id="g25"
     transform="translate(0,-10.949)" /><g
     id="g27"
     transform="translate(0,-10.949)" /><g
     id="g29"
     transform="translate(0,-10.949)" /><g
     id="g31"
     transform="translate(0,-10.949)" /><g
     id="g33"
     transform="translate(0,-10.949)" /><g
     id="g35"
     transform="translate(0,-10.949)" /><g
     id="g37"
     transform="translate(0,-10.949)" /><g
     id="g39"
     transform="translate(0,-10.949)" /><g
     id="g41"
     transform="translate(0,-10.949)" /><g
     transform="matrix(3.1507404,0,0,3.1507404,651.87276,-1620.3572)"
     id="layer1"
     inkscape:label="Layer 1"><text
       sodipodi:linespacing="125%"
       id="text3452"
       y="667.22791"
       x="13.84586"
       style="font-style:normal;font-variant:normal;font-weight:normal;font-stretch:normal;font-size:180px;line-height:125%;font-family:Comfortaa;-inkscape-font-specification:'Comfortaa, Normal';text-align:start;letter-spacing:0px;word-spacing:0px;writing-mode:lr-tb;text-anchor:start;fill:#ffffff;fill-opacity:1;stroke:none;stroke-width:1px;stroke-linecap:butt;stroke-linejoin:miter;stroke-opacity:1;"
       xml:space="preserve"><tspan
         style="font-style:normal;font-variant:normal;font-weight:bold;font-stretch:normal;font-size:180px;line-height:125%;font-family:Comfortaa;-inkscape-font-specification:'Comfortaa, Bold';text-align:start;letter-spacing:-9.65999985px;writing-mode:lr-tb;text-anchor:start;fill:#ffffff;fill-opacity:1;"
         y="667.22791"
         x="13.84586"
         id="tspan3454"
         sodipodi:role="line">bluprnts</tspan></text>
<text
       sodipodi:linespacing="125%"
       id="text3456"
       y="737.81555"
       x="740.55139"
       style="font-style:normal;font-variant:normal;font-weight:normal;font-stretch:normal;font-size:180px;line-height:125%;font-family:Comfortaa;-inkscape-font-specification:'Comfortaa, Normal';text-align:start;letter-spacing:0px;word-spacing:0px;writing-mode:lr-tb;text-anchor:start;fill:#000000;fill-opacity:1;stroke:none;stroke-width:1px;stroke-linecap:butt;stroke-linejoin:miter;stroke-opacity:1"
       xml:space="preserve"><tspan
         y="737.81555"
         x="740.55139"
         id="tspan3458"
         sodipodi:role="line" /></text>
</g></svg>