<?xml version="1.0" encoding="UTF-8" standalone="no"?>
<!-- Generator: Adobe Illustrator 19.0.0, SVG Export Plug-In . SVG Version: 6.00 Build 0)  -->

<svg
   xmlns:dc="http://purl.org/dc/elements/1.1/"
   xmlns:cc="http://creativecommons.org/ns#"
   xmlns:rdf="http://www.w3.org/1999/02/22-rdf-syntax-ns#"
   xmlns:svg="http://www.w3.org/2000/svg"
   xmlns="http://www.w3.org/2000/svg"
   xmlns:sodipodi="http://sodipodi.sourceforge.net/DTD/sodipodi-0.dtd"
   xmlns:inkscape="http://www.inkscape.org/namespaces/inkscape"
   version="1.1"
   id="Layer_1"
   x="0px"
   y="0px"
   viewBox="0 0 3012.4436 575.64024"
   xml:space="preserve"
   inkscape:version="0.91 r13725"
   sodipodi:docname="bluprnts - white.svg"
   inkscape:export-filename="/Users/Ali/Repos/bluprnts/media/logos/logo v3 - white.png"
   inkscape:export-xdpi="90"
   inkscape:export-ydpi="90"
   width="3012.4436"
   height="575.64026"><metadata
     id="metadata47"><rdf:RDF><cc:Work
         rdf:about=""><dc:format>image/svg+xml</dc:format><dc:type
           rdf:resource="http://purl.org/dc/dcmitype/StillImage" /><dc:title /></cc:Work></rdf:RDF></metadata><defs
     id="defs45" /><sodipodi:namedview
     pagecolor="#ffffff"
     bordercolor="#666666"
     borderopacity="1"
     objecttolerance="10"
     gridtolerance="10"
     guidetolerance="10"
     inkscape:pageopacity="0"
     inkscape:pageshadow="2"
     inkscape:window-width="1509"
     inkscape:window-height="850"
     id="namedview43"
     showgrid="false"
     fit-margin-top="0"
     fit-margin-left="0"
     fit-margin-right="0"
     fit-margin-bottom="0"
     inkscape:zoom="0.29029174"
     inkscape:cx="2068.1662"
     inkscape:cy="-126.15462"
     inkscape:window-x="0"
     inkscape:window-y="0"
     inkscape:window-maximized="0"
     inkscape:current-layer="Layer_1"
     inkscape:snap-bbox="true" /><g
     id="g4452"
     transform="translate(600.41159,32.160996)"><path
       inkscape:connector-curvature="0"
       id="path5"
       d="m -471.77259,133.91654 c -11.584,8.705 -25.952,13.879 -41.472,13.879 l 0,0 c -38.109,0 -69.288,-31.18 -69.288,-69.287995 l 0,322.437995 c 0,38.109 31.18,69.288 69.288,69.288 l 0,0 c 15.52,0 29.889,-5.173 41.472,-13.879 l 0,-322.438 z"
       style="fill:#bfdcff;fill-opacity:1" /><path
       inkscape:connector-curvature="0"
       id="path9"
       d="m -107.55959,149.39854 0,0 c -15.636,0 -30.1,-5.256 -41.728,-14.078 l 0,320.833 c 11.628,8.823 26.092,14.078 41.728,14.078 l 0,0 c 38.109,0 69.288,-31.18 69.288,-69.288 l 0,-320.832995 c 0.001,38.107995 -31.179,69.287995 -69.288,69.287995 z"
       style="fill:#bfdcff;fill-opacity:1" /><g
       transform="matrix(0.71855409,0,0,0.73478871,-501.25242,73.135747)"
       id="g4254"><rect
         height="213.45"
         width="30.000999"
         style="fill:#bfdcff;fill-opacity:1"
         transform="matrix(-0.8835,-0.4685,0.4685,-0.8835,631.6956,475.71)"
         y="52.568001"
         x="360.01001"
         id="XMLID_532_" /><rect
         height="30.000999"
         width="134.541"
         style="fill:#bfdcff;fill-opacity:1"
         transform="matrix(-0.7433,-0.669,0.669,-0.7433,339.8557,547.5782)"
         y="193.57899"
         x="207.724"
         id="XMLID_533_" /><rect
         height="201.55499"
         width="30"
         style="fill:#bfdcff"
         transform="matrix(-0.8682,-0.4962,0.4962,-0.8682,202.327,555.8734)"
         y="150.28999"
         x="159.985"
         id="XMLID_534_" /><circle
         r="35"
         cy="163.56799"
         cx="225"
         style="fill:#3784ff;fill-opacity:1"
         id="XMLID_535_" /><circle
         r="35"
         cy="253.56799"
         cx="325"
         style="fill:#3784ff;fill-opacity:1"
         id="XMLID_536_" /><circle
         r="35"
         cy="65"
         cx="425"
         style="fill:#3784ff;fill-opacity:1"
         id="XMLID_782_" /><circle
         r="35"
         cy="338.56799"
         cx="125"
         style="fill:#3784ff;fill-opacity:1"
         id="XMLID_783_" /><circle
         id="circle4297"
         style="fill:#ffff00;fill-opacity:0"
         cx="225"
         cy="163.56799"
         r="35" /></g><path
       sodipodi:nodetypes="scsccsscsscscsscscscscssscsccc"
       inkscape:connector-curvature="0"
       id="path7"
       d="m -213.48459,387.19854 -244.428,0 0,-253.282 c 0,-6.009 -3.397,-11.503 -8.773,-14.188 -5.375,-2.683 -11.804,-2.1 -16.614,1.51 -9.311,6.997 -20.359,10.696 -31.946,10.696 -29.461,0 -53.427,-23.967 -53.427,-53.426995 0,-0.308 -0.029,-0.609 -0.046,-0.912 2.342,-27.894 25.776,-49.88 54.266,-49.88 8.758,0 15.859,-7.102 15.859,-15.859 0,-8.7570003 -7.102,-15.8590003 -15.859,-15.8590003 -47.53,-0.003 -85.959,38.9240003 -85.959,86.4520003 0,0.939 0.019,2.487 0.019,2.487 l 0,316.008995 c 0,46.95 38.197,85.146 85.148,85.146 18.514,0 36.15,-5.9 50.999,-17.06 3.987,-2.996 6.331,-7.692 6.331,-12.678 l 0,-37.436 244.428,0 c 8.758,0 15.859,-7.102 15.859,-15.859 0.001,-8.758 -7.099,-15.86 -15.857,-15.86 z m -276.147,60.583 c -7.828,4.33 -16.554,6.591 -25.611,6.591 l -0.003,0 c -29.461,0 -53.427,-23.967 -53.427,-53.427 l 0,-256.187 c 14.621,11.814 33.211,18.895 53.429,18.895 8.805,0 17.41,-1.334 25.611,-3.933 l 0,288.061 z"
       style="fill:#3784ff;fill-opacity:1" /><path
       sodipodi:nodetypes="cssssscsccsscsscccssccsccs"
       inkscape:connector-curvature="0"
       id="path11"
       d="m -18.50859,78.395545 c -1.992,-45.774 -39.841,-82.4010003 -86.096,-82.4010003 l -339.032,0 c -8.758,0 -15.859,7.102 -15.859,15.8590003 0,8.757 7.102,15.859 15.859,15.859 l 339.032,0 c 29.689,0 53.889,23.878 54.447,53.435 -0.558,28.981995 -24.289,52.389995 -53.402,52.389995 -11.669,0 -22.784,-3.752 -32.141,-10.853 -4.797,-3.643 -11.244,-4.249 -16.64,-1.572 -5.394,2.679 -8.807,8.182 -8.807,14.205 l 0,320.838 c 0,4.961 2.322,9.636 6.274,12.635 14.921,11.32 32.664,17.303 51.312,17.303 46.95,0 85.146,-38.197 85.146,-85.146 l 0,-86.16 0,-232.599995 c 0.004,0 -0.032,-3.229 -0.093,-3.792 z m -31.622,322.549995 c 0,29.46 -23.967,53.427 -53.427,53.427 -9.156,0 -17.974,-2.312 -25.868,-6.739 l 0,-286.391 c 8.277,2.655 16.968,4.016 25.868,4.016 20.216,0 38.808,-7.081 53.427,-18.895 l 0,168.422 z"
       style="fill:#3784ff;fill-opacity:1" /></g><g
     id="g13"
     transform="translate(0,-49.922632)" /><g
     id="g15"
     transform="translate(0,-49.922632)" /><g
     id="g17"
     transform="translate(0,-49.922632)" /><g
     id="g19"
     transform="translate(0,-49.922632)" /><g
     id="g21"
     transform="translate(0,-49.922632)" /><g
     id="g23"
     transform="translate(0,-49.922632)" /><g
     id="g25"
     transform="translate(0,-49.922632)" /><g
     id="g27"
     transform="translate(0,-49.922632)" /><g
     id="g29"
     transform="translate(0,-49.922632)" /><g
     id="g31"
     transform="translate(0,-49.922632)" /><g
     id="g33"
     transform="translate(0,-49.922632)" /><g
     id="g35"
     transform="translate(0,-49.922632)" /><g
     id="g37"
     transform="translate(0,-49.922632)" /><g
     id="g39"
     transform="translate(0,-49.922632)" /><g
     id="g41"
     transform="translate(0,-49.922632)" /><g
     transform="matrix(3.1507404,0,0,3.1507404,651.87276,-1659.3308)"
     id="layer1"
     inkscape:label="Layer 1"><g
       style="font-style:normal;font-variant:normal;font-weight:normal;font-stretch:normal;font-size:180px;line-height:125%;font-family:Comfortaa;-inkscape-font-specification:'Comfortaa, Normal';text-align:start;letter-spacing:0px;word-spacing:0px;writing-mode:lr-tb;text-anchor:start;fill:#033055;fill-opacity:1;stroke:none;stroke-width:1px;stroke-linecap:butt;stroke-linejoin:miter;stroke-opacity:1"
       id="text3452"><path
         d="m 39.22586,526.64791 q -4.14,0 -6.66,2.52 -2.52,2.52 -2.52,6.66 l 0,82.08 q 0,14.04 6.48,25.56 6.66,11.34 17.82,18 11.34,6.48 25.2,6.48 13.86,0 25.2,-6.48 11.52,-6.66 18,-18 6.48,-11.52 6.48,-25.56 0,-14.04 -6.12,-25.38 -5.94,-11.52 -16.56,-18 -10.44,-6.48 -23.4,-6.48 -10.44,0 -19.44,4.32 -9,4.32 -15.3,12.06 l 0,-48.6 q 0,-4.14 -2.7,-6.66 -2.52,-2.52 -6.48,-2.52 z m 40.32,125.1 q -9,0 -16.38,-4.32 -7.2,-4.5 -11.34,-12.24 -4.14,-7.74 -4.14,-17.28 0,-9.54 4.14,-17.1 4.14,-7.74 11.34,-12.06 7.38,-4.5 16.38,-4.5 9,0 16.2,4.5 7.38,4.32 11.52,12.06 4.32,7.56 4.32,17.1 0,9.54 -4.32,17.28 -4.14,7.74 -11.52,12.24 -7.2,4.32 -16.2,4.32 z"
         style="font-style:normal;font-variant:normal;font-weight:bold;font-stretch:normal;font-size:180px;line-height:125%;font-family:Comfortaa;-inkscape-font-specification:'Comfortaa, Bold';text-align:start;letter-spacing:-9.65999985px;writing-mode:lr-tb;text-anchor:start;fill:#033055;fill-opacity:1"
         id="path4167" /><path
         d="m 143.34836,535.64791 q 0,-3.96 2.52,-6.48 2.52,-2.52 6.48,-2.52 3.96,0 6.48,2.52 2.52,2.52 2.52,6.48 l 0,98.28 q 0,6.66 2.52,10.98 2.52,4.32 6.48,4.32 l 4.5,0 q 3.6,0 5.76,2.52 2.34,2.52 2.34,6.48 0,3.96 -3.42,6.48 -3.42,2.52 -8.82,2.52 l -0.36,0 q -7.74,0 -14.04,-4.14 -6.12,-4.32 -9.54,-11.88 -3.42,-7.74 -3.42,-17.28 l 0,-98.28 z"
         style="font-style:normal;font-variant:normal;font-weight:bold;font-stretch:normal;font-size:180px;line-height:125%;font-family:Comfortaa;-inkscape-font-specification:'Comfortaa, Bold';text-align:start;letter-spacing:-9.65999985px;writing-mode:lr-tb;text-anchor:start;fill:#033055;fill-opacity:1"
         id="path4169" /><path
         d="m 272.60898,568.58791 q 4.14,0 6.66,2.52 2.52,2.52 2.52,6.66 l 0,80.28 q 0,3.96 -2.52,6.66 -2.52,2.52 -6.66,2.52 -3.96,0 -6.66,-2.52 -2.52,-2.7 -2.52,-6.66 l 0,-1.98 q -5.76,5.76 -13.68,9 -7.92,3.06 -16.92,3.06 -12.42,0 -22.32,-5.4 -9.9,-5.4 -15.48,-15.66 -5.58,-10.44 -5.58,-25.02 l 0,-44.28 q 0,-3.96 2.52,-6.48 2.7,-2.7 6.66,-2.7 3.96,0 6.48,2.7 2.7,2.52 2.7,6.48 l 0,44.28 q 0,14.58 7.74,22.14 7.92,7.38 20.88,7.38 7.56,0 13.68,-3.06 6.3,-3.06 9.72,-8.28 3.6,-5.22 3.6,-11.7 l 0,-50.76 q 0,-4.14 2.52,-6.66 2.7,-2.52 6.66,-2.52 z"
         style="font-style:normal;font-variant:normal;font-weight:bold;font-stretch:normal;font-size:180px;line-height:125%;font-family:Comfortaa;-inkscape-font-specification:'Comfortaa, Bold';text-align:start;letter-spacing:-9.65999985px;writing-mode:lr-tb;text-anchor:start;fill:#033055;fill-opacity:1"
         id="path4171" /><path
         d="m 353.96429,568.04791 q 13.86,0 25.2,6.66 11.52,6.48 18,18 6.48,11.34 6.48,25.38 0,14.04 -6.12,25.56 -5.94,11.34 -16.56,17.82 -10.44,6.48 -23.4,6.48 -10.44,0 -19.44,-4.32 -9,-4.32 -15.3,-12.06 l 0,48.6 q 0,4.14 -2.52,6.66 -2.52,2.52 -6.66,2.52 -3.96,0 -6.66,-2.52 -2.52,-2.52 -2.52,-6.66 l 0,-82.08 q 0,-14.04 6.48,-25.38 6.66,-11.52 17.82,-18 11.34,-6.66 25.2,-6.66 z m 0,83.7 q 9,0 16.2,-4.32 7.38,-4.5 11.52,-12.06 4.32,-7.74 4.32,-17.28 0,-9.54 -4.32,-17.28 -4.14,-7.74 -11.52,-12.06 -7.2,-4.5 -16.2,-4.5 -9,0 -16.38,4.5 -7.2,4.32 -11.34,12.06 -4.14,7.74 -4.14,17.28 0,9.54 4.14,17.28 4.14,7.56 11.34,12.06 7.38,4.32 16.38,4.32 z"
         style="font-style:normal;font-variant:normal;font-weight:bold;font-stretch:normal;font-size:180px;line-height:125%;font-family:Comfortaa;-inkscape-font-specification:'Comfortaa, Bold';text-align:start;letter-spacing:-9.65999985px;writing-mode:lr-tb;text-anchor:start;fill:#033055;fill-opacity:1"
         id="path4173" /><path
         d="m 469.60678,567.68791 q 9.54,0 14.94,2.88 5.4,2.88 5.4,7.2 0,1.26 -0.18,1.8 -1.62,5.76 -7.2,5.76 -0.9,0 -2.7,-0.36 -7.2,-1.26 -11.7,-1.26 -12.96,0 -20.88,5.94 -7.92,5.94 -7.92,16.02 l 0,52.56 q 0,4.32 -2.34,6.66 -2.16,2.34 -6.66,2.34 -4.32,0 -6.66,-2.16 -2.34,-2.34 -2.34,-6.84 l 0,-80.46 q 0,-4.32 2.34,-6.66 2.34,-2.34 6.66,-2.34 9,0 9,9 l 0,3.42 q 5.4,-6.3 13.32,-9.9 7.92,-3.6 16.92,-3.6 z"
         style="font-style:normal;font-variant:normal;font-weight:bold;font-stretch:normal;font-size:180px;line-height:125%;font-family:Comfortaa;-inkscape-font-specification:'Comfortaa, Bold';text-align:start;letter-spacing:-9.65999985px;writing-mode:lr-tb;text-anchor:start;fill:#033055;fill-opacity:1"
         id="path4175" /><path
         d="m 548.20587,567.86791 q 12.42,0 22.32,5.4 9.9,5.4 15.48,15.84 5.58,10.26 5.58,24.84 l 0,44.28 q 0,3.96 -2.7,6.66 -2.52,2.52 -6.48,2.52 -3.96,0 -6.66,-2.52 -2.52,-2.7 -2.52,-6.66 l 0,-44.28 q 0,-14.58 -7.92,-21.96 -7.74,-7.56 -20.7,-7.56 -7.56,0 -13.86,3.06 -6.12,3.06 -9.72,8.28 -3.42,5.22 -3.42,11.7 l 0,50.76 q 0,3.96 -2.52,6.66 -2.52,2.52 -6.66,2.52 -3.96,0 -6.66,-2.52 -2.52,-2.7 -2.52,-6.66 l 0,-80.28 q 0,-4.14 2.52,-6.66 2.7,-2.52 6.66,-2.52 4.14,0 6.66,2.52 2.52,2.52 2.52,6.66 l 0,1.98 q 5.76,-5.76 13.68,-8.82 7.92,-3.24 16.92,-3.24 z"
         style="font-style:normal;font-variant:normal;font-weight:bold;font-stretch:normal;font-size:180px;line-height:125%;font-family:Comfortaa;-inkscape-font-specification:'Comfortaa, Bold';text-align:start;letter-spacing:-9.65999985px;writing-mode:lr-tb;text-anchor:start;fill:#033055;fill-opacity:1"
         id="path4177" /><path
         d="m 654.22115,649.22791 q 3.24,0 5.4,2.52 2.34,2.52 2.34,6.48 0,3.96 -3.06,6.48 -2.88,2.52 -7.56,2.52 l -3.24,0 q -8.82,0 -16.2,-4.5 -7.2,-4.68 -11.34,-12.6 -4.14,-7.92 -4.14,-17.82 l 0,-44.46 -8.28,0 q -3.78,0 -6.12,-2.16 -2.34,-2.16 -2.34,-5.4 0,-3.6 2.34,-5.76 2.34,-2.16 6.12,-2.16 l 8.28,0 0,-25.92 q 0,-3.96 2.52,-6.48 2.52,-2.52 6.48,-2.52 3.96,0 6.48,2.52 2.52,2.52 2.52,6.48 l 0,25.92 15.3,0 q 3.78,0 6.12,2.16 2.34,2.16 2.34,5.76 0,3.24 -2.34,5.4 -2.34,2.16 -6.12,2.16 l -15.3,0 0,44.46 q 0,7.2 3.96,12.06 3.96,4.86 9.72,4.86 l 6.12,0 z"
         style="font-style:normal;font-variant:normal;font-weight:bold;font-stretch:normal;font-size:180px;line-height:125%;font-family:Comfortaa;-inkscape-font-specification:'Comfortaa, Bold';text-align:start;letter-spacing:-9.65999985px;writing-mode:lr-tb;text-anchor:start;fill:#033055;fill-opacity:1"
         id="path4179" /><path
         d="m 709.25149,568.04791 q 11.7,0 20.88,3.78 9.36,3.78 14.76,10.44 2.34,2.88 2.34,5.76 0,3.06 -3.06,5.58 -1.98,1.44 -5.04,1.44 -4.68,0 -8.46,-3.42 -4.5,-4.14 -9.54,-5.76 -5.04,-1.8 -12.24,-1.8 -8.28,0 -13.68,2.88 -5.22,2.7 -5.22,7.74 0,3.6 1.8,6.12 1.8,2.34 6.84,4.5 5.04,1.98 14.58,3.96 19.62,3.96 27.72,10.98 8.28,7.02 8.28,18.18 0,8.28 -4.5,15.12 -4.5,6.66 -13.32,10.62 -8.64,3.78 -20.88,3.78 -12.24,0 -23.04,-3.78 -10.8,-3.78 -16.92,-9.9 -2.34,-2.34 -2.34,-5.58 0,-4.32 3.6,-7.02 3.42,-2.52 6.3,-2.52 3.6,0 6.84,3.24 3.42,3.78 10.26,6.66 6.84,2.7 14.58,2.7 10.26,0 15.84,-3.42 5.76,-3.42 5.76,-9.18 0,-5.58 -5.58,-9.18 -5.58,-3.78 -18.9,-6.3 -34.56,-6.66 -34.56,-28.44 0,-8.82 5.22,-14.94 5.22,-6.12 13.68,-9.18 8.46,-3.06 18,-3.06 z"
         style="font-style:normal;font-variant:normal;font-weight:bold;font-stretch:normal;font-size:180px;line-height:125%;font-family:Comfortaa;-inkscape-font-specification:'Comfortaa, Bold';text-align:start;letter-spacing:-9.65999985px;writing-mode:lr-tb;text-anchor:start;fill:#033055;fill-opacity:1"
         id="path4181" /></g><g
       style="font-style:normal;font-variant:normal;font-weight:normal;font-stretch:normal;font-size:180px;line-height:125%;font-family:Comfortaa;-inkscape-font-specification:'Comfortaa, Normal';text-align:start;letter-spacing:0px;word-spacing:0px;writing-mode:lr-tb;text-anchor:start;fill:#000000;fill-opacity:1;stroke:none;stroke-width:1px;stroke-linecap:butt;stroke-linejoin:miter;stroke-opacity:1"
       id="text3456" /></g></svg>