<svg xmlns="http://www.w3.org/2000/svg" width="2882.316" height="675.505" viewBox="0 0 2882.316 675.505"><g transform="translate(-260.566 -731.173)"><path d="M79.947-442.827q-13.041,0-20.979,7.938T51.03-413.91v258.552q0,44.226,20.7,80.23a152.459,152.459,0,0,0,56.133,56.7q35.437,20.7,79.1,20.7t79.663-20.7a149.125,149.125,0,0,0,56.417-56.7q20.412-36,20.412-80.23t-18.994-80.23q-18.994-36-52.164-56.417t-73.994-20.412a139.662,139.662,0,0,0-61.236,13.608,138.9,138.9,0,0,0-48.2,37.989V-413.91q0-13.041-8.222-20.979T79.947-442.827ZM206.955-48.762q-28.35,0-51.313-13.891a97.571,97.571,0,0,1-36-38.273Q106.6-125.307,106.6-155.358t13.041-54.149a98.083,98.083,0,0,1,36-37.989q22.963-13.891,51.313-13.891T258.268-247.5a100.181,100.181,0,0,1,36.288,37.989q13.324,24.1,13.324,54.149t-13.324,54.432a99.63,99.63,0,0,1-36.288,38.273Q235.3-48.762,206.955-48.762ZM407.862-414.477q0-12.474,7.938-20.412t20.412-7.938q12.474,0,20.412,7.938t7.938,20.412V-104.9q0,20.979,7.938,34.587T492.912-56.7h14.175q11.34,0,18.428,7.938T532.6-28.35q0,12.474-10.773,20.412T494.046,0h-1.134a76.27,76.27,0,0,1-43.943-13.324q-19.561-13.324-30.334-37.422T407.862-104.9ZM814.59-310.716q13.041,0,20.979,7.938t7.938,20.979V-28.917q0,12.474-7.938,20.7T814.59,0q-12.474,0-20.7-8.221t-8.221-20.7v-6.237A126.026,126.026,0,0,1,742.581-7.088a142.88,142.88,0,0,1-53.3,9.923q-39.123,0-70.308-17.01T570.213-63.787q-17.577-32.6-17.577-78.529V-281.8q0-12.474,8.221-20.7t20.7-8.221q12.474,0,20.7,8.221t8.221,20.7v139.482q0,45.927,24.665,69.457t65.488,23.53q23.814,0,43.375-9.639T774.616-85.05A64.567,64.567,0,0,0,785.673-121.9V-281.8q0-13.041,8.221-20.979T814.59-310.716Zm256.473-1.7q43.659,0,79.663,20.7a149.125,149.125,0,0,1,56.417,56.7q20.412,36,20.412,80.23t-18.994,80.23q-18.995,36-52.164,56.417T1082.4,2.268a139.662,139.662,0,0,1-61.236-13.608,138.9,138.9,0,0,1-48.2-37.989v153.09q0,13.041-7.938,20.979t-20.979,7.938q-12.474,0-20.7-7.938t-8.221-20.979V-154.791q0-44.226,20.7-80.23a152.459,152.459,0,0,1,56.133-56.7Q1027.4-312.417,1071.063-312.417Zm0,263.655q28.35,0,51.313-13.891a100.181,100.181,0,0,0,36.288-37.989q13.324-24.1,13.324-54.149t-13.324-54.432a99.631,99.631,0,0,0-36.288-38.273q-22.963-13.891-51.313-13.891T1019.75-247.5a97.571,97.571,0,0,0-36,38.273Q970.7-184.842,970.7-154.791t13.041,54.149a98.083,98.083,0,0,0,36,37.989Q1042.713-48.762,1071.063-48.762Zm364.2-264.789q30.051,0,47.061,9.072t17.01,22.68a19.893,19.893,0,0,1-.567,5.67q-5.1,18.144-22.68,18.144a47.762,47.762,0,0,1-8.505-1.134q-22.68-3.969-36.855-3.969-40.824,0-65.772,18.711t-24.948,50.463V-28.35q0,13.608-7.088,20.979T1311.66,0q-13.608,0-20.979-7.088T1283.31-28.35V-281.8q0-13.608,7.371-20.979t20.979-7.371q28.35,0,28.35,28.35v10.773a119.623,119.623,0,0,1,41.958-31.185A127.285,127.285,0,0,1,1435.266-313.551Zm247.4.567q39.123,0,70.308,17.01t48.762,49.612q17.577,32.6,17.577,78.53V-28.35q0,12.474-8.221,20.7T1790.4.567q-12.474,0-20.7-8.222t-8.221-20.7V-167.832q0-45.927-24.665-69.458t-65.489-23.531q-23.814,0-43.375,9.639T1597.333-225.1a64.568,64.568,0,0,0-11.057,36.855V-28.35q0,12.474-7.938,20.7T1557.36.567q-12.474,0-20.7-8.222t-8.221-20.7V-281.232q0-13.041,8.221-20.979t20.7-7.938q13.041,0,20.979,7.938t7.938,20.979v6.237a126.028,126.028,0,0,1,43.092-28.066A142.88,142.88,0,0,1,1682.667-312.984ZM2016.819-56.7a22.322,22.322,0,0,1,17.294,7.938q7.087,7.938,7.087,20.412a25.55,25.55,0,0,1-9.355,20.412Q2022.489,0,2007.747,0h-10.206a93.332,93.332,0,0,1-50.747-14.458,100.716,100.716,0,0,1-36-39.406Q1897.749-78.813,1897.749-110V-250.047h-26.082q-11.907,0-19.278-6.8a22.186,22.186,0,0,1-7.371-17.01q0-11.34,7.371-18.144t19.278-6.8h26.082v-81.648q0-12.474,7.938-20.412t20.412-7.938q12.474,0,20.412,7.938t7.938,20.412v81.648h48.2q11.907,0,19.278,6.8t7.371,18.144a22.187,22.187,0,0,1-7.371,17.01q-7.371,6.8-19.278,6.8h-48.2V-110q0,22.68,12.474,37.989T1997.541-56.7ZM2190.51-312.417q36.855,0,66.055,11.907t46.21,32.886q7.371,9.072,7.371,18.144,0,9.639-9.639,17.577-6.237,4.536-15.876,4.536-14.742,0-26.649-10.773-14.175-13.041-30.051-18.428t-38.556-5.387q-26.082,0-42.809,8.789T2129.841-228.5q0,11.34,5.67,18.994t21.546,14.175q15.876,6.521,45.927,12.757,61.8,12.474,87.6,34.587t25.8,57.267a83.491,83.491,0,0,1-14.175,47.345q-14.175,21.262-41.675,33.453t-66.055,12.19A218.13,218.13,0,0,1,2121.9-9.639q-34.02-11.907-53.3-31.185a24,24,0,0,1-7.371-17.577q0-13.608,11.34-22.113,10.773-7.938,19.845-7.938,11.34,0,21.546,10.206,10.773,11.907,32.319,20.7a120.419,120.419,0,0,0,45.927,8.788q32.319,0,50.179-10.773t17.861-28.917q0-17.577-17.577-29.2t-59.535-19.562q-108.864-20.979-108.864-89.586,0-27.783,16.443-47.061t43.092-28.917A165.416,165.416,0,0,1,2190.51-312.417Z" transform="translate(776.497 1224)" fill="#033055" stroke="rgba(242,8,8,0)" stroke-width="100"/><g transform="translate(22)"><rect width="42.329" height="417.296" rx="20" transform="translate(655.862 992.757) rotate(90)" fill="#6ebdff"/><rect width="42.329" height="293.922" rx="20" transform="translate(650.524 1074.391) rotate(90)" fill="#6ebdff"/><rect width="42.329" height="152.404" rx="20" transform="translate(654.258 1157.537) rotate(90)" fill="#6ebdff"/><rect width="42.329" height="293.922" rx="20" transform="translate(650.524 911.122) rotate(90)" fill="#6ebdff"/><rect width="42.329" height="152.404" rx="20" transform="translate(650.629 831) rotate(90)" fill="#6ebdff"/><rect width="42.329" height="293.922" rx="20" transform="translate(650.524 1074.391) rotate(90)" fill="#a1dfff"/><rect width="42.329" height="152.404" rx="20" transform="translate(654.258 1157.537) rotate(90)" fill="#6ebdff"/><rect width="42.329" height="293.922" rx="20" transform="translate(650.524 911.122) rotate(90)" fill="#a1dfff"/><rect width="42.329" height="152.404" rx="20" transform="translate(650.629 831) rotate(90)" fill="#6ebdff"/><rect width="42.329" height="417.296" rx="20" transform="translate(655.862 992.757) rotate(90)" fill="#6ebdff"/><rect width="42.329" height="293.922" rx="20" transform="translate(650.524 1074.391) rotate(90)" fill="#6ebdff"/><rect width="42.329" height="152.404" rx="20" transform="translate(654.258 1157.537) rotate(90)" fill="#6ebdff"/><rect width="42.329" height="293.922" rx="20" transform="translate(650.524 911.122) rotate(90)" fill="#6ebdff"/><rect width="42.329" height="152.404" rx="20" transform="translate(650.629 831) rotate(90)" fill="#6ebdff"/><rect width="42.329" height="298.922" rx="20" transform="translate(655.524 1074.391) rotate(90)" fill="#a1dfff"/><rect width="42.329" height="156.404" rx="20" transform="translate(654.258 1157.537) rotate(90)" fill="#6ebdff"/><rect width="42.329" height="298.922" rx="20" transform="translate(655.524 911.122) rotate(90)" fill="#a1dfff"/><rect width="42.329" height="152.404" rx="20" transform="translate(650.629 831) rotate(90)" fill="#6ebdff"/></g></g></svg>