<svg xmlns="http://www.w3.org/2000/svg" width="989.971" height="205" viewBox="0 0 989.971 205">
  <g id="Group_1" data-name="Group 1" transform="translate(-56.029 -272)">
    <path id="Path_17" data-name="Path 17" d="M18-104.762a9.7,9.7,0,0,0,0,2v47a58.547,58.547,0,0,0,8,29,52.357,52.357,0,0,0,20,20c8.551,4.915,17.5,8,28,8a58.351,58.351,0,0,0,29-8,52.357,52.357,0,0,0,20-20c4.915-8.619,7-18.5,7-29a55.261,55.261,0,0,0-7-28c-4.781-8.551-10.718-15.085-19-20a54.689,54.689,0,0,0-28-8,52.347,52.347,0,0,0-24,6,49.388,49.388,0,0,0-18,15v-59a8.33,8.33,0,0,0-2-6,8.33,8.33,0,0,0-6-2,6,6,0,0,0-5,2c-1.414,1.481-3,3.711-3,6Zm56,92c-7.676,0-13.805-2.3-20-6a40.585,40.585,0,0,1-15-15c-3.569-6.4-5-14.055-5-22,0-2.289-.135-3.923,0-5,.135-.269,0-.6,0-1,1.347-10.5,5.526-19.267,13-26s16.361-10,27-10a41.654,41.654,0,0,1,21,6,39.618,39.618,0,0,1,15,15c3.569,6.4,5,13.055,5,21s-1.431,15.6-5,22a40.1,40.1,0,0,1-15,15A41,41,0,0,1,74-12.762Zm77-137c0-2.289.519-4.586,2-6a8.865,8.865,0,0,1,6-2,6.2,6.2,0,0,1,5,2,8.527,8.527,0,0,1,2,6v115a25.135,25.135,0,0,0,4,14,9.994,9.994,0,0,0,9,5h5c2.02,0,3.788,1.586,5,3s1,2.711,1,5-.317,4.586-2,6-4.307,2-7,2h-2c-8.215,0-14.815-3.469-20-10s-8-14.765-8-25Zm147,39a8.638,8.638,0,0,1,6,2c1.481,1.414,2,3.711,2,6v95a8.33,8.33,0,0,1-2,6,8.33,8.33,0,0,1-6,2,6,6,0,0,1-5-2,8.638,8.638,0,0,1-2-6v-7a47.235,47.235,0,0,1-16,12,51.666,51.666,0,0,1-21,4,55.019,55.019,0,0,1-26-6,44.547,44.547,0,0,1-18-18c-4.309-7.743-6-17.227-6-28v-52a8.54,8.54,0,0,1,2-6,6.251,6.251,0,0,1,5-2,8.33,8.33,0,0,1,6,2,8.54,8.54,0,0,1,2,6v52c0,11.985,3.334,21.738,10,28s16.227,9,27,9a37.016,37.016,0,0,0,17-4c5.319-2.559,9.9-5.489,13-10a26.191,26.191,0,0,0,5-15v-60a8.527,8.527,0,0,1,2-6A6.2,6.2,0,0,1,298-110.762Zm95-1c10.5,0,19.449,3.085,28,8a52.357,52.357,0,0,1,20,20,58.546,58.546,0,0,1,8,29,55.261,55.261,0,0,1-7,28,53.784,53.784,0,0,1-20,20,54.689,54.689,0,0,1-28,8,52.347,52.347,0,0,1-24-6,49.388,49.388,0,0,1-18-15v59a8.33,8.33,0,0,1-2,6,8.33,8.33,0,0,1-6,2,6,6,0,0,1-5-2,8.638,8.638,0,0,1-2-6v-45a9.7,9.7,0,0,1,0-2v-47c0-10.5,2.085-20.381,7-29a52.357,52.357,0,0,1,20-20A58.352,58.352,0,0,1,393-111.762Zm0,99a41.654,41.654,0,0,0,21-6c6.262-3.636,10.431-8.6,14-15s6-13.055,6-21a45.725,45.725,0,0,0-6-22c-3.569-6.4-7.738-11.3-14-15a41,41,0,0,0-21-6,40.809,40.809,0,0,0-21,6,40.585,40.585,0,0,0-15,15c-3.569,6.4-5,14.055-5,22,0,2.289-.135,3.923,0,5,.135.269,0,.6,0,1a41.811,41.811,0,0,0,14,26C373.474-16.029,382.361-12.762,393-12.762Zm130-99c5.656,0,10.7.519,14,2a7.873,7.873,0,0,1,5,7c0,.808-.865.6-1,1-.539,1.885-.855,3.327-2,4a10.458,10.458,0,0,1-5,1,42.476,42.476,0,0,1-6,0c-1.077-.135-2.845,0-5,0-10.1,0-18.6,2.613-25,8s-9,12.381-9,21v60a8.5,8.5,0,0,1-2,6,8.5,8.5,0,0,1-6,2,8.5,8.5,0,0,1-6-2,8.5,8.5,0,0,1-2-6v-95a8.5,8.5,0,0,1,2-6,8.5,8.5,0,0,1,6-2,8.5,8.5,0,0,1,6,2,8.5,8.5,0,0,1,2,6v9a39.892,39.892,0,0,1,15-13C510.06-109.859,516-111.762,523-111.762Zm89,0a55.019,55.019,0,0,1,26,6,44.547,44.547,0,0,1,18,18c4.309,7.743,6,17.227,6,28v52a8.54,8.54,0,0,1-2,6,8.54,8.54,0,0,1-6,2,6.08,6.08,0,0,1-5-2,8.539,8.539,0,0,1-2-6v-52c0-11.985-3.334-21.738-10-28s-16.227-9-27-9a37.016,37.016,0,0,0-17,4c-5.319,2.559-9.9,5.489-13,10a26.19,26.19,0,0,0-5,15v60a8.527,8.527,0,0,1-2,6,6.2,6.2,0,0,1-5,2,8.638,8.638,0,0,1-6-2c-1.481-1.414-2-3.711-2-6v-95a8.33,8.33,0,0,1,2-6,8.33,8.33,0,0,1,6-2,6,6,0,0,1,5,2,8.638,8.638,0,0,1,2,6v7a47.236,47.236,0,0,1,16-12A51.666,51.666,0,0,1,612-111.762Zm127,96a6.08,6.08,0,0,1,5,2,8.971,8.971,0,0,1,2,6c0,2.155-.384,4.519-2,6a8.33,8.33,0,0,1-6,2h-4c-7.137,0-14.344-1.566-20-5a35.663,35.663,0,0,1-13-14,41.731,41.731,0,0,1-5-20v-54H683a6.66,6.66,0,0,1-5-2,7.106,7.106,0,0,1-2-5,6.877,6.877,0,0,1,2-5,6.66,6.66,0,0,1,5-2h13v-31c0-2.289,1.586-4.519,3-6a6,6,0,0,1,5-2,8.33,8.33,0,0,1,6,2,8.33,8.33,0,0,1,2,6v31h23a6.66,6.66,0,0,1,5,2,6.877,6.877,0,0,1,2,5,7.106,7.106,0,0,1-2,5,6.66,6.66,0,0,1-5,2H712v54c0,6.868,1.96,12.623,6,17s9.671,6,16,6Zm65-96a54.082,54.082,0,0,1,23,5c6.6,3.03,11.96,6.613,16,12,1.077,1.751,2,3.653,2,5,0,2.289-1.845,4.653-4,6a7.04,7.04,0,0,1-4,1,9.1,9.1,0,0,1-7-3c-6.6-7.541-15.553-12-27-12a28.478,28.478,0,0,0-17,5c-4.444,3.03-7,6.421-7,11a13.887,13.887,0,0,0,6,12c4.175,2.9,11.361,5.249,22,7,14.409,2.424,24.805,6.546,31,12s10,11.92,10,20c0,6.195-2.3,11.152-6,16a35.842,35.842,0,0,1-15,12c-6.6,2.693-14.651,4-23,4a68.582,68.582,0,0,1-24-4,44.558,44.558,0,0,1-18-12,8.221,8.221,0,0,1-2-5,7.307,7.307,0,0,1,3-6,8.429,8.429,0,0,1,5-2,7.915,7.915,0,0,1,6,3c3.232,3.771,6.681,6.98,12,9a51.256,51.256,0,0,0,18,3c9.427,0,16.287-1.768,21-5s7.865-7.748,8-13c0-4.848-2.287-8.768-7-12s-12.765-5.384-23-7c-13.2-2.155-22.469-6.681-29-12s-10-11.459-10-19c0-9.831,3.391-17.613,11-23S792.553-111.762,804-111.762Z" transform="translate(198 429.762)" fill="#022f55"/>
    <rect id="Rectangle_55" data-name="Rectangle 55" width="14" height="115" rx="7" transform="translate(171.029 353.5) rotate(90)" fill="#6ebdff"/>
    <rect id="Rectangle_56" data-name="Rectangle 56" width="14" height="81" rx="7" transform="translate(169.558 380.5) rotate(90)" fill="#6ebdff"/>
    <rect id="Rectangle_57" data-name="Rectangle 57" width="14" height="42" rx="7" transform="translate(170.587 408) rotate(90)" fill="#6ebdff"/>
    <rect id="Rectangle_58" data-name="Rectangle 58" width="14" height="81" rx="7" transform="translate(169.558 326.5) rotate(90)" fill="#6ebdff"/>
    <rect id="Rectangle_59" data-name="Rectangle 59" width="14" height="42" rx="7" transform="translate(169.587 300) rotate(90)" fill="#6ebdff"/>
    <path id="Path_18" data-name="Path 18" d="M18-104.762a9.7,9.7,0,0,0,0,2v47a58.547,58.547,0,0,0,8,29,52.357,52.357,0,0,0,20,20c8.551,4.915,17.5,8,28,8a58.351,58.351,0,0,0,29-8,52.357,52.357,0,0,0,20-20c4.915-8.619,7-18.5,7-29a55.261,55.261,0,0,0-7-28c-4.781-8.551-10.718-15.085-19-20a54.689,54.689,0,0,0-28-8,52.347,52.347,0,0,0-24,6,49.388,49.388,0,0,0-18,15v-59a8.33,8.33,0,0,0-2-6,8.33,8.33,0,0,0-6-2,6,6,0,0,0-5,2c-1.414,1.481-3,3.711-3,6Zm56,92c-7.676,0-13.805-2.3-20-6a40.585,40.585,0,0,1-15-15c-3.569-6.4-5-14.055-5-22,0-2.289-.135-3.923,0-5,.135-.269,0-.6,0-1,1.347-10.5,5.526-19.267,13-26s16.361-10,27-10a41.654,41.654,0,0,1,21,6,39.618,39.618,0,0,1,15,15c3.569,6.4,5,13.055,5,21s-1.431,15.6-5,22a40.1,40.1,0,0,1-15,15A41,41,0,0,1,74-12.762Zm77-137c0-2.289.519-4.586,2-6a8.865,8.865,0,0,1,6-2,6.2,6.2,0,0,1,5,2,8.527,8.527,0,0,1,2,6v115a25.135,25.135,0,0,0,4,14,9.994,9.994,0,0,0,9,5h5c2.02,0,3.788,1.586,5,3s1,2.711,1,5-.317,4.586-2,6-4.307,2-7,2h-2c-8.215,0-14.815-3.469-20-10s-8-14.765-8-25Zm147,39a8.638,8.638,0,0,1,6,2c1.481,1.414,2,3.711,2,6v95a8.33,8.33,0,0,1-2,6,8.33,8.33,0,0,1-6,2,6,6,0,0,1-5-2,8.638,8.638,0,0,1-2-6v-7a47.235,47.235,0,0,1-16,12,51.666,51.666,0,0,1-21,4,55.019,55.019,0,0,1-26-6,44.547,44.547,0,0,1-18-18c-4.309-7.743-6-17.227-6-28v-52a8.54,8.54,0,0,1,2-6,6.251,6.251,0,0,1,5-2,8.33,8.33,0,0,1,6,2,8.54,8.54,0,0,1,2,6v52c0,11.985,3.334,21.738,10,28s16.227,9,27,9a37.016,37.016,0,0,0,17-4c5.319-2.559,9.9-5.489,13-10a26.191,26.191,0,0,0,5-15v-60a8.527,8.527,0,0,1,2-6A6.2,6.2,0,0,1,298-110.762Zm95-1c10.5,0,19.449,3.085,28,8a52.357,52.357,0,0,1,20,20,58.546,58.546,0,0,1,8,29,55.261,55.261,0,0,1-7,28,53.784,53.784,0,0,1-20,20,54.689,54.689,0,0,1-28,8,52.347,52.347,0,0,1-24-6,49.388,49.388,0,0,1-18-15v59a8.33,8.33,0,0,1-2,6,8.33,8.33,0,0,1-6,2,6,6,0,0,1-5-2,8.638,8.638,0,0,1-2-6v-45a9.7,9.7,0,0,1,0-2v-47c0-10.5,2.085-20.381,7-29a52.357,52.357,0,0,1,20-20A58.352,58.352,0,0,1,393-111.762Zm0,99a41.654,41.654,0,0,0,21-6c6.262-3.636,10.431-8.6,14-15s6-13.055,6-21a45.725,45.725,0,0,0-6-22c-3.569-6.4-7.738-11.3-14-15a41,41,0,0,0-21-6,40.809,40.809,0,0,0-21,6,40.585,40.585,0,0,0-15,15c-3.569,6.4-5,14.055-5,22,0,2.289-.135,3.923,0,5,.135.269,0,.6,0,1a41.811,41.811,0,0,0,14,26C373.474-16.029,382.361-12.762,393-12.762Zm130-99c5.656,0,10.7.519,14,2a7.873,7.873,0,0,1,5,7c0,.808-.865.6-1,1-.539,1.885-.855,3.327-2,4a10.458,10.458,0,0,1-5,1,42.476,42.476,0,0,1-6,0c-1.077-.135-2.845,0-5,0-10.1,0-18.6,2.613-25,8s-9,12.381-9,21v60a8.5,8.5,0,0,1-2,6,8.5,8.5,0,0,1-6,2,8.5,8.5,0,0,1-6-2,8.5,8.5,0,0,1-2-6v-95a8.5,8.5,0,0,1,2-6,8.5,8.5,0,0,1,6-2,8.5,8.5,0,0,1,6,2,8.5,8.5,0,0,1,2,6v9a39.892,39.892,0,0,1,15-13C510.06-109.859,516-111.762,523-111.762Zm89,0a55.019,55.019,0,0,1,26,6,44.547,44.547,0,0,1,18,18c4.309,7.743,6,17.227,6,28v52a8.54,8.54,0,0,1-2,6,8.54,8.54,0,0,1-6,2,6.08,6.08,0,0,1-5-2,8.539,8.539,0,0,1-2-6v-52c0-11.985-3.334-21.738-10-28s-16.227-9-27-9a37.016,37.016,0,0,0-17,4c-5.319,2.559-9.9,5.489-13,10a26.19,26.19,0,0,0-5,15v60a8.527,8.527,0,0,1-2,6,6.2,6.2,0,0,1-5,2,8.638,8.638,0,0,1-6-2c-1.481-1.414-2-3.711-2-6v-95a8.33,8.33,0,0,1,2-6,8.33,8.33,0,0,1,6-2,6,6,0,0,1,5,2,8.638,8.638,0,0,1,2,6v7a47.236,47.236,0,0,1,16-12A51.666,51.666,0,0,1,612-111.762Zm127,96a6.08,6.08,0,0,1,5,2,8.971,8.971,0,0,1,2,6c0,2.155-.384,4.519-2,6a8.33,8.33,0,0,1-6,2h-4c-7.137,0-14.344-1.566-20-5a35.663,35.663,0,0,1-13-14,41.731,41.731,0,0,1-5-20v-54H683a6.66,6.66,0,0,1-5-2,7.106,7.106,0,0,1-2-5,6.877,6.877,0,0,1,2-5,6.66,6.66,0,0,1,5-2h13v-31c0-2.289,1.586-4.519,3-6a6,6,0,0,1,5-2,8.33,8.33,0,0,1,6,2,8.33,8.33,0,0,1,2,6v31h23a6.66,6.66,0,0,1,5,2,6.877,6.877,0,0,1,2,5,7.106,7.106,0,0,1-2,5,6.66,6.66,0,0,1-5,2H712v54c0,6.868,1.96,12.623,6,17s9.671,6,16,6Zm65-96a54.082,54.082,0,0,1,23,5c6.6,3.03,11.96,6.613,16,12,1.077,1.751,2,3.653,2,5,0,2.289-1.845,4.653-4,6a7.04,7.04,0,0,1-4,1,9.1,9.1,0,0,1-7-3c-6.6-7.541-15.553-12-27-12a28.478,28.478,0,0,0-17,5c-4.444,3.03-7,6.421-7,11a13.887,13.887,0,0,0,6,12c4.175,2.9,11.361,5.249,22,7,14.409,2.424,24.805,6.546,31,12s10,11.92,10,20c0,6.195-2.3,11.152-6,16a35.842,35.842,0,0,1-15,12c-6.6,2.693-14.651,4-23,4a68.582,68.582,0,0,1-24-4,44.558,44.558,0,0,1-18-12,8.221,8.221,0,0,1-2-5,7.307,7.307,0,0,1,3-6,8.429,8.429,0,0,1,5-2,7.915,7.915,0,0,1,6,3c3.232,3.771,6.681,6.98,12,9a51.256,51.256,0,0,0,18,3c9.427,0,16.287-1.768,21-5s7.865-7.748,8-13c0-4.848-2.287-8.768-7-12s-12.765-5.384-23-7c-13.2-2.155-22.469-6.681-29-12s-10-11.459-10-19c0-9.831,3.391-17.613,11-23S792.553-111.762,804-111.762Z" transform="translate(198 429.762)" fill="#022f55"/>
    <rect id="Rectangle_61" data-name="Rectangle 61" width="14" height="81" rx="7" transform="translate(169.558 380.5) rotate(90)" fill="#a1dfff"/>
    <rect id="Rectangle_62" data-name="Rectangle 62" width="14" height="42" rx="7" transform="translate(170.587 408) rotate(90)" fill="#6ebdff"/>
    <rect id="Rectangle_63" data-name="Rectangle 63" width="14" height="81" rx="7" transform="translate(169.558 326.5) rotate(90)" fill="#a1dfff"/>
    <rect id="Rectangle_64" data-name="Rectangle 64" width="14" height="42" rx="7" transform="translate(169.587 300) rotate(90)" fill="#6ebdff"/>
    <rect id="Rectangle_105" data-name="Rectangle 105" width="14" height="115" rx="7" transform="translate(171.029 353.5) rotate(90)" fill="#6ebdff"/>
    <rect id="Rectangle_106" data-name="Rectangle 106" width="14" height="81" rx="7" transform="translate(169.558 380.5) rotate(90)" fill="#6ebdff"/>
    <rect id="Rectangle_107" data-name="Rectangle 107" width="14" height="42" rx="7" transform="translate(170.587 408) rotate(90)" fill="#6ebdff"/>
    <rect id="Rectangle_108" data-name="Rectangle 108" width="14" height="81" rx="7" transform="translate(169.558 326.5) rotate(90)" fill="#6ebdff"/>
    <rect id="Rectangle_109" data-name="Rectangle 109" width="14" height="42" rx="7" transform="translate(169.587 300) rotate(90)" fill="#6ebdff"/>
    <rect id="Rectangle_110" data-name="Rectangle 110" width="14" height="81" rx="7" transform="translate(169.558 380.5) rotate(90)" fill="#a1dfff"/>
    <rect id="Rectangle_111" data-name="Rectangle 111" width="14" height="42" rx="7" transform="translate(170.587 408) rotate(90)" fill="#6ebdff"/>
    <rect id="Rectangle_112" data-name="Rectangle 112" width="14" height="81" rx="7" transform="translate(169.558 326.5) rotate(90)" fill="#a1dfff"/>
    <rect id="Rectangle_113" data-name="Rectangle 113" width="14" height="42" rx="7" transform="translate(169.587 300) rotate(90)" fill="#6ebdff"/>
  </g>
</svg>
