<svg xmlns="http://www.w3.org/2000/svg" width="2996.456" height="633" viewBox="0 0 2996.456 633">
  <g id="Group_4" data-name="Group 4" transform="translate(-94.042 -669)">
    <g id="layer1" transform="translate(707.873 -933.262)">
      <text id="bluprnts" transform="translate(43.625 2102.262)" fill="#033055" font-size="567" font-family="Comfortaa-Bold, Comfortaa" font-weight="700" letter-spacing="-0.054em"><tspan x="0" y="0">bluprnts</tspan></text>
    </g>
    <g id="Group_3" data-name="Group 3" transform="translate(-33.987 45.403)">
      <rect id="Rectangle_123" data-name="Rectangle 123" width="42.856" height="536.82" rx="20" transform="translate(664.849 889.773) rotate(90)" fill="#6ebdff"/>
      <rect id="Rectangle_124" data-name="Rectangle 124" width="42.856" height="378.108" rx="20" transform="translate(657.982 972.424) rotate(90)" fill="#6ebdff"/>
      <rect id="Rectangle_125" data-name="Rectangle 125" width="42.856" height="196.056" rx="20" transform="translate(662.786 1056.607) rotate(90)" fill="#6ebdff"/>
      <rect id="Rectangle_126" data-name="Rectangle 126" width="42.856" height="378.108" rx="20" transform="translate(657.982 807.121) rotate(90)" fill="#6ebdff"/>
      <rect id="Rectangle_127" data-name="Rectangle 127" width="42.856" height="196.056" rx="20" transform="translate(658.118 726) rotate(90)" fill="#6ebdff"/>
      <rect id="Rectangle_128" data-name="Rectangle 128" width="42.856" height="378.108" rx="20" transform="translate(657.982 972.424) rotate(90)" fill="#a1dfff"/>
      <rect id="Rectangle_129" data-name="Rectangle 129" width="42.856" height="196.056" rx="20" transform="translate(662.786 1056.607) rotate(90)" fill="#6ebdff"/>
      <rect id="Rectangle_130" data-name="Rectangle 130" width="42.856" height="378.108" rx="20" transform="translate(657.982 807.121) rotate(90)" fill="#a1dfff"/>
      <rect id="Rectangle_131" data-name="Rectangle 131" width="42.856" height="196.056" rx="20" transform="translate(658.118 726) rotate(90)" fill="#6ebdff"/>
      <rect id="Rectangle_132" data-name="Rectangle 132" width="42.856" height="536.82" rx="20" transform="translate(664.849 889.773) rotate(90)" fill="#6ebdff"/>
      <rect id="Rectangle_133" data-name="Rectangle 133" width="42.856" height="378.108" rx="20" transform="translate(657.982 972.424) rotate(90)" fill="#6ebdff"/>
      <rect id="Rectangle_134" data-name="Rectangle 134" width="42.856" height="196.056" rx="20" transform="translate(662.786 1056.607) rotate(90)" fill="#6ebdff"/>
      <rect id="Rectangle_135" data-name="Rectangle 135" width="42.856" height="378.108" rx="20" transform="translate(657.982 807.121) rotate(90)" fill="#6ebdff"/>
      <rect id="Rectangle_136" data-name="Rectangle 136" width="42.856" height="196.056" rx="20" transform="translate(658.118 726) rotate(90)" fill="#6ebdff"/>
      <rect id="Rectangle_137" data-name="Rectangle 137" width="42.856" height="378.108" rx="20" transform="translate(657.982 972.424) rotate(90)" fill="#a1dfff"/>
      <rect id="Rectangle_138" data-name="Rectangle 138" width="42.856" height="196.056" rx="20" transform="translate(662.786 1056.607) rotate(90)" fill="#6ebdff"/>
      <rect id="Rectangle_139" data-name="Rectangle 139" width="42.856" height="378.108" rx="20" transform="translate(657.982 807.121) rotate(90)" fill="#a1dfff"/>
      <rect id="Rectangle_140" data-name="Rectangle 140" width="42.856" height="196.056" rx="20" transform="translate(658.118 726) rotate(90)" fill="#6ebdff"/>
    </g>
  </g>
</svg>
