<?xml version="1.0" encoding="UTF-8" standalone="no"?>
<!-- Created with Inkscape (http://www.inkscape.org/) -->

<svg
   xmlns:dc="http://purl.org/dc/elements/1.1/"
   xmlns:cc="http://creativecommons.org/ns#"
   xmlns:rdf="http://www.w3.org/1999/02/22-rdf-syntax-ns#"
   xmlns:svg="http://www.w3.org/2000/svg"
   xmlns="http://www.w3.org/2000/svg"
   xmlns:sodipodi="http://sodipodi.sourceforge.net/DTD/sodipodi-0.dtd"
   xmlns:inkscape="http://www.inkscape.org/namespaces/inkscape"
   width="40mm"
   height="40mm"
   viewBox="0 0 141.73229 141.73228"
   id="svg2"
   version="1.1"
   inkscape:version="0.91 r13725"
   sodipodi:docname="logo-b.svg"
   inkscape:export-filename="/Users/Ali/Repos/bluprnts/media/logos/logo-b-icon.png"
   inkscape:export-xdpi="29.040001"
   inkscape:export-ydpi="29.040001">
  <defs
     id="defs4" />
  <sodipodi:namedview
     id="base"
     pagecolor="#ffffff"
     bordercolor="#666666"
     borderopacity="1.0"
     inkscape:pageopacity="0.0"
     inkscape:pageshadow="2"
     inkscape:zoom="0.87"
     inkscape:cx="82.389428"
     inkscape:cy="7.045744"
     inkscape:document-units="px"
     inkscape:current-layer="layer1"
     showgrid="false"
     fit-margin-top="0"
     fit-margin-left="0"
     fit-margin-right="0"
     fit-margin-bottom="0"
     inkscape:snap-global="true"
     inkscape:window-width="1680"
     inkscape:window-height="1005"
     inkscape:window-x="0"
     inkscape:window-y="1"
     inkscape:window-maximized="1" />
  <metadata
     id="metadata7">
    <rdf:RDF>
      <cc:Work
         rdf:about="">
        <dc:format>image/svg+xml</dc:format>
        <dc:type
           rdf:resource="http://purl.org/dc/dcmitype/StillImage" />
        <dc:title></dc:title>
      </cc:Work>
    </rdf:RDF>
  </metadata>
  <g
     inkscape:label="Layer 1"
     inkscape:groupmode="layer"
     id="layer1"
     transform="translate(-179.7399,-576.11363)">
    <g
       style="font-style:normal;font-variant:normal;font-weight:normal;font-stretch:normal;font-size:180px;line-height:125%;font-family:Comfortaa;-inkscape-font-specification:'Comfortaa, Normal';text-align:start;letter-spacing:0px;word-spacing:0px;writing-mode:lr-tb;text-anchor:start;fill:#000000;fill-opacity:1;stroke:none;stroke-width:1px;stroke-linecap:butt;stroke-linejoin:miter;stroke-opacity:1"
       id="text3452">
      <path
         d="m 210.19604,576.32977 q -4.14,0 -6.66,2.52 -2.52,2.52 -2.52,6.66 l 0,82.08 q 0,14.04 6.48,25.56 6.66,11.34 17.82,18 11.34,6.48 25.2,6.48 13.86,0 25.2,-6.48 11.52,-6.66 18,-18 6.48,-11.52 6.48,-25.56 0,-14.04 -6.12,-25.38 -5.94,-11.52 -16.56,-18 -10.44,-6.48 -23.4,-6.48 -10.44,0 -19.44,4.32 -9,4.32 -15.3,12.06 l 0,-48.6 q 0,-4.14 -2.7,-6.66 -2.52,-2.52 -6.48,-2.52 z m 40.32,125.1 q -9,0 -16.38,-4.32 -7.2,-4.5 -11.34,-12.24 -4.14,-7.74 -4.14,-17.28 0,-9.54 4.14,-17.1 4.14,-7.74 11.34,-12.06 7.38,-4.5 16.38,-4.5 9,0 16.2,4.5 7.38,4.32 11.52,12.06 4.32,7.56 4.32,17.1 0,9.54 -4.32,17.28 -4.14,7.74 -11.52,12.24 -7.2,4.32 -16.2,4.32 z"
         style="font-style:normal;font-variant:normal;font-weight:bold;font-stretch:normal;font-size:180px;line-height:125%;font-family:Comfortaa;-inkscape-font-specification:'Comfortaa, Bold';text-align:start;letter-spacing:-9.65999985px;writing-mode:lr-tb;text-anchor:start;fill:#18298d;fill-opacity:1"
         id="path3353"
         inkscape:connector-curvature="0" />
    </g>
    <text
       xml:space="preserve"
       style="font-style:normal;font-variant:normal;font-weight:normal;font-stretch:normal;font-size:180px;line-height:125%;font-family:Comfortaa;-inkscape-font-specification:'Comfortaa, Normal';text-align:start;letter-spacing:0px;word-spacing:0px;writing-mode:lr-tb;text-anchor:start;fill:#000000;fill-opacity:1;stroke:none;stroke-width:1px;stroke-linecap:butt;stroke-linejoin:miter;stroke-opacity:1"
       x="740.55139"
       y="737.81555"
       id="text3456"
       sodipodi:linespacing="125%"><tspan
         sodipodi:role="line"
         id="tspan3458"
         x="740.55139"
         y="737.81555" /></text>
  </g>
</svg>
