<svg height="511pt" viewBox="-21 0 511 511.63309" width="511pt" xmlns="http://www.w3.org/2000/svg"><path d="m426.992188 451.898438h-8.535157v-42.664063c6.789063 0 13.300781-2.703125 18.09375-7.511719 2.714844-2.671875 4.761719-5.945312 5.972657-9.554687 1.03125-2.726563 1.554687-5.621094 1.535156-8.535157 0-14.136718-11.460938-25.601562-25.601563-25.601562h-17.578125c58.71875-58.511719 76.371094-146.65625 44.71875-223.269531-31.65625-76.617188-106.375-126.589844-189.273437-126.59375-2.902344 0-5.714844.082031-8.53125.167969-50.78125 2.082031-98.960938 23.011718-135.136719 58.710937-11.492188-11.308594-16.921875-28.585937-22.902344-58.503906-11.878906 59.355469-21.503906 68.980469-80.894531 80.859375 36.164063 7.230468 53.835937 13.699218 64.851563 31.003906-40.171876 79.082031-24.800782 175.042969 38.058593 237.625h-17.578125c-14.136718 0-25.601562 11.464844-25.601562 25.601562-.015625 2.914063.503906 5.808594 1.539062 8.535157 3.535156 10.253906 13.214844 17.117187 24.0625 17.066406v42.664063h-8.53125c-6.789062 0-13.300781 2.703124-18.09375 7.511718-2.714844 2.671875-4.761718 5.945313-5.972656 9.554688-1.03125 2.726562-1.554688 5.621094-1.535156 8.535156 0 14.136719 11.460937 25.601562 25.601562 25.601562h341.332032c14.136718 0 25.597656-11.464843 25.597656-25.601562.019531-2.914062-.5-5.808594-1.535156-8.535156-3.535157-10.253906-13.214844-17.117188-24.0625-17.066406zm0 0" fill="#2fa8cc"/><path d="m461.125 212.964844c.054688 54.453125-21.632812 106.675781-60.246094 145.066406h-289.109375c-62.867187-62.585938-78.234375-158.558594-38.058593-237.652344l38.914062-53.332031c36.179688-35.707031 84.375-56.640625 135.167969-58.710937 2.816406-.085938 5.628906-.167969 8.53125-.167969 113.097656.027343 204.773437 91.703125 204.800781 204.796875zm0 0" fill="#a4c2f7"/><path d="m439.792969 212.964844c.054687 54.453125-21.632813 106.675781-60.246094 145.066406h-272.042969c-62.867187-62.585938-78.238281-158.558594-38.058594-237.652344l38.910157-53.332031c36.183593-35.707031 84.378906-56.640625 135.167969-58.710937 109.675781 4.628906 196.21875 94.859374 196.269531 204.628906zm0 0" fill="#e3e7f2"/><path d="m452.589844 477.5c0 14.136719-11.460938 25.601562-25.597656 25.601562h-341.332032c-14.140625 0-25.601562-11.464843-25.601562-25.601562-.019532-2.914062.503906-5.808594 1.535156-8.535156 1.210938-3.609375 3.257812-6.882813 5.972656-9.554688 4.792969-4.808594 11.304688-7.511718 18.09375-7.511718h341.332032c10.847656-.050782 20.527343 6.8125 24.0625 17.066406 1.035156 2.726562 1.554687 5.621094 1.535156 8.535156zm0 0" fill="#7fabfa"/><path d="m94.191406 409.234375h324.265625v42.664063h-324.265625zm0 0" fill="#7fabfa"/><path d="m444.058594 383.632812c.019531 2.914063-.503906 5.808594-1.535156 8.535157-1.210938 3.609375-3.257813 6.882812-5.972657 9.554687-4.792969 4.808594-11.304687 7.511719-18.09375 7.511719h-324.265625c-10.847656.050781-20.527344-6.8125-24.0625-17.066406-1.035156-2.726563-1.554687-5.621094-1.539062-8.535157 0-14.136718 11.464844-25.601562 25.601562-25.601562h324.265625c14.140625 0 25.601563 11.464844 25.601563 25.601562zm0 0" fill="#7fabfa"/><path d="m431.257812 477.5c0 14.136719-11.460937 25.601562-25.597656 25.601562h-320c-14.140625 0-25.601562-11.464843-25.601562-25.601562-.019532-2.914062.503906-5.808594 1.535156-8.535156 1.210938-3.609375 3.257812-6.882813 5.972656-9.554688 4.792969-4.808594 11.304688-7.511718 18.09375-7.511718h320c10.847656-.050782 20.523438 6.8125 24.0625 17.066406 1.03125 2.726562 1.554688 5.621094 1.535156 8.535156zm0 0" fill="#a4c2f7"/><path d="m422.726562 383.632812c.015626 2.914063-.503906 5.808594-1.539062 8.535157-1.210938 3.609375-3.257812 6.882812-5.972656 9.554687-4.792969 4.808594-11.300782 7.511719-18.089844 7.511719h-302.933594c-10.847656.050781-20.527344-6.8125-24.0625-17.066406-1.035156-2.726563-1.554687-5.621094-1.539062-8.535157 0-14.136718 11.464844-25.601562 25.601562-25.601562h302.933594c14.136719 0 25.601562 11.464844 25.601562 25.601562zm0 0" fill="#a4c2f7"/><path d="m52.550781 101.949219c-14-5.945313-28.671875-10.15625-43.691406-12.546875 6.570313-1.277344 12.457031-2.558594 17.832031-3.925782 9.964844 3.027344 18.90625 8.722657 25.859375 16.472657zm0 0" fill="#f5f5f5"/><path d="m170.652344 89.402344c-59.394532 11.863281-69.035156 21.503906-80.898438 80.898437-2.339844-13.507812-5.9375-26.761719-10.75-39.59375 9.042969-31.234375 21.585938-41.644531 56.746094-50.179687 11.425781 3.726562 23.082031 6.691406 34.902344 8.875zm0 0" fill="#d4e1f4"/><path d="m135.75 80.527344c-35.160156 8.535156-47.703125 18.945312-56.746094 50.179687-4.609375-12.746093-14.140625-23.105469-26.453125-28.757812-6.953125-7.75-15.894531-13.445313-25.859375-16.472657 35.160156-8.53125 47.703125-18.941406 56.75-50.175781 2.21875-7.59375 4.265625-16.46875 6.3125-26.792969 5.546875 27.390626 10.410156 44.203126 20.140625 55.550782 6.949219 7.75 15.894531 13.445312 25.855469 16.46875zm0 0" fill="#f5f5f5"/><path d="m153.582031 76.605469c-6.570312 1.277343-12.457031 2.558593-17.832031 3.921875-9.960938-3.023438-18.90625-8.71875-25.855469-16.46875 13.996094 5.945312 28.667969 10.15625 43.6875 12.546875zm0 0" fill="#f5f5f5"/><path d="m179.523438 200.167969c0 25.917969-21.011719 46.933593-46.933594 46.933593-25.917969 0-46.929688-21.015624-46.929688-46.933593 0-25.921875 21.011719-46.933594 46.929688-46.933594 25.921875 0 46.933594 21.011719 46.933594 46.933594zm0 0" fill="#e3e7f2"/><path d="m396.835938 240.785156-18.628907-11.988281c-1.183593-.761719-2.664062-.894531-3.960937-.351563l-20.480469 8.535157c-1.496094.625-3.21875.34375-4.445313-.722657-1.222656-1.066406-1.734374-2.734374-1.320312-4.304687l5.640625-21.417969c.367187-1.355468.050781-2.800781-.855469-3.875l-14.4375-16.734375c-1.058594-1.230469-1.324218-2.957031-.691406-4.449219.636719-1.496093 2.066406-2.5 3.6875-2.589843l22.117188-1.253907c1.40625-.078124 2.679687-.839843 3.414062-2.039062l11.476562-18.972656c.84375-1.386719 2.398438-2.171875 4.015626-2.03125 1.617187.140625 3.015624 1.1875 3.605468 2.699218l8.027344 20.648438c.507812 1.3125 1.628906 2.289062 2.996094 2.613281l21.554687 5.121094c1.582031.375 2.808594 1.613281 3.171875 3.199219.363282 1.582031-.203125 3.230468-1.464844 4.257812l-17.160156 13.984375c-1.085937.890625-1.667968 2.253907-1.550781 3.652344l1.816406 22.085937c.121094 1.605469-.671875 3.144532-2.050781 3.976563-1.382812.832031-3.113281.816406-4.476562-.042969zm0 0" fill="#a4c2f7"/><path d="m297.917969 157.097656-15.558594-7.882812c-1.253906-.636719-2.742187-.617188-3.976563.058594l-15.359374 8.355468c-1.421876.75-3.144532.636719-4.453126-.292968-1.3125-.925782-1.992187-2.511719-1.757812-4.101563l2.6875-17.238281c.214844-1.386719-.261719-2.789063-1.28125-3.753906l-12.679688-11.949219c-1.210937-1.109375-1.675781-2.820313-1.195312-4.390625.480469-1.574219 1.820312-2.730469 3.449219-2.972656l17.226562-2.765626c1.386719-.222656 2.574219-1.117187 3.175781-2.386718l7.484376-15.753906c.6875-1.484376 2.164062-2.441407 3.800781-2.46875 1.636719-.023438 3.144531.886718 3.878906 2.347656l7.960937 15.523437c.640626 1.25 1.851563 2.105469 3.242188 2.289063l17.304688 2.242187c1.613281.207031 2.96875 1.3125 3.492187 2.851563.527344 1.539062.132813 3.242187-1.015625 4.394531l-12.304688 12.363281c-.988281.996094-1.425781 2.410156-1.171874 3.789063l3.210937 17.152343c.308594 1.605469-.328125 3.25-1.640625 4.226563-1.3125.980469-3.070312 1.121094-4.519531.363281zm0 0" fill="#e3e7f2"/><path d="m283.171875 318.675781-21.617187-16.382812c-1.117188-.851563-2.582032-1.09375-3.914063-.65625l-25.753906 8.53125c-1.542969.511719-3.238281.101562-4.378907-1.058594-1.140624-1.15625-1.523437-2.859375-.988281-4.390625l8.90625-25.601562c.460938-1.328126.238281-2.796876-.597656-3.925782l-16.050781-21.894531c-.980469-1.3125-1.128906-3.066406-.378906-4.519531.75-1.457032 2.269531-2.351563 3.902343-2.308594l27.121094.632812c1.402344.027344 2.730469-.636718 3.550781-1.777343l15.828125-22.03125c.949219-1.320313 2.5625-1.988281 4.167969-1.722657 1.601562.265626 2.914062 1.417969 3.382812 2.976563l7.851563 25.964844c.410156 1.34375 1.453125 2.402343 2.789063 2.824219l25.839843 8.253906c1.550781.492187 2.683594 1.820312 2.925781 3.429687.242188 1.605469-.445312 3.210938-1.78125 4.140625l-22.273437 15.484375c-1.148437.804688-1.832031 2.121094-1.824219 3.527344l.144532 27.125c-.003907 1.621094-.925782 3.097656-2.378907 3.8125-1.453125.71875-3.183593.550781-4.472656-.433594zm0 0" fill="#e3e7f2"/><path d="m85.660156 477.5c-.019531-2.914062.5-5.808594 1.535156-8.535156 1.210938-3.609375 3.257813-6.882813 5.972657-9.554688 4.792969-4.808594 11.300781-7.511718 18.089843-7.511718h8.535157v-42.664063c-10.851563.050781-20.527344-6.8125-24.066407-17.066406-1.03125-2.726563-1.554687-5.621094-1.535156-8.535157 0-14.136718 11.460938-25.601562 25.601563-25.601562h13.3125c-38.613281-38.390625-60.300781-90.613281-60.246094-145.066406 0-33.277344 3.667969-43.433594 17.917969-71.25l2.101562-2.878906c-9.652344-13.0625-19.859375-40.847657-45.6875-46.726563h-.0625c-3.945312-.90625-8.171875-1.808594-12.671875-2.707031 3.714844-.742188 7.21875-1.476563 10.558594-2.207032l.503906-.121093c2.429688-.539063 4.707031-1.09375 6.953125-1.636719 1.46875-.359375 2.839844-.726562 4.265625-1.09375s2.960938-.792969 4.371094-1.203125c.851563-.246094 1.707031-.496094 2.558594-.75 2.304687-.710937 4.523437-1.433594 6.597656-2.203125l.851563-.339844c1.859374-.707031 3.636718-1.445312 5.324218-2.210937l1.253906-.582031c1.851563-.851563 3.628907-1.800782 5.285157-2.78125h.058593c1.65625-.988282 3.257813-2.074219 4.796876-3.242188.304687-.230469.605468-.476562.902343-.726562 1.195313-.9375 2.320313-1.9375 3.414063-2.976563.28125-.28125.589844-.546875.851562-.851563 1.265625-1.28125 2.453125-2.636718 3.558594-4.054687.214844-.273437.410156-.570313.617188-.855469.871093-1.175781 1.703124-2.40625 2.5-3.691406.339843-.554688.671874-1.109375 1.007812-1.707031.648438-1.144531 1.269531-2.355469 1.882812-3.585938l-.152343-.28125c-.289063-.597656-.582031-1.203125-.851563-1.824219-.648437-1.410156-1.265625-2.902343-1.863281-4.429687-.296875-.777344-.605469-1.546875-.894531-2.355469-.511719-1.398437-1-2.886718-1.476563-4.386718-.351562-1.109376-.707031-2.191407-1.058593-3.355469-.347657-1.160157-.664063-2.414063-1.007813-3.625-.441406-1.648438-.894531-3.257813-1.328125-5.007813-.121094-.46875-.230469-.992187-.351562-1.46875-1.28125-5.28125-2.558594-11-3.8125-17.347656-.660157 3.292969-1.308594 6.375-1.964844 9.386719-.195313.851562-.390625 1.757812-.578125 2.617187-.421875 1.828125-.855469 3.558594-1.246094 5.285156-.855469 3.351563-1.707031 6.570313-2.5625 9.53125-.417969 1.441407-.851563 2.796876-1.289063 4.15625-.304687.964844-.621093 1.917969-.945312 2.839844-.382812 1.101563-.769531 2.203125-1.167969 3.242188-.703125 1.828125-1.417969 3.601562-2.1875 5.265625-.253906.554687-.527343 1.058593-.792969 1.597656-.640624 1.304687-1.296874 2.558594-1.980468 3.769531-.332032.574219-.664063 1.128906-1.003906 1.707032-.792969 1.285156-1.625 2.519531-2.5 3.695312-.207032.28125-.402344.582031-.617188.851562-1.105469 1.421876-2.292969 2.773438-3.558594 4.054688-.273437.289062-.578125.554688-.851562.855469-1.085938 1.039062-2.210938 2.039062-3.414063 2.976562-.296875.246094-.597656.496094-.90625.726563-1.535156 1.167968-3.136719 2.25-4.792969 3.242187h-.0625c-1.652343.980469-3.410156 1.902344-5.28125 2.78125l-1.253906.578125c-1.707031.769532-3.480468 1.507813-5.324218 2.210938l-.851563.34375c-2.074219.765625-4.269531 1.492187-6.597656 2.199218-.855469.257813-1.707031.503907-2.558594.75-1.410156.410157-2.878906.855469-4.371094 1.203126-1.492187.351562-2.757812.734374-4.222656 1.09375-2.246094.546874-4.523437 1.101562-6.957031 1.640624l-.503906.117188c-3.335938.734375-6.824219 1.46875-10.554688 2.210938 4.507812.902343 8.730469 1.800781 12.671875 2.6875h.058594c25.832031 5.878906 40.304687 12.332031 49.957031 25.394531l-2.117188 2.867187c-40.179687 79.09375-24.808593 175.066406 38.058594 237.652344h-13.3125c-14.136718 0-25.601562 11.464844-25.601562 25.601562-.015625 2.914063.503906 5.808594 1.539062 8.535157 3.535156 10.253906 13.214844 17.117187 24.0625 17.066406v42.664063h-8.53125c-6.789062 0-13.300781 2.703124-18.09375 7.511718-2.714844 2.671875-4.761718 5.945313-5.972656 9.554688-1.03125 2.726562-1.554688 5.621094-1.535156 8.535156 0 14.136719 11.460937 25.601562 25.601562 25.601562h25.597656c-14.136718 0-25.597656-11.464843-25.597656-25.601562zm0 0" fill="#fff"/><path d="m247.792969 8.335938c-.617188 0-1.214844.128906-1.828125.164062-.851563 0-1.621094-.128906-2.441406-.164062-43.75 1.777343-92.3125 26.011718-124.765626 51.03125l.71875 1.507812c.695313 1.417969 1.414063 2.773438 2.167969 4.070312.316407.546876.628907 1.078126.953125 1.597657.761719 1.210937 1.554688 2.363281 2.382813 3.472656.402343.539063.792969 1.085937 1.210937 1.605469.316406.382812.664063.734375.988282 1.109375l.964843.433593c34.425781-32.65625 88.664063-62.191406 139.351563-64.648437-3.703125-.230469-7.425782-.347656-11.171875-.347656-2.902344 0-5.714844.082031-8.53125.167969zm0 0" fill="#fff"/><path d="m426.992188 511.632812h-341.332032c-18.851562 0-34.136718-15.28125-34.136718-34.132812s15.285156-34.132812 34.136718-34.132812h341.332032c18.851562 0 34.132812 15.28125 34.132812 34.132812s-15.28125 34.132812-34.132812 34.132812zm-341.332032-51.199218c-9.425781 0-17.070312 7.640625-17.070312 17.066406s7.644531 17.066406 17.070312 17.066406h341.332032c9.425781 0 17.066406-7.640625 17.066406-17.066406s-7.640625-17.066406-17.066406-17.066406zm0 0" fill="#428dff"/><path d="m418.457031 460.433594h-324.265625c-4.710937 0-8.53125-3.820313-8.53125-8.535156v-42.664063c0-4.714844 3.820313-8.535156 8.53125-8.535156h324.265625c4.714844 0 8.535157 3.820312 8.535157 8.535156v42.664063c0 4.714843-3.820313 8.535156-8.535157 8.535156zm-315.730469-17.066406h307.199219v-25.601563h-307.199219zm0 0" fill="#428dff"/><path d="m418.457031 417.765625h-324.265625c-18.851562 0-34.132812-15.28125-34.132812-34.132813 0-18.851562 15.28125-34.132812 34.132812-34.132812h324.265625c18.851563 0 34.132813 15.28125 34.132813 34.132812 0 18.851563-15.28125 34.132813-34.132813 34.132813zm-324.265625-51.199219c-9.425781 0-17.066406 7.640625-17.066406 17.066406 0 9.425782 7.640625 17.066407 17.066406 17.066407h324.265625c9.425781 0 17.066407-7.640625 17.066407-17.066407 0-9.425781-7.640626-17.066406-17.066407-17.066406zm0 0" fill="#428dff"/><path d="m60.058594 212.964844c.023437 35.648437 9.738281 70.617187 28.101562 101.171875 8.347656 13.746093 18.292969 26.453125 29.636719 37.855469l-12.050781 12.082031c-12.324219-12.382813-23.136719-26.1875-32.203125-41.121094-19.96875-33.214844-30.527344-71.234375-30.550781-109.988281zm0 0" fill="#fff"/><g fill="#428dff"><path d="m55.9375 255.324219c4.5-.957031 7.484375-5.242188 6.824219-9.792969-1.75-10.769531-2.652344-21.65625-2.703125-32.566406h-17.066406c.0625 11.855468 1.054687 23.683594 2.976562 35.378906.339844 2.277344 1.601562 4.3125 3.484375 5.632812 1.886719 1.320313 4.230469 1.808594 6.484375 1.347657zm0 0"/><path d="m105.746094 364.074219 12.050781-12.082031c-11.34375-11.402344-21.289063-24.109376-29.636719-37.855469l-4.089844-7.082031c-2.261718-4.015626-7.28125-5.550782-11.398437-3.480469-2.042969 1.054687-3.574219 2.890625-4.246094 5.089843-.671875 2.199219-.425781 4.574219.679688 6.589844l4.4375 7.679688c9.066406 14.941406 19.878906 28.75 32.203125 41.140625zm0 0"/><path d="m70.871094 277.179688c-.753906-2.066407-2.261719-3.769532-4.226563-4.761719l-1.464843-.570313c-.554688-.167968-1.128907-.261718-1.707032-.28125-.535156-.078125-1.078125-.078125-1.613281 0-.574219.066406-1.144531.175782-1.707031.324219-3.316406 1.125-5.617188 4.148437-5.828125 7.644531-.207031 3.496094 1.722656 6.773438 4.882812 8.285156 1.039063.449219 2.160157.683594 3.292969.691407 1.117188.042969 2.230469-.144531 3.277344-.546875 4.324218-1.636719 6.582031-6.398438 5.117187-10.785156zm0 0"/><path d="m51.523438 221.5c-4.710938 0-8.53125-3.820312-8.53125-8.535156-.121094-33.542969 7.808593-66.628906 23.125-96.476563 1.390624-2.714843 4.121093-4.480469 7.167968-4.632812 3.042969-.152344 5.9375 1.332031 7.59375 3.894531 1.65625 2.558594 1.816406 5.808594.425782 8.519531-14.074219 27.441407-21.363282 57.859375-21.246094 88.695313 0 4.714844-3.820313 8.535156-8.535156 8.535156zm0 0"/><path d="m400.878906 366.566406h-289.109375c-4.710937 0-8.53125-3.820312-8.53125-8.535156 0-4.710938 3.820313-8.53125 8.53125-8.53125h285.535157c74.511718-77.253906 73.148437-200.039062-3.066407-275.617188-76.214843-75.574218-199.007812-75.910156-275.632812-.753906-2.144531 2.285156-5.363281 3.207032-8.390625 2.410156-3.03125-.796874-5.378906-3.1875-6.117188-6.230468-.742187-3.042969.242188-6.246094 2.5625-8.347656 83.945313-81.425782 217.796875-80.089844 300.097656 3 82.300782 83.085937 82.367188 216.945312.148438 300.113281-1.601562 1.59375-3.769531 2.492187-6.027344 2.492187zm0 0"/><path d="m408.722656 144.699219c-3.21875.003906-6.167968-1.804688-7.621094-4.675781-27.445312-54.773438-83.511718-89.3125-144.777343-89.191407-4.710938 0-8.53125-3.820312-8.53125-8.53125 0-4.714843 3.820312-8.535156 8.53125-8.535156 67.703125-.140625 129.664062 38.019531 160 98.542969 1.339843 2.644531 1.210937 5.792968-.335938 8.320312-1.550781 2.527344-4.300781 4.066406-7.265625 4.070313zm0 0"/><path d="m89.753906 178.832031c-4.054687 0-7.550781-2.851562-8.363281-6.824219-11.210937-56.089843-18.148437-63.027343-74.238281-74.242187-3.976563-.808594-6.835938-4.304687-6.835938-8.363281s2.859375-7.554688 6.835938-8.359375c56.089844-11.214844 63.027344-18.152344 74.238281-74.207031.808594-3.976563 4.304687-6.835938 8.363281-6.835938s7.554688 2.859375 8.363282 6.835938c11.210937 56.054687 18.148437 62.992187 74.238281 74.238281 3.980469.808593 6.835937 4.304687 6.835937 8.363281s-2.855468 7.554688-6.835937 8.363281c-56.054688 11.210938-62.992188 18.148438-74.238281 74.238281-.824219 3.960938-4.316407 6.796876-8.363282 6.792969zm-45.804687-89.429687c22.519531 5.703125 40.105469 23.289062 45.804687 45.808594 5.703125-22.519532 23.285156-40.105469 45.808594-45.808594-22.523438-5.699219-40.105469-23.285156-45.808594-45.804688-5.699218 22.519532-23.285156 40.105469-45.804687 45.804688zm0 0"/><path d="m132.589844 255.632812c-4.054688 0-7.550782-2.851562-8.359375-6.828124-6.214844-31.015626-9.226563-34.027344-40.246094-40.242188-3.976563-.808594-6.832031-4.304688-6.832031-8.363281 0-4.058594 2.855468-7.554688 6.832031-8.363281 31.019531-6.210938 34.03125-9.222657 40.246094-40.242188.804687-3.976562 4.304687-6.835938 8.359375-6.835938 4.058594 0 7.558594 2.859376 8.363281 6.835938 6.214844 31.019531 9.226563 34.03125 40.246094 40.242188 3.976562.808593 6.832031 4.304687 6.832031 8.363281 0 4.058593-2.855469 7.554687-6.832031 8.363281-31.019531 6.214844-34.03125 9.226562-40.246094 40.242188-.808594 3.976562-4.304687 6.828124-8.363281 6.828124zm-17.066406-55.464843c7.503906 3.523437 13.542968 9.5625 17.066406 17.066406 3.527344-7.503906 9.566406-13.542969 17.070312-17.066406-7.503906-3.527344-13.542968-9.566407-17.070312-17.066407-3.523438 7.5-9.5625 13.539063-17.066406 17.066407zm0 0"/><path d="m404.105469 254.003906c-1.636719-.003906-3.242188-.476562-4.617188-1.367187l-24.019531-15.453125-26.34375 11.015625c-2.996094 1.253906-6.445312.699219-8.894531-1.433594-2.449219-2.128906-3.476563-5.46875-2.652344-8.609375l7.28125-27.613281-18.621094-21.648438c-2.117187-2.460937-2.660156-5.910156-1.390625-8.902343 1.269532-2.988282 4.121094-5 7.363282-5.1875l28.503906-1.605469 14.839844-24.402344c1.6875-2.777344 4.804687-4.355469 8.042968-4.070313 3.234375.285157 6.03125 2.386719 7.203125 5.417969l10.34375 26.613281 27.785157 6.574219c3.15625.75 5.617187 3.230469 6.339843 6.394531.726563 3.167969-.410156 6.46875-2.925781 8.519532l-22.078125 18.058594 2.339844 28.464843c.195312 2.382813-.617188 4.738281-2.238281 6.492188-1.621094 1.753906-3.90625 2.75-6.296876 2.742187zm-27.785157-34.988281c1.636719 0 3.238282.472656 4.617188 1.359375l13.242188 8.53125-1.320313-15.675781c-.230469-2.796875.929687-5.527344 3.105469-7.304688l12.203125-9.964843-15.308594-3.621094c-2.726563-.648438-4.960937-2.597656-5.972656-5.210938l-5.710938-14.6875-8.183593 13.457032c-1.460938 2.40625-4.015626 3.933593-6.824219 4.085937l-15.730469.855469 10.242188 11.945312c1.824218 2.128906 2.488281 5.019532 1.773437 7.730469l-4.007813 15.234375 14.503907-6.066406c1.070312-.441406 2.214843-.65625 3.371093-.632813zm0 0"/><path d="m255.472656 170.300781c-2.492187 0-4.863281-1.089843-6.484375-2.984375-1.621093-1.894531-2.332031-4.402344-1.949219-6.863281l3.679688-23.570313-17.332031-16.375c-2.359375-2.230468-3.25-5.609374-2.292969-8.714843.957031-3.101563 3.59375-5.394531 6.800781-5.910157l23.550781-3.789062 10.238282-21.546875c1.394531-2.933594 4.332031-4.824219 7.578125-4.875 3.261719-.089844 6.273437 1.722656 7.722656 4.644531l10.882813 21.222656 23.644531 3.070313c3.230469.410156 5.945312 2.628906 7 5.710937 1.050781 3.082032.253906 6.496094-2.050781 8.796876l-16.820313 16.894531 4.386719 23.449219c.574218 3.1875-.703125 6.421874-3.296875 8.355468s-6.058594 2.234375-8.949219.777344l-21.28125-10.753906-20.941406 11.417968c-1.253906.683594-2.660156 1.042969-4.085938 1.042969zm2.199219-50.347656 8.03125 7.585937c2.039063 1.933594 2.996094 4.742188 2.558594 7.519532l-1.707031 10.902344 9.695312-5.28125c2.46875-1.34375 5.4375-1.390626 7.945312-.117188l9.855469 4.992188-2.03125-10.863282c-.519531-2.761718.351563-5.601562 2.332031-7.597656l7.789063-7.824219-10.949219-1.414062c-2.785156-.363281-5.214844-2.074219-6.492187-4.574219l-5.042969-9.832031-4.726562 9.976562c-1.207032 2.539063-3.582032 4.324219-6.359376 4.769531zm0 0"/><path d="m290.066406 332.433594c-1.847656 0-3.644531-.597656-5.121094-1.707032l-26.71875-20.257812-31.835937 10.519531c-3.085937 1.019531-6.480469.199219-8.757813-2.117187-2.277343-2.3125-3.042968-5.71875-1.976562-8.785156l11.007812-31.660157-19.882812-27.058593c-1.925781-2.617188-2.195312-6.101563-.699219-8.988282 1.519531-2.863281 4.511719-4.636718 7.753907-4.597656l33.511718.683594 19.566406-27.222656c1.898438-2.636719 5.125-3.96875 8.328126-3.4375 3.203124.535156 5.828124 2.839843 6.769531 5.945312l9.710937 32.09375 31.9375 10.191406c3.097656.984375 5.363282 3.644532 5.847656 6.859375.484376 3.214844-.898437 6.421875-3.566406 8.277344l-27.511718 19.148437.167968 33.527344c.011719 2.269532-.882812 4.453125-2.484375 6.0625-1.601562 1.609375-3.777343 2.515625-6.046875 2.515625zm-30.328125-40.03125c1.847657 0 3.644531.601562 5.121094 1.707031l16.511719 12.519531-.101563-20.71875c-.019531-2.808594 1.347657-5.445312 3.652344-7.050781l17.015625-11.84375-19.679688-6.261719c-2.675781-.855468-4.757812-2.96875-5.570312-5.660156l-5.976562-19.839844-12.089844 16.828125c-1.660156 2.261719-4.304688 3.582031-7.109375 3.558594l-20.71875-.425781 12.269531 16.707031c1.664062 2.265625 2.109375 5.199219 1.1875 7.851563l-6.828125 19.574218 19.679687-6.507812c.851563-.285156 1.742188-.433594 2.636719-.4375zm0 0"/></g></svg>