<?xml version="1.0" encoding="iso-8859-1"?>
<!-- Generator: Adobe Illustrator 19.0.0, SVG Export Plug-In . SVG Version: 6.00 Build 0)  -->
<svg version="1.1" id="Capa_1" xmlns="http://www.w3.org/2000/svg" xmlns:xlink="http://www.w3.org/1999/xlink" x="0px" y="0px"
	 viewBox="0 0 511.991 511.991" style="enable-background:new 0 0 511.991 511.991;" xml:space="preserve">
<g>
	<g transform="translate(1 1)">
		<path style="fill:#B2CDF8;" d="M493.592,119.571c-0.746-0.636-1.546-1.208-2.389-1.707l-21.504-13.056l-14.592-8.874
			l-73.728-44.885l-14.507-8.874l-35.584-21.675c-9.359-5.697-20.105-8.708-31.061-8.704h-87.893c-2.645,0-5.291,0-7.851,0.085
			c-66.409,0.953-132.49,9.514-196.949,25.515v103.168c19.851,21.219,31.157,49.028,31.744,78.08
			c0.326,5.826,0.355,11.665,0.085,17.493c-0.427,8.107-1.28,15.531-2.219,21.675c-1.051,6.475,0.651,13.095,4.693,18.261
			c2.722,3.485,6.312,6.192,10.411,7.851l0.171,0.084c6.085,2.54,12.946,2.471,18.979-0.19c6.033-2.661,10.709-7.682,12.936-13.889
			c3.072-9.302,6.059-18.091,9.045-26.369c1.963-5.546,4.011-10.922,5.973-16.127c35.925-93.44,66.475-113.75,100.949-117.504
			c6.315,2.731,40.704,1.109,48.811-4.267h53.76c3.686-0.001,7.348,0.604,10.837,1.792l17.493,5.803l16.384,5.461l82.432,27.477
			l16.299,5.461l25.344,8.448c9.56,3.139,20.058-0.155,26.112-8.193v-0.085C505.377,141.725,503.52,127.4,493.592,119.571z"/>
		<path style="fill:#E7EBF4;" d="M469.699,104.808l-14.592-8.874l-73.728-44.885l-14.507-8.874l-35.584-21.675
			c-9.359-5.697-20.105-8.708-31.061-8.704h-87.893c-2.645,0-5.291,0-7.851,0.085c-66.409,0.953-132.49,9.514-196.949,25.515
			v103.168c19.851,21.219,31.157,49.028,31.744,78.08c0.326,5.826,0.355,11.665,0.085,17.493c-0.427,8.107-1.28,15.531-2.219,21.675
			c-1.051,6.475,0.651,13.095,4.693,18.261c9.019-1.294,16.561-7.518,19.541-16.128c3.157-9.643,6.229-18.773,9.387-27.307
			c1.963-5.717,4.096-11.263,6.144-16.726c37.205-96.597,68.779-117.674,104.448-121.515c6.485,2.817,42.069,1.11,50.517-4.437
			H280.6c3.834-0.015,7.642,0.62,11.264,1.878l18.091,5.973l16.896,5.717l85.333,28.416l16.811,5.632l26.283,8.704
			c10.401,3.248,21.708-0.607,27.959-9.533C491.503,125.156,478.676,111.597,469.699,104.808z"/>
		<path style="fill:#F0F7FF;" d="M109.933,97.129c0.014,15.564-10.524,29.157-25.6,33.024c-2.78,0.762-5.651,1.135-8.533,1.109
			H7.533V62.995H75.8c2.882-0.026,5.754,0.347,8.533,1.109c5.892,1.541,11.277,4.601,15.616,8.874
			C106.329,79.399,109.917,88.078,109.933,97.129z"/>
		<path style="fill:#B2CDF8;" d="M434.2,301.929c0.048,43.703-18.583,85.343-51.2,114.431
			c-10.294,9.198-21.774,16.976-34.133,23.126c-10.832,5.438-22.297,9.509-34.133,12.117c-5.622,1.347-11.322,2.345-17.067,2.987
			c-5.668,0.615-11.365,0.928-17.067,0.939c-4.274,0.018-8.546-0.182-12.8-0.598c-1.451-0.085-2.816-0.171-4.267-0.341
			c-5.745-0.642-11.445-1.639-17.067-2.987c-11.836-2.609-23.302-6.679-34.133-12.117c-5.913-2.897-11.616-6.204-17.067-9.899
			c-54.292-36.269-79.717-102.902-63.384-166.119S202.734,154.273,267.8,148.842c4.181-0.342,8.448-0.513,12.8-0.513
			C365.428,148.336,434.193,217.101,434.2,301.929z"/>
		<path style="fill:#E7EBF4;" d="M408.6,301.929c0.048,43.703-18.583,85.343-51.2,114.431
			c-10.294,9.198-21.774,16.976-34.133,23.126c-10.832,5.438-22.297,9.509-34.133,12.117c-5.622,1.347-11.322,2.345-17.067,2.987
			c-1.451,0.17-2.816,0.255-4.267,0.341c-1.451-0.085-2.816-0.171-4.267-0.341c-5.745-0.642-11.445-1.639-17.067-2.987
			c-11.836-2.609-23.302-6.679-34.133-12.117c-5.913-2.897-11.616-6.204-17.067-9.899c-54.292-36.269-79.717-102.902-63.384-166.119
			S202.734,154.273,267.8,148.842C347.389,155.519,408.589,222.06,408.6,301.929z"/>
		<path style="fill:#F0F7FF;" d="M272.067,62.995c0,28.277-22.923,51.2-51.2,51.2s-51.2-22.923-51.2-51.2s22.923-51.2,51.2-51.2
			c13.591-0.039,26.636,5.343,36.247,14.953C266.724,36.359,272.106,49.404,272.067,62.995z"/>
		<g>
			<circle style="fill:#E7EBF4;" cx="220.867" cy="62.995" r="17.067"/>
			<path style="fill:#E7EBF4;" d="M425.667,481.129v17.067H135.533l0-17.067c-0.009-6.792,2.685-13.309,7.488-18.112
				s11.32-7.497,18.112-7.488h238.933c6.792-0.009,13.309,2.685,18.112,7.488C422.982,467.82,425.676,474.336,425.667,481.129z"/>
		</g>
		<path style="fill:#F0F7FF;" d="M400.067,481.129v17.067H135.533l0-17.067c-0.009-6.792,2.685-13.309,7.488-18.112
			s11.32-7.497,18.112-7.488h213.333c6.792-0.009,13.309,2.685,18.112,7.488C397.382,467.82,400.076,474.336,400.067,481.129z"/>
		<path style="fill:#FFFFFF;" d="M39.363,236.137c-0.427,8.107-1.28,15.531-2.219,21.675c-1.051,6.475,0.651,13.095,4.693,18.261
			c2.722,3.485,6.312,6.192,10.411,7.851l0.171,0.084c7.277,2.9,15.498,2.179,22.159-1.943c-2.736-1.53-5.159-3.563-7.141-5.992
			c-4.043-5.166-5.744-11.786-4.693-18.261c0.939-6.144,1.792-13.568,2.219-21.674c0.269-5.829,0.241-11.668-0.085-17.494
			c-0.587-29.052-11.893-56.861-31.744-78.08V37.395c64.459-16.001,130.54-24.562,196.949-25.515
			c2.56-0.085,5.205-0.085,7.851-0.085h-25.6c-2.645,0-5.291,0-7.851,0.085c-66.409,0.953-132.49,9.514-196.949,25.515v103.168
			c19.851,21.219,31.157,49.028,31.744,78.08C39.604,224.469,39.632,230.308,39.363,236.137z"/>
	</g>
	<g>
		<path style="fill:#FFFFFF;" d="M136.533,302.929c-0.106,52.322,28.022,100.631,73.577,126.366
			c45.555,25.735,101.45,24.893,146.209-2.203c44.156-26.59,70.875-74.624,70.178-126.164
			c-0.696-51.539-28.703-98.834-73.561-124.221c-60.979-34.402-137.825-20.38-182.724,33.342
			C148.628,236.208,136.732,269.014,136.533,302.929h-17.067c0.007-78.295,56.001-145.384,133.033-159.392
			c56.68-10.333,114.584,10.206,152.083,53.946s48.953,104.102,30.083,158.538c-12.36,35.861-36.984,66.206-69.532,85.684
			c-49.409,29.583-110.763,30.891-161.387,3.441c-51.794-28.626-84.041-83.04-84.28-142.218H136.533z"/>
		<g>
			<path style="fill:#51A1FF;" d="M379.823,431.612c0.732-0.42,1.397-0.948,1.972-1.566c24.407-19.047,42.771-44.759,52.871-74.025
				c25.602-73.938-5.276-155.61-73.389-194.117s-154.013-22.853-204.165,37.206c-24.144,29.23-37.443,65.907-37.645,103.819
				c0.347,5.988,0.456,12.001,1.047,17.968c1.024,5.912,1.511,11.934,3.024,17.749c0.492,2.26,1.887,4.221,3.86,5.428
				c1.973,1.207,4.354,1.555,6.59,0.963c4.427-1.202,7.147-5.65,6.2-10.139c-1.373-5.194-1.757-10.592-2.711-15.874
				c-0.522-5.343-0.597-10.732-0.944-16.095c0.007-70.045,50.1-130.065,119.014-142.599c50.711-9.25,102.52,9.123,136.073,48.256
				s43.802,93.14,26.92,141.844c-7.109,20.751-18.932,39.571-34.541,54.982v-85.417c0-4.713-3.821-8.533-8.533-8.533
				c-4.713,0-8.533,3.82-8.533,8.533v100.077c-3.434,2.495-6.972,4.834-10.613,7.019c-2.099,1.267-4.293,2.363-6.453,3.519v-85.015
				c0-4.713-3.821-8.533-8.533-8.533s-8.533,3.821-8.533,8.533v92.894c-5.578,2.088-11.277,3.836-17.067,5.233v-72.527
				c0-4.713-3.82-8.533-8.533-8.533s-8.533,3.821-8.533,8.533v75.7c-5.666,0.634-11.365,0.924-17.067,0.87v-85.104
				c0-4.713-3.82-8.533-8.533-8.533s-8.533,3.82-8.533,8.533v84.015c-1.689-0.198-3.39-0.305-5.069-0.554
				c-4.031-0.614-8.032-1.413-11.997-2.362V337.062c0-4.713-3.821-8.533-8.533-8.533c-4.713,0-8.533,3.821-8.533,8.533v101.371
				c-5.846-2.156-11.547-4.687-17.067-7.578v-59.659c0-4.713-3.821-8.533-8.533-8.533c-4.713,0-8.533,3.821-8.533,8.533v48.812
				c-8.531-6.236-16.37-13.366-23.384-21.27c-1.876-1.925-3.608-3.985-5.182-6.164c-2.911-3.553-8.082-4.232-11.812-1.551
				c-1.867,1.36-3.094,3.426-3.394,5.716s0.351,4.603,1.803,6.399c1.769,2.426,3.702,4.727,5.786,6.888
				c12.408,14.15,27.182,26.034,43.663,35.12c1.905,1.034,3.897,1.893,5.841,2.849h-47.454
				c-18.844,0.019-34.115,15.29-34.133,34.133v17.067c-0.001,2.264,0.897,4.435,2.498,6.035c1.601,1.601,3.772,2.499,6.035,2.498
				h290.133c2.264,0.001,4.435-0.897,6.035-2.498c1.601-1.601,2.499-3.772,2.498-6.035v-17.067
				c-0.019-18.844-15.29-34.115-34.133-34.133H353.6c3.922-1.952,7.783-4.027,11.534-6.29
				C370.214,438.618,375.118,435.248,379.823,431.612z M418.133,482.129v8.533H145.067v-8.533
				c0.012-9.421,7.646-17.054,17.067-17.067h238.933C410.487,465.074,418.121,472.708,418.133,482.129z"/>
			<path style="fill:#51A1FF;" d="M140.329,377.204c1.059,0.339,2.178,0.454,3.284,0.336c1.118-0.1,2.205-0.424,3.194-0.954
				c1.949-1.14,3.447-2.915,4.242-5.029c0.767-2.058,0.661-4.34-0.292-6.318c-0.953-1.978-2.672-3.483-4.76-4.165l-1.59-0.397
				c-0.551-0.11-1.115-0.148-1.676-0.111c-0.534-0.04-1.07,0-1.592,0.118c-0.555,0.125-1.101,0.289-1.634,0.489
				c-3.342,1.193-5.42,4.532-5.013,8.057C134.76,372.782,137.023,375.874,140.329,377.204z"/>
			<path style="fill:#51A1FF;" d="M173.017,252.287c-4.404-1.676-9.334,0.532-11.017,4.933c-1.142,2.992-2.175,6.042-3.1,9.15
				c-0.866,2.924-0.107,6.087,1.992,8.3c2.099,2.212,5.218,3.137,8.183,2.425s5.325-2.951,6.192-5.875
				c0.792-2.683,1.686-5.322,2.683-7.917C179.628,258.899,177.42,253.968,173.017,252.287z"/>
			<path style="fill:#51A1FF;" d="M196.617,231.62c21.064-25.139,52.186-39.65,84.983-39.625c4.713,0,8.533-3.821,8.533-8.533
				c0-4.713-3.821-8.533-8.533-8.533c-37.838-0.031-73.745,16.708-98.05,45.708c-3.025,3.609-2.556,8.986,1.049,12.016
				C188.204,235.683,193.582,235.221,196.617,231.62L196.617,231.62z"/>
			<path style="fill:#51A1FF;" d="M0,63.995v77.567c0.041,0.273,0.095,0.545,0.164,0.813c0.043,0.825,0.207,1.638,0.487,2.415
				c0.368,0.828,0.867,1.591,1.477,2.26c0.134,0.156,0.183,0.354,0.33,0.504c33.417,33.892,31.417,83.425,27.258,109.9
				c-2.238,14.921,5.982,29.445,19.925,35.209c0.192,0.1,0.392,0.183,0.592,0.267c8.558,3.428,18.151,3.175,26.517-0.7
				c7.926-3.607,13.979-10.367,16.692-18.642c43.733-133.38,76.827-150.183,106.878-153.945c17.127,6.726,36.411,5.081,52.152-4.448
				h51.403c2.767,0.001,5.515,0.457,8.133,1.35l157.975,52.658c13.03,4.309,27.356-0.178,35.6-11.15
				c0.209-0.275,0.398-0.565,0.567-0.867c5.101-7.216,6.974-16.226,5.171-24.877c-1.803-8.651-7.12-16.163-14.679-20.74
				L336.725,14.203c-10.698-6.506-22.979-9.945-35.5-9.941h-87.892c-2.733,0-5.475,0-7.942,0.083
				C138.259,5.386,71.462,14.047,6.283,30.162C2.573,31.177,0,34.549,0,38.395V63.995z M68.267,72.529v51.2H51.2v-51.2H68.267z
				 M102.4,98.129c-0.033,10.813-6.868,20.435-17.067,24.027V74.102C95.532,77.694,102.367,87.316,102.4,98.129z M34.133,123.729
				H17.067v-51.2h17.067V123.729z M69.55,276.762c-3.822,1.8-8.193,2.045-12.192,0.683c-0.309-0.174-0.629-0.328-0.958-0.458
				c-6.798-2.645-10.872-9.631-9.825-16.85c1.23-7.914,1.998-15.893,2.298-23.896c12.723-3.289,26.245-0.963,37.139,6.386
				c-2.899,8.097-5.825,16.607-8.788,25.643C75.967,272.05,73.183,275.13,69.55,276.762z M179.2,63.995
				c0-23.564,19.103-42.667,42.667-42.667s42.667,19.103,42.667,42.667s-19.103,42.667-42.667,42.667
				C198.314,106.634,179.228,87.548,179.2,63.995z M452.296,104.558l-17.494,34.935l-82.385-27.462l26.202-52.333L452.296,104.558z
				 M494.658,135.987c0.814,4.113-0.172,8.378-2.708,11.717c-0.142,0.192-0.283,0.392-0.408,0.6
				c-3.915,4.746-10.334,6.613-16.183,4.708l-24.191-8.064l15.764-31.479l20.86,12.701
				C491.381,128.308,493.881,131.882,494.658,135.987z M301.225,21.329c9.392-0.007,18.604,2.573,26.625,7.458l36.139,22.004
				l-27.931,55.787l-18.6-6.2c-4.373-1.492-8.963-2.252-13.584-2.25h-33.06c16.767-23.904,13.705-56.443-7.226-76.8L301.225,21.329z
				 M179.278,22.189c-11.158,11.315-17.329,26.62-17.14,42.51c0.189,15.89,6.723,31.044,18.146,42.09
				c-30.472,10.457-57.938,40.404-88.263,119.61c-13.025-7.712-28.409-10.426-43.287-7.637
				c-0.848-28.541-11.203-55.981-29.422-77.967H76.8c23.564,0,42.667-19.103,42.667-42.667S100.364,55.462,76.8,55.462H17.067
				V45.029C70.32,32.444,124.62,24.798,179.278,22.189z"/>
			<path style="fill:#51A1FF;" d="M221.867,38.395c-14.139,0-25.6,11.462-25.6,25.6s11.462,25.6,25.6,25.6
				c14.138,0,25.6-11.462,25.6-25.6C247.451,49.863,235.999,38.411,221.867,38.395z M221.867,72.529
				c-4.713,0-8.533-3.821-8.533-8.533s3.821-8.533,8.533-8.533c4.713,0,8.533,3.821,8.533,8.533
				C230.397,68.707,226.578,72.526,221.867,72.529z"/>
			<path style="fill:#51A1FF;" d="M74.325,177.403c-2.044-1.954-4.9-2.812-7.683-2.308c-0.563,0.083-1.109,0.258-1.617,0.517
				c-0.546,0.184-1.065,0.442-1.542,0.767c-0.445,0.316-0.871,0.658-1.276,1.025c-1.561,1.634-2.445,3.799-2.475,6.059
				c-0.031,1.119,0.203,2.23,0.683,3.242c0.434,1.034,1.04,1.986,1.792,2.817c0.829,0.754,1.782,1.36,2.817,1.792
				c1.013,0.476,2.122,0.71,3.241,0.683c2.855,0.03,5.532-1.385,7.115-3.761s1.86-5.39,0.735-8.014
				C75.685,179.186,75.079,178.233,74.325,177.403z"/>
			<path style="fill:#51A1FF;" d="M312.492,71.845c2.065,0.911,4.418,0.911,6.483,0c1.034-0.433,1.986-1.039,2.817-1.791
				c2.444-2.441,3.154-6.125,1.792-9.3c-0.412-1.045-1.02-2.002-1.792-2.817c-0.831-0.752-1.783-1.358-2.817-1.792
				c-3.177-1.342-6.85-0.634-9.301,1.792c-0.772,0.816-1.38,1.772-1.792,2.817c-1.362,3.175-0.652,6.859,1.792,9.301
				C310.504,70.808,311.457,71.414,312.492,71.845z"/>
			<path style="fill:#51A1FF;" d="M386.475,104.187c0.829,0.754,1.782,1.36,2.817,1.792c2.065,0.911,4.418,0.911,6.483,0
				c1.034-0.434,1.986-1.04,2.817-1.792c1.603-1.607,2.494-3.789,2.475-6.059c-0.033-2.259-0.917-4.422-2.475-6.059
				c-0.419-0.387-0.877-0.731-1.367-1.025c-0.434-0.339-0.925-0.599-1.45-0.767c-0.51-0.259-1.059-0.433-1.625-0.517
				c-1.633-0.343-3.334-0.162-4.858,0.517c-2.143,0.777-3.831,2.465-4.608,4.608C383.321,98.061,384.031,101.746,386.475,104.187z"
				/>
			<path style="fill:#51A1FF;" d="M164.158,351.112c1.463,1.727,3.552,2.802,5.807,2.988c2.255,0.186,4.492-0.532,6.218-1.996
				l63.3-53.625l39.608,39.608c6.67,6.65,17.463,6.65,24.133,0l73.267-73.267v13.533c0,4.713,3.82,8.533,8.533,8.533
				s8.533-3.82,8.533-8.533V244.22c-0.016-4.706-3.827-8.517-8.533-8.533h-34.133c-4.713,0-8.533,3.82-8.533,8.533
				c0,4.713,3.82,8.533,8.533,8.533h13.533l-73.267,73.267l-39.608-39.608c-6.296-6.238-16.308-6.654-23.1-0.958l-63.3,53.633
				c-1.726,1.463-2.801,3.552-2.987,5.807C161.977,347.149,162.695,349.386,164.158,351.112z"/>
		</g>
	</g>
</g>
<g>
</g>
<g>
</g>
<g>
</g>
<g>
</g>
<g>
</g>
<g>
</g>
<g>
</g>
<g>
</g>
<g>
</g>
<g>
</g>
<g>
</g>
<g>
</g>
<g>
</g>
<g>
</g>
<g>
</g>
</svg>
