<?xml version="1.0" encoding="iso-8859-1"?>
<!-- Generator: Adobe Illustrator 19.0.0, SVG Export Plug-In . SVG Version: 6.00 Build 0)  -->
<svg version="1.1" id="Capa_1" xmlns="http://www.w3.org/2000/svg" xmlns:xlink="http://www.w3.org/1999/xlink" x="0px" y="0px"
	 viewBox="0 0 511.892 511.892" style="enable-background:new 0 0 511.892 511.892;" xml:space="preserve">
<g>
	<g transform="translate(1 1)">
		
			<linearGradient id="SVGID_1_" gradientUnits="userSpaceOnUse" x1="-49.7582" y1="651.6147" x2="-48.9651" y2="650.6813" gradientTransform="matrix(338.7285 0 0 -498.5263 16975.168 324851.875)">
			<stop  offset="0" style="stop-color:#D4E1F4"/>
			<stop  offset="0.1717" style="stop-color:#D4E1F4"/>
			<stop  offset="0.2" style="stop-color:#D4E1F4"/>
			<stop  offset="0.2001" style="stop-color:#DAE4F4"/>
			<stop  offset="0.2007" style="stop-color:#EBEBF4"/>
			<stop  offset="0.2014" style="stop-color:#F6F1F4"/>
			<stop  offset="0.2023" style="stop-color:#FDF4F4"/>
			<stop  offset="0.205" style="stop-color:#FFF5F4"/>
			<stop  offset="0.2522" style="stop-color:#FFF5F4"/>
			<stop  offset="0.26" style="stop-color:#FFF5F4"/>
			<stop  offset="0.26" style="stop-color:#D4E1F4"/>
			<stop  offset="0.3974" style="stop-color:#D4E1F4"/>
			<stop  offset="0.42" style="stop-color:#D4E1F4"/>
			<stop  offset="0.4201" style="stop-color:#DAE4F4"/>
			<stop  offset="0.4207" style="stop-color:#EBEBF4"/>
			<stop  offset="0.4214" style="stop-color:#F6F1F4"/>
			<stop  offset="0.4223" style="stop-color:#FDF4F4"/>
			<stop  offset="0.425" style="stop-color:#FFF5F4"/>
			<stop  offset="0.4894" style="stop-color:#FFF5F4"/>
			<stop  offset="0.5" style="stop-color:#FFF5F4"/>
			<stop  offset="0.5" style="stop-color:#F9F2F4"/>
			<stop  offset="0.5001" style="stop-color:#E8EBF4"/>
			<stop  offset="0.5003" style="stop-color:#DDE5F4"/>
			<stop  offset="0.5005" style="stop-color:#D6E2F4"/>
			<stop  offset="0.501" style="stop-color:#D4E1F4"/>
			<stop  offset="0.7062" style="stop-color:#D4E1F4"/>
			<stop  offset="0.74" style="stop-color:#D4E1F4"/>
			<stop  offset="0.741" style="stop-color:#FFF5F4"/>
			<stop  offset="0.8346" style="stop-color:#FFF5F4"/>
			<stop  offset="0.85" style="stop-color:#FFF5F4"/>
			<stop  offset="0.851" style="stop-color:#D4E1F4"/>
		</linearGradient>
		<polygon style="fill:url(#SVGID_1_);" points="281.651,99.473 282.729,98.799 282.729,62.69 282.729,62.622 261.71,50.496 
			229.313,69.191 119.293,5.629 85.609,25.031 85.609,266.412 209.23,337.755 135.597,379.726 151.361,403.911 228.093,360.256 
			228.093,424.054 249.112,436.248 276.397,420.483 324.969,504.155 340.733,498.159 374.35,478.757 334.603,410.243 
			334.603,410.176 390.721,442.58 424.338,423.111 424.338,181.797 		"/>
		<polygon style="fill:#A4C2F7;" points="424.338,181.797 424.338,423.111 390.721,442.58 390.721,201.199 		"/>
		<g>
			<polygon style="fill:#D4E1F4;" points="424.338,181.797 390.721,201.199 85.609,25.031 119.293,5.629 229.373,69.225 
				281.651,99.473 			"/>
			<polygon style="fill:#D4E1F4;" points="249.18,82.025 249.18,118.201 228.093,106.142 228.093,69.898 249.112,82.025 			"/>
		</g>
		<polygon style="fill:#E3E7F2;" points="282.729,62.69 282.729,98.799 281.651,99.473 249.18,118.201 249.18,82.025 		"/>
		<g>
			<polygon style="fill:#D4E1F4;" points="249.112,373.326 249.112,436.248 228.093,424.054 228.093,360.256 238.131,354.462 
				238.199,354.462 238.266,354.53 			"/>
			<polygon style="fill:#D4E1F4;" points="238.131,354.462 228.093,360.256 151.361,403.911 135.597,379.726 209.23,337.755 			"/>
			<polygon style="fill:#D4E1F4;" points="340.733,498.159 324.969,504.155 276.397,420.483 276.397,420.416 270.064,409.435 
				249.112,373.326 238.266,354.53 267.1,371.17 267.167,371.305 			"/>
		</g>
		<polygon style="fill:#A4C2F7;" points="282.729,62.622 282.729,62.69 249.18,82.025 249.112,82.025 228.093,69.898 261.71,50.496 
					"/>
		<g>
			<polygon style="fill:#E3E7F2;" points="374.35,478.757 340.733,498.159 267.167,371.305 334.603,410.176 334.603,410.243 			"/>
			<polygon style="fill:#E3E7F2;" points="276.397,420.416 276.397,420.483 249.112,436.248 249.112,373.326 270.064,409.435 			"/>
		</g>
		<g>
			<path style="fill:#A4C2F7;" d="M175.788,137.063l-31.48-54.29c-1.857-3.201-5.949-4.305-9.164-2.474l-31.484,17.934
				c-2.092,1.192-3.389,3.409-3.403,5.816s1.258,4.639,3.336,5.855c2.078,1.216,4.647,1.231,6.739,0.039l5.668-3.229v30.538
				c0.037,0.274,0.092,0.546,0.164,0.813c0.043,0.463,0.135,0.919,0.275,1.362c0.318,0.787,0.745,1.527,1.268,2.196
				c0.311,0.339,0.658,0.645,1.033,0.911c0.197,0.198,0.407,0.383,0.628,0.554l31.484,18.178c0.16,0.092,0.335,0.128,0.499,0.206
				c0.183,0.087,0.364,0.158,0.556,0.229c0.736,0.29,1.517,0.449,2.307,0.467l0.004,0l0.002,0l0.012-0.003
				c0.791-0.018,1.573-0.176,2.31-0.466c0.182-0.067,0.354-0.131,0.528-0.213c0.702-0.313,1.345-0.746,1.899-1.28l0.065-0.085
				c0.394-0.396,0.738-0.84,1.022-1.322c0.071-0.123,0.067-0.261,0.13-0.386c0.338-0.83,0.57-1.699,0.692-2.587
				c0.009-0.138,0.08-0.255,0.08-0.395v-17.081l3.174,5.475c1.868,3.219,5.991,4.315,9.211,2.447
				C176.559,144.406,177.655,140.282,175.788,137.063L175.788,137.063z M147.482,143.762l-18.01-10.398V99.041l6.533-3.721
				l11.477,19.794V143.762z"/>
			<path style="fill:#A4C2F7;" d="M217.184,209.122c-0.62-11.04-6.467-21.123-15.742-27.144c-8.694-5.019-15.742-1.005-15.742,8.967
				c0.62,11.04,6.467,21.123,15.742,27.144C210.136,223.109,217.184,219.094,217.184,209.122z"/>
			<path style="fill:#A4C2F7;" d="M148.971,241.962c-0.62-11.04-6.467-21.123-15.742-27.144c-8.694-5.019-15.742-1.005-15.742,8.967
				c0.62,11.04,6.467,21.123,15.742,27.144C141.923,255.949,148.971,251.934,148.971,241.962z"/>
			<path style="fill:#A4C2F7;" d="M295.892,296.694c-0.62-11.04-6.467-21.123-15.742-27.144c-8.694-5.019-15.741-1.005-15.741,8.967
				c0.62,11.04,6.467,21.123,15.741,27.144C288.844,310.681,295.892,306.666,295.892,296.694z"/>
			<path style="fill:#A4C2F7;" d="M358.858,260.825c-0.62-11.04-6.467-21.123-15.742-27.144c-8.694-5.019-15.742-1.005-15.742,8.967
				c0.62,11.04,6.467,21.123,15.742,27.144C351.81,274.811,358.858,270.796,358.858,260.825z"/>
		</g>
	</g>
	<g transform="translate(2 1)">
		<polygon style="fill:#FFFFFF;" points="104.82,38.505 138.504,19.102 248.523,82.665 280.921,63.97 288.466,68.322 288.466,62.69 
			288.466,62.622 267.447,50.496 235.05,69.191 125.03,5.629 91.346,25.031 91.346,266.412 104.82,274.186 		"/>
		<polygon style="fill:#FFFFFF;" points="301.94,112.273 300.862,112.947 430.075,187.497 430.075,181.797 301.94,107.867 		"/>
		<polygon style="fill:#FFFFFF;" points="247.304,373.73 233.83,381.396 233.83,424.054 247.304,431.869 		"/>
		<polygon style="fill:#FFFFFF;" points="154.807,393.199 228.441,351.229 209.995,340.585 141.333,379.726 157.098,403.911 
			160.52,401.964 		"/>
	</g>
	<g>
		<polygon style="fill:#FFFFFF;" points="93.353,26.051 93.353,113.63 93.353,267.405 79.879,267.405 79.879,113.63 79.879,26.051 
					"/>
		<g>
			<path style="fill:#428DFF;" d="M79.882,267.406h0.109c-0.041,2.39,1.204,4.617,3.261,5.834l113.446,65.5l-63.44,36.139
				c-1.612,0.92-2.774,2.464-3.21,4.269c-0.436,1.804-0.109,3.709,0.904,5.264l15.78,24.197c1.946,2.986,5.88,3.94,8.977,2.178
				l66.628-37.956v52.246c-0.001,2.407,1.283,4.632,3.368,5.836l20.892,12.06c1.053,0.65,2.265,0.998,3.502,1.006
				c1.178,0.001,2.336-0.31,3.355-0.901l21.532-12.403l45.156,77.864c1.208,2.076,3.427,3.353,5.829,3.355
				c0.814,0.001,1.621-0.146,2.382-0.434l15.783-5.974c0.095-0.036,0.157-0.123,0.25-0.163c0.252-0.086,0.498-0.187,0.737-0.304
				l33.615-19.407l0.017-0.007c0.074-0.043,0.112-0.118,0.184-0.163c3.079-1.904,4.092-5.908,2.29-9.048
				c-0.02-0.035-0.056-0.053-0.077-0.087l-27.082-46.704l34.291,19.798l0.025,0.01c0.375,0.198,0.769,0.36,1.174,0.484
				c0.153,0.053,0.295,0.141,0.45,0.183c0.381,0.084,0.769,0.134,1.159,0.151c0.188,0.016,0.372,0.073,0.56,0.073l0.003,0l0.003,0
				c1.18,0.001,2.34-0.31,3.362-0.901l33.638-19.428c0.189-0.148,0.369-0.307,0.54-0.476c0.415-0.289,0.796-0.624,1.134-1
				c0.512-0.657,0.93-1.383,1.242-2.155c0.153-0.473,0.251-0.962,0.294-1.458c0.062-0.237,0.111-0.477,0.145-0.719V182.793
				c0-0.159-0.051-0.307-0.062-0.464c-0.019-0.255-0.053-0.509-0.101-0.76c-0.117-0.667-0.334-1.313-0.644-1.915
				c-0.041-0.078-0.037-0.165-0.081-0.242c-0.046-0.081-0.128-0.123-0.177-0.201c-0.363-0.562-0.808-1.067-1.32-1.498
				c-0.202-0.176-0.414-0.34-0.637-0.49c-0.122-0.081-0.218-0.192-0.346-0.266L290.498,97.191V63.602
				c0-0.155-0.05-0.301-0.061-0.454c-0.018-0.244-0.051-0.487-0.097-0.728c-0.118-0.715-0.35-1.406-0.689-2.046
				c-0.022-0.04-0.019-0.086-0.042-0.126l-0.03-0.034c-0.412-0.674-0.939-1.27-1.558-1.761c-0.141-0.116-0.276-0.224-0.426-0.327
				c-0.164-0.115-0.298-0.263-0.473-0.364l-21.046-12.105c-0.167-0.095-0.354-0.094-0.525-0.174
				c-0.545-0.269-1.125-0.461-1.723-0.571c-0.269-0.036-0.54-0.055-0.812-0.056c-0.575-0.036-1.151,0.006-1.715,0.123
				c-0.314,0.081-0.622,0.185-0.921,0.31c-0.347,0.085-0.686,0.199-1.014,0.342l-29.06,16.775L123.65,0.793
				c-0.284-0.119-0.576-0.217-0.874-0.294c-0.39-0.175-0.797-0.312-1.214-0.408c-0.854-0.12-1.72-0.121-2.574-0.002
				c-0.426,0.097-0.842,0.237-1.241,0.418c-0.291,0.075-0.577,0.171-0.854,0.287L83.252,20.214
				c-0.118,0.068-0.181,0.185-0.293,0.259c-0.376,0.267-0.723,0.573-1.035,0.914c-0.321,0.298-0.611,0.628-0.866,0.984
				c-0.079,0.118-0.201,0.186-0.273,0.31c-0.107,0.26-0.197,0.527-0.269,0.799c-0.19,0.416-0.336,0.851-0.435,1.297
				c-0.072,0.421-0.102,0.848-0.09,1.274h-0.109v26.947c0,3.721,3.016,6.737,6.737,6.737c3.721,0,6.737-3.016,6.737-6.737v-15.28
				l291.637,168.377v225.796L93.355,263.513V106.894c0-3.721-3.016-6.737-6.737-6.737s-6.737,3.016-6.737,6.737V267.406z
				 M418.617,420.253l-20.151,11.638V206.098l20.151-11.639V420.253z M120.27,14.404L222.38,73.387v23.265L100.096,26.05
				L120.27,14.404z M262.703,59.263l7.583,4.36l-20.133,11.623l-7.582-4.362L262.703,59.263z M235.854,82.563l7.569,4.355v21.883
				l-7.569-4.37L235.854,82.563z M256.896,86.912l20.128-11.62v20.626l-20.128,11.632V86.912z M262.547,119.843l20.1-11.624
				l129.228,74.572l-20.147,11.636L262.547,119.843z M154.551,395.938l-8.408-12.888l64.077-36.502l15.409,8.897L154.551,395.938z
				 M235.811,421.188v-56.033l0.887-0.505l6.679,11.516v49.391L235.811,421.188z M256.85,425.574v-26.175l11.378,19.619
				L256.85,425.574z M328.932,496.833l-71.267-122.892l5.509,3.181l68.771,118.573L328.932,496.833z M366.157,477.313l-21.946,12.67
				l-57.612-99.338l44.048,25.432L366.157,477.313z"/>
			<path style="fill:#428DFF;" d="M86.618,86.683c2.724-0.011,5.176-1.654,6.22-4.17c1.045-2.516,0.478-5.413-1.437-7.35
				l-1.01-0.809c-0.376-0.256-0.784-0.461-1.214-0.609c-0.382-0.194-0.791-0.329-1.214-0.401c-0.445-0.076-0.894-0.121-1.345-0.135
				c-1.784,0.025-3.492,0.723-4.783,1.954c-1.635,1.575-2.352,3.875-1.902,6.099s2.005,4.065,4.122,4.881
				C84.867,86.489,85.737,86.673,86.618,86.683z"/>
			<path style="fill:#428DFF;" d="M145.307,83.773c-1.857-3.201-5.949-4.305-9.164-2.474l-31.484,17.934
				c-2.092,1.192-3.389,3.409-3.403,5.816s1.258,4.639,3.336,5.855c2.078,1.216,4.647,1.231,6.739,0.039l5.668-3.229v30.538
				c0.037,0.274,0.092,0.546,0.164,0.813c0.043,0.463,0.135,0.919,0.275,1.362c0.318,0.787,0.745,1.527,1.268,2.196
				c0.311,0.339,0.658,0.645,1.033,0.911c0.197,0.198,0.407,0.383,0.628,0.554l31.484,18.178c0.16,0.092,0.335,0.128,0.499,0.206
				c0.183,0.087,0.364,0.158,0.556,0.229c0.736,0.29,1.517,0.449,2.307,0.467l0.004,0l0.002,0l0.012-0.003
				c0.791-0.018,1.573-0.176,2.31-0.466c0.182-0.067,0.354-0.131,0.528-0.213c0.702-0.313,1.345-0.746,1.899-1.28l0.065-0.085
				c0.394-0.396,0.738-0.84,1.022-1.322c0.071-0.123,0.067-0.261,0.13-0.386c0.338-0.83,0.57-1.699,0.692-2.587
				c0.009-0.138,0.08-0.255,0.08-0.395v-17.081l3.174,5.475c1.868,3.219,5.991,4.315,9.211,2.447
				c3.219-1.868,4.315-5.991,2.447-9.211L145.307,83.773z M148.482,144.762l-18.01-10.398v-34.322l6.533-3.721l11.477,19.794
				V144.762z"/>
			<path style="fill:#428DFF;" d="M137.597,209.984c-5.323-3.594-12.176-4.023-17.905-1.118c-5.34,3.473-8.379,9.566-7.941,15.921
				c0.657,13.438,7.777,25.727,19.109,32.98c3.162,1.916,6.771,2.968,10.467,3.053c2.607,0.023,5.174-0.647,7.437-1.941
				c5.342-3.469,8.383-9.561,7.944-15.914c-0.095-4.285-0.972-8.517-2.588-12.487l32.791-17.603c3.08,4.893,7.24,9.016,12.162,12.05
				c3.162,1.919,6.773,2.971,10.47,3.053c2.105-0.026,4.181-0.498,6.09-1.386l43.34,49.981c-0.163,0.974-0.265,1.958-0.306,2.944
				c0.658,13.438,7.779,25.727,19.112,32.98c3.163,1.919,6.775,2.971,10.474,3.053c2.605,0.022,5.17-0.646,7.434-1.934
				c5.34-3.473,8.379-9.566,7.941-15.921c-0.097-4.394-1.012-8.731-2.698-12.79l29.708-17.409c2.758,3.66,6.188,6.76,10.108,9.134
				c3.162,1.916,6.771,2.969,10.467,3.053c2.606,0.023,5.172-0.647,7.434-1.941c5.344-3.467,8.386-9.56,7.947-15.914
				c-0.658-13.438-7.779-25.728-19.112-32.98c-5.327-3.585-12.176-4.013-17.908-1.118c-5.34,3.473-8.379,9.566-7.941,15.921
				c0.091,4.14,0.916,8.231,2.437,12.082l-29.931,17.54c-2.661-3.413-5.923-6.313-9.624-8.556
				c-5.323-3.598-12.179-4.026-17.908-1.118c-0.232,0.134-0.396,0.35-0.618,0.496l-41.82-48.221c0.49-1.877,0.742-3.808,0.751-5.748
				c-0.658-13.439-7.779-25.728-19.112-32.98c-5.17-3.933-12.191-4.391-17.828-1.163s-8.794,9.516-8.018,15.965
				c0.042,2.936,0.477,5.853,1.295,8.674l-33.839,18.165C144.719,215.268,141.388,212.284,137.597,209.984z M336.314,239.398
				c0.228-0.108,0.479-0.158,0.73-0.145c1.32,0.108,2.593,0.542,3.704,1.263c7.182,4.823,11.746,12.681,12.375,21.309
				c0,2.605-0.724,3.967-1.204,4.25c-0.526,0.29-2.112,0.224-4.434-1.118c-7.183-4.822-11.747-12.681-12.375-21.309
				C335.11,241.043,335.827,239.675,336.314,239.398z M274.077,275.129c1.32,0.103,2.594,0.535,3.704,1.257
				c7.183,4.822,11.747,12.681,12.375,21.309c0,2.605-0.717,3.974-1.204,4.25c-0.5,0.296-2.079,0.237-4.434-1.118
				c-7.182-4.823-11.746-12.681-12.375-21.309c0-2.605,0.724-3.967,1.204-4.25C273.575,275.162,273.826,275.114,274.077,275.129z
				 M194.643,187.695c0.227-0.108,0.476-0.158,0.727-0.145c1.32,0.107,2.593,0.541,3.704,1.263
				c7.183,4.822,11.747,12.681,12.375,21.309c0,2.605-0.72,3.967-1.204,4.25c-0.51,0.296-2.102,0.23-4.434-1.118
				c-7.182-4.822-11.745-12.681-12.372-21.309C193.439,189.339,194.159,187.971,194.643,187.695z M142.028,247.215
				c-0.493,0.29-2.095,0.23-4.431-1.118c-7.182-4.822-11.745-12.681-12.372-21.309c0-2.605,0.72-3.974,1.204-4.25
				c0.227-0.108,0.476-0.158,0.727-0.145c1.32,0.107,2.593,0.541,3.704,1.263c7.183,4.822,11.747,12.681,12.375,21.309
				C143.235,245.569,142.515,246.931,142.028,247.215L142.028,247.215z"/>
			<path style="fill:#428DFF;" d="M366.985,369.662l-20.993-12.118c-3.223-1.858-7.341-0.753-9.201,2.469
				c-1.86,3.222-0.757,7.341,2.464,9.202l20.993,12.118c3.223,1.858,7.341,0.753,9.201-2.469
				C371.309,375.642,370.206,371.523,366.985,369.662z"/>
			<path style="fill:#428DFF;" d="M366.985,393.741l-41.98-24.237c-2.085-1.205-4.654-1.206-6.74-0.002
				c-2.086,1.204-3.37,3.429-3.369,5.837c0.001,2.408,1.286,4.633,3.372,5.835l41.98,24.237c3.223,1.858,7.341,0.753,9.201-2.469
				S370.206,395.602,366.985,393.741z"/>
		</g>
	</g>
</g>
<g>
</g>
<g>
</g>
<g>
</g>
<g>
</g>
<g>
</g>
<g>
</g>
<g>
</g>
<g>
</g>
<g>
</g>
<g>
</g>
<g>
</g>
<g>
</g>
<g>
</g>
<g>
</g>
<g>
</g>
</svg>
