<?xml version="1.0" encoding="iso-8859-1"?>
<!-- Generator: Adobe Illustrator 19.0.0, SVG Export Plug-In . SVG Version: 6.00 Build 0)  -->
<svg version="1.1" id="Capa_1" xmlns="http://www.w3.org/2000/svg" xmlns:xlink="http://www.w3.org/1999/xlink" x="0px" y="0px"
	 viewBox="0 0 511.89 511.89" style="enable-background:new 0 0 511.89 511.89;" xml:space="preserve">
<g>
	<g transform="translate(1 1)">
		
			<linearGradient id="SVGID_1_" gradientUnits="userSpaceOnUse" x1="-49.7591" y1="651.613" x2="-48.966" y2="650.6796" gradientTransform="matrix(338.7285 0 0 -498.5263 16975.459 324851.0313)">
			<stop  offset="0" style="stop-color:#D4E1F4"/>
			<stop  offset="0.1717" style="stop-color:#D4E1F4"/>
			<stop  offset="0.2" style="stop-color:#D4E1F4"/>
			<stop  offset="0.2001" style="stop-color:#DAE4F4"/>
			<stop  offset="0.2007" style="stop-color:#EBEBF4"/>
			<stop  offset="0.2014" style="stop-color:#F6F1F4"/>
			<stop  offset="0.2023" style="stop-color:#FDF4F4"/>
			<stop  offset="0.205" style="stop-color:#FFF5F4"/>
			<stop  offset="0.2522" style="stop-color:#FFF5F4"/>
			<stop  offset="0.26" style="stop-color:#FFF5F4"/>
			<stop  offset="0.26" style="stop-color:#D4E1F4"/>
			<stop  offset="0.3974" style="stop-color:#D4E1F4"/>
			<stop  offset="0.42" style="stop-color:#D4E1F4"/>
			<stop  offset="0.4201" style="stop-color:#DAE4F4"/>
			<stop  offset="0.4207" style="stop-color:#EBEBF4"/>
			<stop  offset="0.4214" style="stop-color:#F6F1F4"/>
			<stop  offset="0.4223" style="stop-color:#FDF4F4"/>
			<stop  offset="0.425" style="stop-color:#FFF5F4"/>
			<stop  offset="0.4894" style="stop-color:#FFF5F4"/>
			<stop  offset="0.5" style="stop-color:#FFF5F4"/>
			<stop  offset="0.5" style="stop-color:#F9F2F4"/>
			<stop  offset="0.5001" style="stop-color:#E8EBF4"/>
			<stop  offset="0.5003" style="stop-color:#DDE5F4"/>
			<stop  offset="0.5005" style="stop-color:#D6E2F4"/>
			<stop  offset="0.501" style="stop-color:#D4E1F4"/>
			<stop  offset="0.7062" style="stop-color:#D4E1F4"/>
			<stop  offset="0.74" style="stop-color:#D4E1F4"/>
			<stop  offset="0.741" style="stop-color:#FFF5F4"/>
			<stop  offset="0.8346" style="stop-color:#FFF5F4"/>
			<stop  offset="0.85" style="stop-color:#FFF5F4"/>
			<stop  offset="0.851" style="stop-color:#D4E1F4"/>
		</linearGradient>
		<polygon style="fill:url(#SVGID_1_);" points="281.651,99.471 282.728,98.798 282.728,62.688 282.728,62.621 261.709,50.494 
			229.312,69.189 119.293,5.627 85.608,25.029 85.608,266.41 209.229,337.753 135.596,379.724 151.36,403.909 228.093,360.254 
			228.093,424.052 249.112,436.246 276.396,420.482 324.968,504.153 340.733,498.158 374.349,478.755 334.602,410.242 
			334.602,410.174 390.72,442.579 424.337,423.109 424.337,181.795 		"/>
		<polygon style="fill:#A4C2F7;" points="424.337,181.795 424.337,423.109 390.72,442.579 390.72,201.198 		"/>
		<g>
			<polygon style="fill:#D4E1F4;" points="424.337,181.795 390.72,201.198 85.608,25.029 119.293,5.627 229.373,69.223 
				281.651,99.471 			"/>
			<polygon style="fill:#D4E1F4;" points="249.179,82.023 249.179,118.2 228.093,106.141 228.093,69.896 249.112,82.023 			"/>
		</g>
		<polygon style="fill:#E3E7F2;" points="282.728,62.688 282.728,98.798 281.651,99.471 249.179,118.2 249.179,82.023 		"/>
		<g>
			<polygon style="fill:#D4E1F4;" points="249.112,373.324 249.112,436.246 228.093,424.052 228.093,360.254 238.131,354.461 
				238.198,354.461 238.265,354.528 			"/>
			<polygon style="fill:#D4E1F4;" points="238.131,354.461 228.093,360.254 151.36,403.909 135.596,379.724 209.229,337.753 			"/>
			<polygon style="fill:#D4E1F4;" points="340.733,498.158 324.968,504.153 276.396,420.482 276.396,420.414 270.063,409.433 
				249.112,373.324 238.265,354.528 267.099,371.168 267.166,371.303 			"/>
		</g>
		<polygon style="fill:#A4C2F7;" points="282.728,62.621 282.728,62.688 249.179,82.023 249.112,82.023 228.093,69.896 
			261.709,50.494 		"/>
		<g>
			<polygon style="fill:#E3E7F2;" points="374.349,478.755 340.733,498.158 267.166,371.303 334.602,410.174 334.602,410.242 			"/>
			<polygon style="fill:#E3E7F2;" points="276.396,420.414 276.396,420.482 249.112,436.246 249.112,373.324 270.063,409.433 			"/>
		</g>
		<g>
			<path style="fill:#A4C2F7;" d="M175.787,137.061l-31.48-54.29c-1.857-3.201-5.949-4.305-9.164-2.474l-31.484,17.934
				c-2.092,1.192-3.389,3.409-3.403,5.816c-0.014,2.407,1.258,4.639,3.336,5.855s4.647,1.231,6.739,0.039l5.668-3.229v30.538
				c0.037,0.274,0.092,0.546,0.164,0.813c0.043,0.463,0.135,0.919,0.275,1.362c0.318,0.787,0.745,1.527,1.268,2.196
				c0.311,0.339,0.658,0.645,1.033,0.911c0.197,0.198,0.407,0.383,0.628,0.554l31.484,18.178c0.16,0.092,0.335,0.128,0.499,0.206
				c0.183,0.087,0.364,0.158,0.556,0.229c0.736,0.29,1.517,0.449,2.307,0.467l0.004,0l0.002,0l0.012-0.002
				c0.791-0.018,1.573-0.176,2.31-0.466c0.182-0.067,0.354-0.131,0.528-0.213c0.702-0.313,1.345-0.746,1.899-1.28l0.065-0.085
				c0.394-0.396,0.738-0.84,1.022-1.322c0.071-0.123,0.067-0.261,0.13-0.386c0.338-0.83,0.57-1.699,0.692-2.587
				c0.009-0.138,0.08-0.255,0.08-0.395V138.35l3.174,5.475c1.868,3.219,5.991,4.315,9.211,2.447
				C176.559,144.404,177.654,140.281,175.787,137.061L175.787,137.061z M147.481,143.76l-18.01-10.398V99.039l6.533-3.721
				l11.477,19.794V143.76z"/>
			<polygon style="fill:#A4C2F7;" points="162.503,245.061 143.774,234.242 143.774,180.529 162.503,191.342 			"/>
			<polygon style="fill:#A4C2F7;" points="199.966,266.686 181.238,255.874 181.238,175.301 199.966,186.114 			"/>
			<polygon style="fill:#A4C2F7;" points="237.43,288.318 218.701,277.506 218.701,223.786 237.43,234.606 			"/>
			<polygon style="fill:#A4C2F7;" points="274.893,309.95 256.165,299.131 256.165,218.558 274.893,229.378 			"/>
			<polygon style="fill:#A4C2F7;" points="312.364,331.576 293.629,320.763 293.629,267.05 312.364,277.863 			"/>
			<path style="fill:#A4C2F7;" d="M321.721,343.726c-1.18,0.001-2.34-0.31-3.362-0.901L131.037,234.673
				c-2.086-1.203-3.372-3.427-3.372-5.835s1.284-4.633,3.369-5.837c2.086-1.204,4.655-1.203,6.74,0.002l187.322,108.151
				c2.643,1.525,3.931,4.635,3.14,7.582C327.445,341.682,324.772,343.73,321.721,343.726L321.721,343.726z"/>
		</g>
	</g>
	<g transform="translate(2 1)">
		<polygon style="fill:#FFFFFF;" points="154.806,393.198 228.44,351.227 209.995,340.583 141.333,379.724 157.097,403.909 
			160.519,401.962 		"/>
		<polygon style="fill:#FFFFFF;" points="301.939,112.271 300.861,112.945 430.074,187.495 430.074,181.795 301.939,107.865 		"/>
		<polygon style="fill:#FFFFFF;" points="104.819,38.503 138.503,19.101 248.523,82.663 280.92,63.968 288.465,68.32 
			288.465,62.688 288.465,62.621 267.446,50.494 235.049,69.189 125.029,5.627 91.345,25.029 91.345,266.41 104.819,274.184 		"/>
		<polygon style="fill:#FFFFFF;" points="247.303,373.728 233.829,381.395 233.829,424.052 247.303,431.867 		"/>
	</g>
	<g>
		<polygon style="fill:#FFFFFF;" points="93.352,26.049 93.352,113.628 93.352,267.403 79.878,267.403 79.878,113.628 
			79.878,26.049 		"/>
		<g>
			<path style="fill:#428DFF;" d="M388.359,449.397l0.025,0.01c0.375,0.198,0.769,0.36,1.174,0.484
				c0.153,0.053,0.295,0.142,0.45,0.183c0.381,0.084,0.769,0.134,1.159,0.151c0.188,0.016,0.372,0.073,0.56,0.073l0.003,0l0.003,0
				c1.18,0.001,2.34-0.31,3.362-0.901l33.638-19.428c0.189-0.148,0.369-0.307,0.54-0.476c0.415-0.289,0.796-0.624,1.134-1
				c0.512-0.657,0.93-1.383,1.242-2.155c0.153-0.473,0.251-0.962,0.294-1.458c0.062-0.237,0.111-0.477,0.145-0.719V182.791
				c0-0.159-0.051-0.307-0.062-0.464c-0.019-0.255-0.053-0.509-0.101-0.76c-0.117-0.667-0.334-1.313-0.644-1.915
				c-0.041-0.078-0.037-0.165-0.081-0.242c-0.047-0.082-0.129-0.124-0.179-0.203c-0.361-0.559-0.803-1.062-1.312-1.491
				c-0.205-0.179-0.421-0.345-0.647-0.498c-0.12-0.081-0.215-0.19-0.342-0.263L290.497,97.189V63.6c0-0.155-0.05-0.301-0.061-0.454
				c-0.018-0.244-0.051-0.487-0.097-0.728c-0.118-0.715-0.35-1.406-0.689-2.046c-0.022-0.04-0.019-0.086-0.042-0.126l-0.03-0.034
				c-0.412-0.674-0.939-1.27-1.558-1.761c-0.141-0.116-0.276-0.224-0.426-0.327c-0.164-0.115-0.298-0.263-0.473-0.364
				l-21.046-12.105c-0.17-0.097-0.36-0.097-0.535-0.178c-0.539-0.265-1.111-0.456-1.701-0.566c-1.192-0.23-2.426-0.09-3.536,0.401
				c-0.321,0.081-0.634,0.187-0.938,0.317l-29.06,16.775L123.649,0.791c-0.289-0.122-0.587-0.222-0.891-0.3
				c-0.382-0.17-0.78-0.304-1.188-0.399c-0.855-0.122-1.722-0.124-2.578-0.006c-0.43,0.098-0.849,0.238-1.251,0.42
				c-0.289,0.075-0.573,0.17-0.849,0.285L83.247,20.213c-0.119,0.069-0.183,0.186-0.296,0.261c-0.371,0.264-0.713,0.566-1.022,0.901
				c-0.327,0.303-0.622,0.638-0.881,1c-0.077,0.116-0.198,0.182-0.268,0.304c-0.105,0.256-0.194,0.519-0.265,0.787
				c-0.193,0.421-0.341,0.862-0.442,1.314c-0.071,0.419-0.101,0.843-0.088,1.268v0.002h-0.104v26.947
				c0,3.721,3.016,6.737,6.737,6.737c3.721,0,6.737-3.016,6.737-6.737V37.719l291.636,168.375V431.89L93.354,263.514V106.892
				c0-3.721-3.016-6.737-6.737-6.737s-6.737,3.016-6.737,6.737v160.512h0.104c-0.04,2.39,1.205,4.617,3.262,5.834l113.448,65.5
				l-63.442,36.139c-1.612,0.92-2.773,2.464-3.21,4.268c-0.437,1.804-0.111,3.708,0.901,5.264l15.783,24.197
				c1.947,2.986,5.882,3.94,8.98,2.178l66.625-37.953v52.243c-0.001,2.407,1.284,4.632,3.368,5.836l20.878,12.048
				c2.091,1.314,4.738,1.359,6.872,0.117l21.536-12.404l45.155,77.864c1.207,2.076,3.427,3.354,5.829,3.356
				c0.814,0.001,1.621-0.146,2.382-0.434l15.783-5.974c0.095-0.036,0.157-0.123,0.25-0.163c0.252-0.086,0.498-0.187,0.737-0.304
				l33.615-19.407l0.017-0.007c0.074-0.043,0.112-0.118,0.184-0.163c3.079-1.904,4.092-5.908,2.29-9.048
				c-0.02-0.035-0.056-0.053-0.077-0.087l-27.082-46.704L388.359,449.397z M418.616,420.251l-20.151,11.638V206.096l20.151-11.639
				V420.251z M120.269,14.402l102.11,58.983v23.266L100.093,26.048L120.269,14.402z M262.701,59.262l7.583,4.359L250.15,75.242
				l-7.579-4.361L262.701,59.262z M235.853,82.568l7.565,4.349v21.882l-7.565-4.368V82.568z M256.892,86.911l20.132-11.62v20.626
				l-20.132,11.632V86.911z M262.542,119.84l20.103-11.623l129.229,74.573l-20.147,11.636L262.542,119.84z M154.55,395.936
				l-8.408-12.895l64.076-36.495l15.411,8.898L154.55,395.936z M235.806,421.186v-56.029l0.894-0.509l6.679,11.517v49.39
				L235.806,421.186z M256.852,425.569v-26.171l11.376,19.617L256.852,425.569z M328.932,496.831L257.67,373.942l5.505,3.178
				l68.771,118.572L328.932,496.831z M366.156,477.311l-21.946,12.67l-57.612-99.337l44.049,25.432L366.156,477.311z"/>
			<path style="fill:#428DFF;" d="M86.618,86.682c2.724-0.011,5.176-1.654,6.22-4.17c1.045-2.516,0.478-5.413-1.437-7.35
				l-1.01-0.809c-0.376-0.256-0.784-0.461-1.214-0.609c-0.382-0.194-0.791-0.329-1.214-0.401c-0.445-0.076-0.894-0.121-1.345-0.135
				c-1.784,0.025-3.492,0.723-4.783,1.954c-1.635,1.575-2.352,3.875-1.902,6.099s2.005,4.065,4.122,4.881
				C84.866,86.488,85.736,86.671,86.618,86.682z"/>
			<path style="fill:#428DFF;" d="M145.307,83.772c-1.861-3.197-5.948-4.3-9.164-2.474l-31.487,17.934
				c-3.234,1.842-4.362,5.957-2.52,9.191c1.842,3.234,5.957,4.362,9.191,2.52l5.671-3.23v30.539c0.037,0.271,0.091,0.54,0.162,0.804
				c0.043,0.466,0.136,0.927,0.277,1.373c0.319,0.786,0.745,1.523,1.267,2.192c0.313,0.341,0.661,0.648,1.039,0.916
				c0.196,0.197,0.404,0.381,0.624,0.551l31.48,18.178c0.16,0.092,0.333,0.127,0.497,0.205c0.183,0.088,0.364,0.158,0.556,0.229
				c0.736,0.291,1.518,0.449,2.309,0.467l0.004,0l0.002,0l0.012-0.002c0.791-0.018,1.573-0.176,2.309-0.465
				c0.183-0.068,0.357-0.133,0.533-0.216c0.7-0.312,1.341-0.744,1.894-1.276l0.076-0.099c0.39-0.393,0.73-0.833,1.012-1.31
				c0.07-0.122,0.067-0.259,0.129-0.384c0.339-0.832,0.572-1.703,0.693-2.593c0.008-0.137,0.079-0.253,0.079-0.391v-17.086
				l3.178,5.48c1.868,3.219,5.991,4.315,9.211,2.447c3.219-1.868,4.315-5.991,2.447-9.211L145.307,83.772z M148.478,144.759
				l-18.007-10.398v-34.323l6.533-3.721l11.474,19.788V144.759z"/>
			<path style="fill:#428DFF;" d="M360.247,381.331c3.223,1.858,7.341,0.753,9.201-2.469s0.757-7.341-2.464-9.202l-20.993-12.118
				c-3.223-1.858-7.341-0.753-9.201,2.469c-1.86,3.222-0.757,7.341,2.464,9.202L360.247,381.331z"/>
			<path style="fill:#428DFF;" d="M315.8,371.969c-0.894,1.548-1.136,3.387-0.673,5.113c0.463,1.726,1.592,3.198,3.141,4.091
				l41.98,24.237c3.223,1.858,7.341,0.753,9.201-2.469s0.757-7.341-2.464-9.202l-41.98-24.237
				C321.78,367.648,317.664,368.752,315.8,371.969z"/>
			<path style="fill:#428DFF;" d="M204.34,181.278l-18.737-10.809c-2.085-1.204-4.653-1.203-6.737,0
				c-2.084,1.204-3.368,3.428-3.368,5.835v68.9l-5.257-3.035v-49.826c0.001-2.407-1.283-4.632-3.368-5.836l-18.73-10.816
				c-2.085-1.204-4.653-1.203-6.737,0c-2.084,1.204-3.368,3.428-3.368,5.835v42.225c-3.102-1.387-6.751-0.217-8.467,2.715
				c-0.894,1.548-1.136,3.387-0.673,5.113c0.463,1.726,1.592,3.198,3.141,4.091l19.794,11.428l8.305,4.795l0.005,0.002
				l139.425,80.497l10.426,6.021l0.006,0.002l9.362,5.405c2.085,1.205,4.654,1.206,6.74,0.002c2.086-1.204,3.37-3.429,3.369-5.837
				s-1.286-4.633-3.372-5.835l-6-3.464v-49.825c0.001-2.407-1.283-4.632-3.368-5.836l-18.73-10.816
				c-2.085-1.204-4.653-1.203-6.737,0c-2.084,1.204-3.368,3.428-3.368,5.835v42.048l-5.257-3.035v-76.684
				c0.001-2.407-1.283-4.632-3.368-5.836l-18.737-10.816c-2.085-1.204-4.653-1.203-6.737,0c-2.084,1.204-3.368,3.428-3.368,5.835
				v68.903l-5.257-3.035v-49.829c0.001-2.407-1.284-4.632-3.368-5.836l-18.73-10.809c-2.085-1.204-4.653-1.203-6.737,0
				c-2.084,1.204-3.368,3.428-3.368,5.835v42.045l-5.257-3.035v-76.687C207.709,184.706,206.424,182.482,204.34,181.278z
				 M188.971,187.969l5.263,3.033v65.02l-5.263-3.039V187.969z M226.438,236.456l5.257,3.033v38.158l-5.257-3.033V236.456z
				 M156.767,196.232v38.158l-1.086-0.627l-4.171-2.408v-38.156L156.767,196.232z M301.366,279.719l5.257,3.033v38.158l-0.553-0.319
				l-4.703-2.715V279.719z M263.899,231.226l5.263,3.039v65.017l-5.263-3.038V231.226z"/>
		</g>
	</g>
</g>
<g>
</g>
<g>
</g>
<g>
</g>
<g>
</g>
<g>
</g>
<g>
</g>
<g>
</g>
<g>
</g>
<g>
</g>
<g>
</g>
<g>
</g>
<g>
</g>
<g>
</g>
<g>
</g>
<g>
</g>
</svg>
