<svg height="512pt" viewBox="0 0 512 512.15529" width="512pt" xmlns="http://www.w3.org/2000/svg" xmlns:xlink="http://www.w3.org/1999/xlink"><linearGradient id="linear0" gradientTransform="matrix(213.335938 0 0 179.199219 42.746094 204.957031)" gradientUnits="userSpaceOnUse" x1=".045856" x2=".954095" y1="-.026609" y2="1.054638"><stop offset="0" stop-color="#d3dff2"/><stop offset=".1717" stop-color="#d3dff2"/><stop offset=".2" stop-color="#d3dff2"/><stop offset=".2002" stop-color="#dae2f2"/><stop offset=".2007" stop-color="#ebeaf2"/><stop offset=".2014" stop-color="#f6eff2"/><stop offset=".2023" stop-color="#fdf2f2"/><stop offset=".205" stop-color="#fff3f2"/><stop offset=".2522" stop-color="#fff3f2"/><stop offset=".26" stop-color="#fff3f2"/><stop offset=".26" stop-color="#d3dff2"/><stop offset=".3974" stop-color="#d3dff2"/><stop offset=".42" stop-color="#d3dff2"/><stop offset=".4202" stop-color="#dae2f2"/><stop offset=".4207" stop-color="#ebeaf2"/><stop offset=".4214" stop-color="#f6eff2"/><stop offset=".4223" stop-color="#fdf2f2"/><stop offset=".425" stop-color="#fff3f2"/><stop offset=".4894" stop-color="#fff3f2"/><stop offset=".5" stop-color="#fff3f2"/><stop offset=".5" stop-color="#f8f0f2"/><stop offset=".5001" stop-color="#e7e8f2"/><stop offset=".5003" stop-color="#dce3f2"/><stop offset=".5005" stop-color="#d5e0f2"/><stop offset=".501" stop-color="#d3dff2"/><stop offset=".7062" stop-color="#d3dff2"/><stop offset=".74" stop-color="#d3dff2"/><stop offset=".741" stop-color="#fff3f2"/><stop offset=".8346" stop-color="#fff3f2"/><stop offset=".85" stop-color="#fff3f2"/><stop offset=".851" stop-color="#d3dff2"/></linearGradient><path d="m315.8125 469.488281v25.601563c-.011719 4.707031-3.824219 8.519531-8.53125 8.53125h-290.132812c-4.707032-.011719-8.519532-3.824219-8.535157-8.53125v-25.601563l102.398438-34.132812h93.867187zm0 0" fill="#cad9fc"/><path d="m290.214844 469.488281v25.601563c-.015625 4.707031-3.828125 8.519531-8.535156 8.53125h-264.53125c-4.707032-.011719-8.519532-3.824219-8.535157-8.53125v-25.601563l102.398438-34.132812h68.269531zm0 0" fill="#e8edfc"/><path d="m251.429688 25.753906h107.050781v34.132813h-107.179688" fill="#e8edfc"/><path d="m486.480469 17.222656v49.320313l-48.300781 10.414062h-88.234376c-4.707031-.015625-8.519531-3.828125-8.53125-8.535156v-51.199219c.011719-4.707031 3.824219-8.519531 8.53125-8.535156h128c4.707032.015625 8.519532 3.828125 8.535157 8.535156zm0 0" fill="#cad9fc"/><path d="m460.878906 17.222656v49.320313l-48.296875 10.414062h-62.636719c-4.707031-.015625-8.519531-3.828125-8.53125-8.535156v-51.199219c.011719-4.707031 3.824219-8.519531 8.53125-8.535156h102.402344c4.707032.015625 8.519532 3.828125 8.53125 8.535156zm0 0" fill="#e8edfc"/><path d="m341.414062 170.820312h102.398438v252.589844h-102.398438zm0 0" fill="#cad9fc"/><path d="m341.414062 170.820312h76.800782v252.589844h-76.800782zm0 0" fill="#e8edfc"/><path d="m502.265625 95.300781c.027344 9.058594-3.566406 17.753907-9.984375 24.152344l-40.871094 40.871094-12.800781-12.796875-35.5-35.5 40.875-40.875c3.234375-3.246094 7.09375-5.800782 11.347656-7.507813 10.527344-4.265625 22.480469-3.011719 31.894531 3.335938 9.414063 6.351562 15.050782 16.96875 15.039063 28.320312zm0 0" fill="#7facfa"/><path d="m476.667969 95.300781c.023437 9.058594-3.570313 17.753907-9.984375 24.152344l-28.074219 28.074219-35.5-35.5 40.875-40.875c3.234375-3.246094 7.09375-5.800782 11.347656-7.507813 12.910157 5.207031 21.351563 17.738281 21.335938 31.65625zm0 0" fill="#a4c2f7"/><path d="m452.347656 170.820312c.011719 15.847657-6.277344 31.046876-17.484375 42.253907-11.203125 11.203125-26.402343 17.492187-42.25 17.480469-4.300781-.011719-8.589843-.472657-12.800781-1.363282-27.40625-6.023437-46.933594-30.308594-46.933594-58.371094s19.527344-52.34375 46.933594-58.367187c4.210938-.894531 8.5-1.351563 12.800781-1.363281 15.847657-.011719 31.046875 6.277344 42.25 17.480468 11.207031 11.207032 17.496094 26.40625 17.484375 42.25zm0 0" fill="#cad9fc"/><path d="m426.746094 170.820312c0-32.234374-21.011719-58.367187-46.933594-58.367187-25.917969 0-46.933594 26.132813-46.933594 58.367187 0 32.238282 21.015625 58.371094 46.933594 58.371094 25.921875 0 46.933594-26.132812 46.933594-58.371094zm0 0" fill="#e8edfc"/><path d="m409.679688 170.820312c0 9.425782-7.640626 17.066407-17.066407 17.066407s-17.066406-7.640625-17.066406-17.066407c0-9.425781 7.640625-17.066406 17.066406-17.066406s17.066407 7.640625 17.066407 17.066406zm0 0" fill="#e8edfc"/><path d="m495.011719 452.421875h-186.023438l-10.242187-25.683594 16.980468-29.78125c1.535157-2.648437 4.367188-4.273437 7.425782-4.269531h147.457031c3.058594-.003906 5.886719 1.621094 7.421875 4.269531l24.40625 42.664063c1.511719 2.648437 1.503906 5.898437-.027344 8.539062-1.53125 2.636719-4.347656 4.261719-7.398437 4.261719zm0 0" fill="#cad9fc"/><path d="m469.414062 452.421875h-160.425781l-10.242187-25.683594 16.980468-29.78125c1.535157-2.648437 4.367188-4.273437 7.425782-4.269531h121.855468c3.058594-.003906 5.890626 1.621094 7.425782 4.269531l24.402344 42.664063c1.515624 2.648437 1.503906 5.898437-.027344 8.539062-1.527344 2.636719-4.347656 4.261719-7.394532 4.261719zm0 0" fill="#e8edfc"/><path d="m315.8125 469.488281h-307.199219l34.132813-85.332031h238.933594zm0 0" fill="#cad9fc"/><path d="m290.214844 469.488281h-281.601563l34.132813-85.332031h213.335937zm0 0" fill="#e8edfc"/><path d="m135.515625 435.355469h53.398437c3.832032 0 7.195313 2.554687 8.21875 6.25l7.746094 27.882812h-85.332031l7.746094-27.882812c1.027343-3.695313 4.386719-6.25 8.222656-6.25zm0 0" fill="#cad9fc"/><path d="m281.679688 213.488281.003906 170.667969h-238.9375v-170.667969c.015625-4.707031 3.828125-8.519531 8.535156-8.53125h221.867188c.996093-.019531 1.988281.1875 2.898437.59375 2.648437.890625 4.652344 3.085938 5.292969 5.804688.242187.683593.359375 1.40625.339844 2.132812zm0 0" fill="#cad9fc"/><path d="m256.082031 213.488281v170.667969h-213.335937v-170.667969c.015625-4.707031 3.828125-8.519531 8.535156-8.53125h196.265625c1-.019531 1.988281.1875 2.902344.59375 2.648437.890625 4.648437 3.085938 5.289062 5.804688.246094.683593.359375 1.40625.34375 2.132812zm0 0" fill="url(#linear0)"/><path d="m392.613281 281.753906v59.734375c-.011719 4.707031-3.824219 8.519531-8.53125 8.535157h-42.667969v-76.800782h42.667969c4.707031.011719 8.519531 3.824219 8.53125 8.53125zm0 0" fill="#cad9fc"/><path d="m367.011719 281.753906v59.734375c-.011719 4.707031-3.824219 8.519531-8.53125 8.535157h-17.066407v-76.800782h17.066407c4.707031.011719 8.519531 3.824219 8.53125 8.53125zm0 0" fill="#e8edfc"/><path d="m243.367188 76.699219-14.847657 35.753906c-.855469 2.09375-2.515625 3.753906-4.609375 4.609375l-11.179687 4.609375c-2.082031.863281-4.421875.863281-6.503907 0-2.082031-.867187-3.734374-2.523437-4.589843-4.609375l-4.605469-11.179688c-.941406-2.058593-.941406-4.425781 0-6.484374l14.761719-35.753907" fill="#e8edfc"/><path d="m270.417969 55.878906c-7.1875 17.320313-26.984375 25.617188-44.375 18.601563-.085938 0-.171875-.085938-.257813-.085938-12.808594-5.296875-21.132812-17.824219-21.058594-31.6875.074219-13.863281 8.535157-26.296875 21.402344-31.457031 8.28125-3.429688 17.59375-3.398438 25.855469.082031 8.363281 3.449219 15.007813 10.085938 18.46875 18.445313 3.457031 8.359375 3.445313 17.75-.035156 26.101562zm0 0" fill="#cad9fc"/><path d="m244.816406 55.878906c-3.496094 8.476563-10.265625 15.183594-18.773437 18.601563-.085938 0-.171875-.085938-.257813-.085938-12.808594-5.296875-21.132812-17.824219-21.058594-31.6875.074219-13.863281 8.535157-26.296875 21.402344-31.457031.085938 0 .171875.082031.253906.082031 8.363282 3.449219 15.011719 10.085938 18.46875 18.445313 3.460938 8.359375 3.445313 17.75-.035156 26.101562zm0 0" fill="#e8edfc"/><path d="m477.945312 94.023438c0 4.710937-3.820312 8.53125-8.53125 8.53125-4.714843 0-8.535156-3.820313-8.535156-8.53125 0-4.714844 3.820313-8.535157 8.535156-8.535157 4.710938 0 8.53125 3.820313 8.53125 8.535157zm0 0" fill="#428dff"/><path d="m17.148438 503.621094h25.597656c-4.707032-.011719-8.519532-3.824219-8.53125-8.53125v-25.601563l34.132812-85.332031v-170.667969c.011719-4.707031 3.824219-8.519531 8.53125-8.53125h-25.597656c-4.707031.011719-8.519531 3.824219-8.535156 8.53125v170.667969l-34.132813 85.332031v25.601563c.015625 4.707031 3.828125 8.519531 8.535157 8.53125zm0 0" fill="#fff"/><path d="m495 460.957031c-4.710938 0-8.53125-3.820312-8.53125-8.535156 0-4.710937 3.820312-8.535156 8.53125-8.535156l-24.378906-42.664063c-4.710938 0-8.53125-3.820312-8.53125-8.535156 0-4.710938 3.820312-8.53125 8.53125-8.53125 6.121094.007812 11.769531 3.285156 14.816406 8.59375l24.378906 42.671875c3.019532 5.28125 2.996094 11.769531-.054687 17.03125-3.054688 5.261719-8.675781 8.5-14.761719 8.503906zm0 0" fill="#428dff"/><path d="m495.011719 460.957031h-186.023438c-4.714843 0-8.535156-3.820312-8.535156-8.535156 0-4.710937 3.820313-8.535156 8.535156-8.535156h186.023438c4.714843 0 8.535156 3.824219 8.535156 8.535156 0 4.714844-3.820313 8.535156-8.535156 8.535156zm0 0" fill="#428dff"/><path d="m298.738281 435.269531c-3.039062-.003906-5.84375-1.621093-7.371093-4.25-1.523438-2.628906-1.539063-5.867187-.03125-8.507812l16.980468-29.78125c3.0625-5.296875 8.714844-8.5625 14.835938-8.574219h146.261718c4.710938 0 8.53125 3.820312 8.53125 8.53125 0 4.714844-3.820312 8.535156-8.53125 8.535156h-146.261718l-16.992188 29.742188c-1.519531 2.664062-4.351562 4.308594-7.421875 4.304687zm0 0" fill="#428dff"/><path d="m76.878906 315.886719c-3.449218 0-6.558594-2.078125-7.878906-5.265625s-.59375-6.859375 1.847656-9.300782l76.800782-76.796874c3.347656-3.234376 8.667968-3.1875 11.960937.101562 3.292969 3.292969 3.339844 8.613281.105469 11.964844l-76.800782 76.796875c-1.597656 1.605469-3.769531 2.503906-6.035156 2.5zm0 0" fill="#428dff"/><path d="m76.878906 273.222656c-3.449218 0-6.558594-2.082031-7.878906-5.269531s-.59375-6.855469 1.847656-9.296875l25.597656-25.601562c3.351563-3.234376 8.671876-3.1875 11.964844.105468 3.289063 3.289063 3.335938 8.613282.101563 11.960938l-25.597657 25.601562c-1.597656 1.601563-3.769531 2.5-6.035156 2.5zm0 0" fill="#428dff"/><path d="m315.8125 478.023438h-307.199219c-2.832031 0-5.480469-1.40625-7.066406-3.75-1.5898438-2.347657-1.910156-5.328126-.859375-7.957032l34.132812-85.332031c1.300782-3.238281 4.4375-5.359375 7.925782-5.363281h238.933594c3.488281.003906 6.625 2.125 7.925781 5.363281l34.132812 85.332031c1.054688 2.628906.730469 5.609375-.855469 7.957032-1.589843 2.34375-4.238281 3.75-7.070312 3.75zm-294.59375-17.066407h281.992188l-27.308594-68.269531h-227.375zm0 0" fill="#428dff"/><path d="m204.878906 478.023438h-85.332031c-2.667969 0-5.179687-1.25-6.792969-3.371094-1.613281-2.125-2.140625-4.878906-1.429687-7.445313l7.746093-27.886719c2.066407-7.375 8.78125-12.484374 16.445313-12.5h53.398437c7.664063.019532 14.382813 5.125 16.445313 12.503907l7.742187 27.882812c.714844 2.566407.183594 5.320313-1.429687 7.445313-1.613281 2.121094-4.125 3.371094-6.792969 3.371094zm-74.105468-17.066407h62.882812l-4.742188-17.070312h-53.398437zm4.742187-25.601562v8.53125zm0 0" fill="#428dff"/><path d="m307.28125 512.15625h-290.132812c-9.421876-.011719-17.0585942-7.644531-17.0664068-17.066406v-25.601563c0-4.710937 3.8203128-8.53125 8.5312498-8.53125 4.714844 0 8.535157 3.820313 8.535157 8.53125v25.601563h290.132812v-25.601563c0-4.710937 3.820312-8.53125 8.53125-8.53125 4.714844 0 8.535156 3.820313 8.535156 8.53125v25.601563c-.011718 9.421875-7.644531 17.054687-17.066406 17.066406zm0 0" fill="#428dff"/><path d="m34.214844 384.15625v-170.667969h17.066406v170.667969zm0 0" fill="#fff"/><g fill="#428dff"><path d="m42.746094 341.488281c-4.707032.015625-8.519532 3.828125-8.53125 8.535157v34.132812h17.066406v-34.132812c-.015625-4.707032-3.828125-8.519532-8.535156-8.535157zm0 0"/><path d="m51.28125 213.488281h-17.066406v68.265625c0 4.714844 3.820312 8.535156 8.53125 8.535156 4.714844 0 8.535156-3.820312 8.535156-8.535156zm0 0"/><path d="m34.214844 315.886719c.03125 2.261719.917968 4.425781 2.472656 6.0625l1.28125 1.023437c.476562.320313.992188.578125 1.535156.765625.484375.246094 1 .421875 1.535156.511719.566407.097656 1.136719.15625 1.707032.171875 2.261718-.03125 4.425781-.914063 6.058594-2.472656 2.070312-1.996094 2.980468-4.910157 2.410156-7.730469-.570313-2.816406-2.542969-5.148438-5.226563-6.179688-1.023437-.4375-2.125-.671874-3.242187-.683593-2.269532-.023438-4.453125.867187-6.058594 2.472656s-2.496094 3.789063-2.472656 6.058594zm0 0"/><path d="m281.679688 392.6875h-238.933594c-4.710938 0-8.53125-3.820312-8.53125-8.53125 0-4.714844 3.820312-8.535156 8.53125-8.535156h230.402344v-162.132813h-221.867188c0 4.714844-3.820312 8.535157-8.535156 8.535157-4.710938 0-8.53125-3.820313-8.53125-8.535157.007812-9.421875 7.644531-17.058593 17.066406-17.066406h221.867188c9.421874.007813 17.054687 7.644531 17.066406 17.066406v170.667969c0 4.710938-3.820313 8.53125-8.535156 8.53125zm0 0"/><path d="m384.082031 358.554688h-42.667969c-4.714843 0-8.535156-3.820313-8.535156-8.53125v-76.800782c0-4.714844 3.820313-8.535156 8.535156-8.535156h42.667969c9.421875.011719 17.054688 7.644531 17.066407 17.066406v59.734375c-.011719 9.421875-7.644532 17.058594-17.066407 17.066407zm-34.136719-17.066407h34.136719v-59.734375h-34.136719zm0 0"/><path d="m196.433594 153.859375c-2.851563-.003906-5.507813-1.429687-7.089844-3.800781-1.582031-2.367188-1.878906-5.371094-.792969-8.003906l9.800781-23.652344c1.160157-2.832032 3.742188-4.824219 6.773438-5.226563 3.03125-.40625 6.046875.84375 7.902344 3.273438 1.859375 2.429687 2.273437 5.667969 1.09375 8.484375l-9.800782 23.65625c-1.324218 3.1875-4.433593 5.269531-7.886718 5.269531zm0 0"/><path d="m209.507812 130.847656c-6.898437.003906-13.125-4.15625-15.761718-10.535156l-4.605469-11.175781c-1.871094-4.246094-1.824219-9.085938.128906-13.292969l14.632813-35.460938c1.164062-2.820312 3.742187-4.804687 6.765625-5.203124 3.019531-.402344 6.027343.839843 7.886719 3.257812 1.859374 2.417969 2.285156 5.640625 1.121093 8.460938l-14.761719 35.753906 4.609376 11.152344 11.128906-4.632813 14.828125-35.746094c1.875-4.242187 6.792969-6.210937 11.078125-4.429687 4.28125 1.777344 6.359375 6.652344 4.679687 10.972656l-14.847656 35.753906c-1.746094 4.207032-5.101563 7.539063-9.316406 9.257813l-11.09375 4.578125c-2.050781.847656-4.25 1.285156-6.472657 1.289062zm0 0"/><path d="m238.890625 85.523438c-21.996094.035156-40.429687-16.617188-42.621094-38.503907-2.1875-21.882812 12.582031-41.859375 34.148438-46.179687 21.566406-4.320313 42.890625 8.425781 49.300781 29.464844 6.410156 21.039062-4.1875 43.507812-24.5 51.945312-5.175781 2.152344-10.726562 3.265625-16.328125 3.273438zm0-68.304688c-10.351563.019531-19.675781 6.257812-23.648437 15.816406-4.285157 10.398438-1.269532 22.378906 7.433593 29.507813 8.703125 7.128906 21.046875 7.726562 30.394531 1.46875 9.351563-6.253907 13.511719-17.886719 10.25-28.652344-3.265624-10.765625-13.1875-18.128906-24.433593-18.136719zm0 0"/><path d="m341.414062 68.421875h-73.046874c-4.710938 0-8.53125-3.820313-8.53125-8.535156 0-4.710938 3.820312-8.53125 8.53125-8.53125h64.511718v-17.066407h-64.425781c-4.710937 0-8.53125-3.820312-8.53125-8.535156 0-4.710937 3.820313-8.53125 8.53125-8.53125h72.960937c4.710938 0 8.53125 3.820313 8.53125 8.53125v34.132813c0 4.714843-3.820312 8.535156-8.53125 8.535156zm0 0"/><path d="m438.179688 85.488281h-88.234376c-9.421874-.007812-17.054687-7.644531-17.066406-17.066406v-51.199219c.011719-9.421875 7.644532-17.058594 17.066406-17.066406h128c9.421876.007812 17.058594 7.644531 17.066407 17.066406v49.320313c0 4.714843-3.820313 8.535156-8.53125 8.535156-4.714844 0-8.535157-3.820313-8.535157-8.535156v-49.320313h-128v51.199219h88.234376c4.714843 0 8.535156 3.820313 8.535156 8.535156 0 4.710938-3.820313 8.53125-8.535156 8.53125zm0 0"/><path d="m392.613281 196.421875c-14.136719 0-25.601562-11.460937-25.601562-25.601563 0-14.136718 11.464843-25.597656 25.601562-25.597656 14.140625 0 25.601563 11.460938 25.601563 25.597656-.015625 14.132813-11.46875 25.585938-25.601563 25.601563zm0-34.132813c-4.710937 0-8.53125 3.820313-8.53125 8.53125 0 4.714844 3.820313 8.535157 8.53125 8.535157 4.714844 0 8.535157-3.820313 8.535157-8.535157-.007813-4.707031-3.824219-8.527343-8.535157-8.53125zm0 0"/><path d="m451.410156 168.859375c-3.453125 0-6.5625-2.078125-7.882812-5.269531-1.320313-3.1875-.59375-6.855469 1.847656-9.296875l40.875-40.875c9.9375-10.015625 9.902344-26.183594-.074219-36.160157-9.976562-9.976562-26.140625-10.007812-36.160156-.070312l-40.871094 40.871094c-3.347656 3.261718-8.691406 3.226562-11.992187-.074219-3.304688-3.300781-3.335938-8.648437-.078125-11.992187l40.875-40.875c16.671875-16.667969 43.699219-16.667969 60.367187 0 16.671875 16.671874 16.671875 43.699218 0 60.367187l-40.875 40.875c-1.597656 1.601563-3.769531 2.503906-6.03125 2.5zm0 0"/><path d="m392.613281 239.089844c-37.703125 0-68.265625-30.566406-68.265625-68.269532 0-37.699218 30.5625-68.265624 68.265625-68.265624s68.265625 30.566406 68.265625 68.265624c-.042968 37.6875-30.582031 68.226563-68.265625 68.269532zm0-119.46875c-28.277343 0-51.199219 22.925781-51.199219 51.199218 0 28.277344 22.921876 51.203126 51.199219 51.203126 28.277344 0 51.199219-22.925782 51.199219-51.203126-.03125-28.261718-22.933594-51.167968-51.199219-51.199218zm0 0"/><path d="m341.414062 401.222656c-4.714843 0-8.535156-3.820312-8.535156-8.535156v-191.144531c0-4.714844 3.820313-8.535157 8.535156-8.535157 4.710938 0 8.53125 3.820313 8.53125 8.535157v191.144531c0 4.714844-3.820312 8.535156-8.53125 8.535156zm0 0"/><path d="m443.8125 401.222656c-4.710938 0-8.53125-3.820312-8.53125-8.535156v-191.144531c0-4.714844 3.820312-8.535157 8.53125-8.535157 4.714844 0 8.535156 3.820313 8.535156 8.535157v191.144531c0 4.714844-3.820312 8.535156-8.535156 8.535156zm0 0"/></g></svg>