<?xml version="1.0" encoding="iso-8859-1"?>
<!-- Generator: Adobe Illustrator 19.0.0, SVG Export Plug-In . SVG Version: 6.00 Build 0)  -->
<svg version="1.1" id="Capa_1" xmlns="http://www.w3.org/2000/svg" xmlns:xlink="http://www.w3.org/1999/xlink" x="0px" y="0px"
	 viewBox="0 0 511.999 511.999" style="enable-background:new 0 0 511.999 511.999;" xml:space="preserve">
<g>
	<g>
		<g>
			<path fill="#444F60" d="M418.134,221.706c0-89.544-72.59-162.133-162.133-162.133S93.868,132.162,93.868,221.706
				c0.102,89.502,72.632,162.032,162.133,162.133C345.545,383.839,418.134,311.249,418.134,221.706z M172.678,340.265
				c0.919-0.802,1.896-1.535,2.923-2.193l17.471-11.061l23.808,20.611c3.316,2.872,8.269,2.762,11.454-0.254l28.265-26.781
				l28.265,26.781c3.185,3.017,8.138,3.127,11.454,0.254l23.292-20.178l16.862,10.669c1.003,0.645,1.957,1.364,2.854,2.149
				C289.399,375.608,222.606,375.608,172.678,340.265z M300.409,208.76l0.933,1.9c0.598,1.238,0.906,2.596,0.9,3.971v16.533
				c0.006,2.36-0.909,4.629-2.55,6.325c-3.599,3.658-6.043,8.293-7.029,13.329l-0.4,2.092c-1.112,7.684-4.073,14.984-8.629,21.271
				c-1.451,2.176-2.233,4.73-2.25,7.346v12.31l-24.788,6.198l-25.979-6.496v-12.013c-0.035-2.732-0.887-5.39-2.446-7.633
				c-4.462-6.212-7.355-13.411-8.433-20.983l-0.392-2.046c-0.982-5.055-3.431-9.708-7.042-13.379
				c-1.639-1.695-2.552-3.963-2.546-6.321v-16.533c-0.006-1.376,0.302-2.736,0.9-3.975l0.983-2c1.747-3.583,2.669-7.513,2.696-11.5
				v-23.675c-0.159-15.594,12.331-28.376,27.925-28.575h27.475c15.594,0.199,28.084,12.981,27.925,28.575v23.675
				C297.696,201.181,298.634,205.147,300.409,208.76z M304.547,317.913l-13.563,11.75l-17.228-16.326l16.887-4.222L304.547,317.913z
				 M221.681,308.898l17.752,4.438l-17.227,16.323l-14.076-12.182L221.681,308.898z M352.741,329.499
				c-2.171-2.223-4.592-4.186-7.215-5.852l-47.075-29.779v-11.1c5.506-8,9.128-17.145,10.592-26.746l0.354-1.858
				c0.336-1.777,1.192-3.414,2.458-4.704c4.772-4.895,7.447-11.459,7.454-18.295v-16.534c0.003-3.991-0.906-7.931-2.658-11.517
				l-0.883-1.792c-0.647-1.296-1.001-2.719-1.038-4.167v-23.675c0.15-25.016-19.977-45.433-44.992-45.642h-27.475
				c-25.015,0.209-45.141,20.626-44.992,45.642v23.675c-0.031,1.41-0.368,2.796-0.988,4.062l-0.933,1.892
				c-1.752,3.588-2.661,7.528-2.658,11.521v16.533c0.007,6.835,2.68,13.397,7.45,18.292c1.278,1.304,2.138,2.959,2.471,4.754
				l0.346,1.812c1.446,9.605,5.069,18.751,10.592,26.742v11.096l-23.383,14.797c-0.184,0.086-0.336,0.225-0.516,0.326
				l-23.106,14.622c-2.648,1.677-5.092,3.655-7.284,5.895c-44.819-40.054-60.244-103.626-38.766-159.767
				s75.396-93.184,135.504-93.095c60.108-0.088,114.025,36.955,135.504,93.094S397.559,289.445,352.741,329.499z"/>
			<path fill="#444F60" d="M509.501,436.685l-85.368-85.363c4.415-3.893,9.321-7.192,14.593-9.811c10.26-4.419,18.933-11.856,24.867-21.321
				c3.783-10.308,4.295-21.532,1.467-32.142c-1.498-6.41-1.848-13.035-1.033-19.567c2.103-6.001,5.236-11.589,9.259-16.513
				c7.392-8.491,11.974-19.062,13.116-30.262c-1.143-11.201-5.725-21.774-13.117-30.267c-4.023-4.921-7.157-10.506-9.259-16.504
				c-0.815-6.532-0.465-13.157,1.033-19.567c2.831-10.607,2.322-21.83-1.458-32.137c-5.934-9.461-14.603-16.895-24.859-21.317
				c-5.934-2.777-11.342-6.563-15.983-11.187c-3.561-5.465-6.13-11.514-7.592-17.871c-2.152-10.864-7.578-20.808-15.55-28.496
				c-9.382-5.964-20.353-8.941-31.462-8.537c-6.684,0.005-13.319-1.137-19.617-3.375c-5.537-3.374-10.448-7.68-14.517-12.729
				c-6.776-8.954-16.114-15.637-26.775-19.163c-10.9-1.321-21.945,0.677-31.692,5.733c-6.155,2.926-12.771,4.762-19.554,5.425
				c-6.78-0.663-13.394-2.499-19.546-5.425c-9.748-5.053-20.792-7.051-31.692-5.733c-10.661,3.527-19.999,10.207-26.779,19.158
				c-4.067,5.049-8.977,9.355-14.512,12.729c-6.295,2.237-12.928,3.377-19.608,3.371c-11.112-0.404-22.084,2.575-31.467,8.542
				c-7.973,7.685-13.401,17.629-15.554,28.492c-1.462,6.355-4.032,12.403-7.592,17.867c-4.641,4.623-10.047,8.408-15.979,11.187
				c-10.259,4.422-18.931,11.858-24.867,21.321c-3.778,10.306-4.287,21.527-1.458,32.133c1.496,6.412,1.846,13.037,1.033,19.571
				c-2.105,6.001-5.241,11.589-9.267,16.513c-7.39,8.494-11.97,19.066-13.112,30.266c1.143,11.2,5.725,21.771,13.117,30.263
				c4.022,4.924,7.156,10.51,9.263,16.509c0.811,6.532,0.46,13.157-1.037,19.567c-2.831,10.607-2.322,21.829,1.458,32.137
				c5.936,9.461,14.606,16.895,24.862,21.316c5.276,2.622,10.186,5.923,14.606,9.819l-85.369,85.37
				c-2.32,2.319-3.105,5.763-2.021,8.859c1.086,3.096,3.851,5.295,7.113,5.654l47.742,5.308l5.308,47.742
				c0.362,3.26,2.56,6.023,5.654,7.11c3.094,1.087,6.538,0.304,8.858-2.014l94.28-94.198c2.995,2.698,5.847,5.552,8.545,8.547
				c6.776,8.954,16.114,15.637,26.775,19.163c10.9,1.309,21.942-0.688,31.692-5.733c6.155-2.926,12.771-4.762,19.554-5.425
				c6.78,0.663,13.394,2.499,19.546,5.425c7.847,3.682,16.31,5.872,24.958,6.458c2.264,0.007,4.522-0.237,6.733-0.725
				c10.661-3.527,19.999-10.208,26.779-19.158c2.712-3.013,5.581-5.881,8.596-8.592l94.238,94.234
				c2.319,2.321,5.764,3.106,8.86,2.02c3.096-1.086,5.295-3.851,5.657-7.112l5.3-47.742l47.742-5.308
				c3.26-0.362,6.023-2.561,7.109-5.655C512.604,442.447,511.82,439.004,509.501,436.685z M75.643,484.727l-4.1-36.892
				c-0.438-3.967-3.57-7.099-7.537-7.537l-36.883-4.1l68.742-68.742c0.322,1.029,0.645,2.043,0.967,3.096
				c2.154,10.865,7.581,20.811,15.554,28.5c9.382,5.964,20.353,8.941,31.462,8.538c2.87,0.196,5.629,0.42,8.284,0.715
				L75.643,484.727z M341.213,395.551c-7.554,4.219-14.241,9.831-19.708,16.538c-4.598,6.256-10.819,11.135-17.992,14.108
				c-7.549,0.282-15.039-1.428-21.717-4.958c-8.109-3.797-16.859-6.039-25.796-6.608c-8.939,0.57-17.692,2.811-25.804,6.608
				c-6.672,3.546-14.167,5.257-21.717,4.958c-7.172-2.976-13.393-7.856-17.992-14.113c-5.467-6.707-12.154-12.318-19.708-16.538
				c-8.206-3.253-16.948-4.944-25.775-4.983c-7.667,0.344-15.287-1.359-22.079-4.933c-5.027-5.674-8.408-12.614-9.775-20.071
				c-1.575-5.619-3.625-11.094-6.127-16.366c-0.075-0.199-0.183-0.375-0.273-0.57c-1.19-2.37-2.617-4.614-4.258-6.698
				c-5.944-6.388-13.045-11.592-20.925-15.338c-7.096-2.945-13.262-7.757-17.842-13.925c-1.974-7.181-1.949-14.765,0.071-21.933
				c1.946-8.566,2.221-17.426,0.808-26.096c-2.499-8.197-6.553-15.837-11.942-22.5c-5.156-5.755-8.616-12.826-9.996-20.429
				c1.379-7.604,4.839-14.677,9.996-20.433c5.388-6.664,9.442-14.303,11.942-22.5c1.414-8.672,1.141-17.536-0.804-26.104
				c-2.02-7.167-2.044-14.749-0.071-21.929c4.579-6.172,10.747-10.986,17.846-13.929c7.88-3.747,14.979-8.951,20.925-15.337
				c5.038-7.12,8.658-15.144,10.662-23.633c1.366-7.454,4.747-14.393,9.775-20.063c6.791-3.579,14.414-5.284,22.083-4.938
				c8.824-0.038,17.563-1.727,25.767-4.979c7.554-4.22,14.241-9.831,19.708-16.538c4.598-6.256,10.819-11.135,17.992-14.108
				c7.55-0.294,15.043,1.417,21.717,4.958c8.109,3.797,16.859,6.039,25.796,6.608c8.939-0.57,17.692-2.811,25.804-6.608
				c6.674-3.542,14.167-5.253,21.717-4.958c7.172,2.976,13.393,7.856,17.992,14.112c5.467,6.707,12.154,12.318,19.708,16.538
				c8.206,3.253,16.948,4.944,25.775,4.983c7.667-0.343,15.287,1.359,22.079,4.933c5.027,5.672,8.408,12.611,9.775,20.067
				c2.003,8.49,5.622,16.515,10.658,23.637c5.944,6.388,13.044,11.592,20.925,15.338c7.098,2.944,13.266,7.754,17.85,13.921
				c1.97,7.182,1.944,14.765-0.075,21.933c-1.947,8.568-2.224,17.431-0.817,26.104c2.506,8.192,6.56,15.827,11.942,22.492
				c5.157,5.756,8.619,12.829,10,20.433c-1.38,7.603-4.842,14.675-10,20.429c-5.389,6.666-9.443,14.308-11.942,22.508
				c-1.406,8.67-1.132,17.53,0.808,26.096c2.019,7.168,2.045,14.751,0.075,21.933c-4.583,6.17-10.751,10.983-17.85,13.929
				c-7.88,3.746-14.98,8.95-20.925,15.338c-1.64,2.08-3.066,4.321-4.256,6.688c-0.089,0.193-0.197,0.368-0.271,0.566
				c-2.505,5.276-4.556,10.756-6.132,16.38c-1.368,7.455-4.75,14.393-9.779,20.063c-6.791,3.579-14.414,5.284-22.083,4.937
				C358.156,390.61,349.417,392.299,341.213,395.551z M448.001,440.297c-3.967,0.439-7.1,3.57-7.542,7.537l-4.092,36.883
				l-76.424-76.417c2.628-0.289,5.357-0.51,8.195-0.704c11.111,0.404,22.083-2.573,31.467-8.538
				c7.974-7.688,13.403-17.634,15.554-28.5c0.323-1.057,0.648-2.076,0.971-3.108l68.745,68.745L448.001,440.297z"/>
		</g>
	</g>
</g>
<g>
</g>
<g>
</g>
<g>
</g>
<g>
</g>
<g>
</g>
<g>
</g>
<g>
</g>
<g>
</g>
<g>
</g>
<g>
</g>
<g>
</g>
<g>
</g>
<g>
</g>
<g>
</g>
<g>
</g>
</svg>
