<svg height="512pt" viewBox="0 0 512.00502 512" width="512pt" xmlns="http://www.w3.org/2000/svg"><path d="m503.464844 204.796875v290.132813c-.011719 4.707031-3.824219 8.519531-8.53125 8.535156h-477.867188c-4.707031-.015625-8.519531-3.828125-8.53125-8.535156v-187.734376l24.746094-162.21875c-4.523438-.441406-7.894531-4.359374-7.667969-8.894531.226563-4.539062 3.976563-8.09375 8.519531-8.085937h.855469l2.558594-25.683594c-4.519531-.445312-7.894531-4.363281-7.667969-8.898438.230469-4.535156 3.980469-8.09375 8.519532-8.082031h.855468l1.875-18.773437c.867188-8.726563 8.214844-15.371094 16.984375-15.363282h28.839844c8.769531-.007812 16.117187 6.636719 16.984375 15.363282l1.875 18.773437h.855469c4.539062-.011719 8.289062 3.546875 8.519531 8.082031.226562 4.535157-3.148438 8.453126-7.667969 8.898438l2.558594 25.683594h.855469c4.542968-.007813 8.292968 3.546875 8.519531 8.085937.226563 4.535157-3.144531 8.453125-7.667969 8.894531l11.949219 78.339844 12.800781 83.878906 24.746094-162.21875c-4.523438-.441406-7.894531-4.359374-7.667969-8.894531.226563-4.539062 3.976563-8.09375 8.519531-8.085937h.855469l2.558594-25.683594c-4.519531-.445312-7.894531-4.363281-7.667969-8.898438.230469-4.535156 3.980469-8.09375 8.519532-8.082031h.855468l1.875-18.773437c.867188-8.726563 8.214844-15.371094 16.984375-15.363282h28.839844c8.769531-.007812 16.117187 6.636719 16.984375 15.363282l1.875 18.773437h.855469c4.539062-.011719 8.289062 3.546875 8.519531 8.082031.226562 4.535157-3.148438 8.453126-7.667969 8.898438l2.558594 25.683594h.855469c4.542968-.007813 8.292968 3.546875 8.519531 8.085937.226563 4.535157-3.144531 8.453125-7.667969 8.894531l14.335938 58.457032 13.3125-5.035156c5.460937-4.867188 5.632812-1.023438 5.632812 6.398437l6.316406 53.25 2.21875 19.027344 77.824219-63.316407 18.941407-15.359374c5.460937-4.867188 5.632812-1.023438 5.632812 6.398437l6.316406 53.25 2.21875 19.027344 85.332032-69.375 11.433593-9.300781c2.511719-2.234376 6.097657-2.78125 9.160157-1.398438 3.058593 1.382812 5.023437 4.4375 5.003906 7.796875zm0 0" fill="#cad9fc"/><path d="m477.867188 207.699219v287.230469c-.015626 4.707031-3.828126 8.519531-8.535157 8.535156h-452.265625c-4.707031-.015625-8.519531-3.828125-8.53125-8.535156v-187.734376l24.746094-162.21875c-4.523438-.441406-7.894531-4.359374-7.667969-8.894531.226563-4.539062 3.976563-8.09375 8.519531-8.085937h.855469l2.558594-25.683594c-4.519531-.445312-7.894531-4.363281-7.667969-8.898438.230469-4.535156 3.980469-8.09375 8.519532-8.082031h.855468l1.875-18.773437c.867188-8.726563 8.214844-15.371094 16.984375-15.363282h3.242188c8.769531-.007812 16.113281 6.636719 16.980469 15.363282l1.878906 18.773437h.851562c4.542969-.011719 8.292969 3.546875 8.519532 8.082031.230468 4.535157-3.144532 8.453126-7.664063 8.898438l2.558594 25.683594h.851562c4.542969-.007813 8.292969 3.546875 8.519531 8.085937.230469 4.535157-3.144531 8.453125-7.664062 8.894531l24.746094 162.21875 12.800781-83.878906 12.800781 83.878906 24.746094-162.21875c-4.523438-.441406-7.894531-4.359374-7.667969-8.894531.226563-4.539062 3.976563-8.09375 8.519531-8.085937h.855469l2.558594-25.683594c-4.519531-.445312-7.894531-4.363281-7.667969-8.898438.230469-4.535156 3.980469-8.09375 8.519532-8.082031h.855468l1.875-18.773437c.867188-8.726563 8.214844-15.371094 16.984375-15.363282h3.242188c8.769531-.007812 16.113281 6.636719 16.980469 15.363282l1.878906 18.773437h.851562c4.542969-.011719 8.292969 3.546875 8.519532 8.082031.230468 4.535157-3.144532 8.453126-7.664063 8.898438l2.558594 25.683594h.851562c4.542969-.007813 8.292969 3.546875 8.519531 8.085937.230469 4.535157-3.144531 8.453125-7.664062 8.894531l14.335938 58.457032 13.3125-5.035156c5.460937-4.867188 5.628906-1.023438 5.628906 6.398437l8.535156 72.277344 23.382812-19.027344 2.21875 19.027344 77.824219-63.316407 7.507813 63.316407 23.382812-19.027344 2.21875 19.027344zm0 0" fill="#e8edfc"/><path d="m136.535156 307.195312h-128l24.0625-240.636718c.867188-8.726563 8.210938-15.371094 16.980469-15.363282h45.910156c8.769531-.007812 16.113281 6.636719 16.980469 15.363282zm0 0" fill="#cad9fc"/><path d="m110.933594 307.195312h-102.398438l24.0625-240.636718c.867188-8.726563 8.210938-15.371094 16.980469-15.363282h20.308594c8.769531-.007812 16.117187 6.636719 16.984375 15.363282zm0 0" fill="#e8edfc"/><path d="m264.535156 307.195312h-128l21.332032-213.332031 2.730468-27.304687c.867188-8.726563 8.210938-15.371094 16.980469-15.363282h45.910156c8.769531-.007812 16.113281 6.636719 16.980469 15.363282l2.730469 27.304687 4.265625 42.667969 6.65625 66.902344zm0 0" fill="#cad9fc"/><path d="m238.933594 307.195312h-102.398438l21.332032-213.332031 2.730468-27.304687c.867188-8.726563 8.210938-15.371094 16.980469-15.363282h20.308594c8.769531-.007812 16.117187 6.636719 16.984375 15.363282l2.730468 27.304687 4.265626 42.667969 6.65625 66.902344zm0 0" fill="#e8edfc"/><path d="m281.601562 198.140625v109.054687h-145.066406l119.464844-105.386718 11.433594-10.066406c2.511718-2.234376 6.097656-2.78125 9.160156-1.398438s5.023438 4.4375 5.007812 7.796875zm0 0" fill="#cad9fc"/><path d="m392.535156 198.140625v109.054687h-145.070312l34.136718-30.121093 85.332032-75.265625 11.433594-10.066406c2.511718-2.234376 6.097656-2.78125 9.160156-1.398438s5.023437 4.4375 5.007812 7.796875zm0 0" fill="#cad9fc"/><path d="m503.464844 198.140625v109.054687h-145.066406l119.46875-105.386718 11.433593-10.066406c2.511719-2.234376 6.097657-2.78125 9.160157-1.398438 3.058593 1.382812 5.023437 4.4375 5.003906 7.796875zm0 0" fill="#cad9fc"/><path d="m256 201.808594v105.386718h-119.464844zm0 0" fill="#e8edfc"/><path d="m366.933594 201.808594v105.386718h-119.46875l34.136718-30.121093zm0 0" fill="#e8edfc"/><path d="m477.867188 201.808594v105.386718h-119.46875zm0 0" fill="#e8edfc"/><path d="m503.464844 307.195312v153.601563h-307.199219v-51.199219c-.011719-4.707031-3.824219-8.519531-8.53125-8.535156h-102.402344c-4.707031.015625-8.519531 3.828125-8.53125 8.535156v51.199219h-68.265625v-153.601563zm0 0" fill="#cad9fc"/><path d="m477.867188 307.195312v153.601563h-281.601563v-51.199219c-.011719-4.707031-3.824219-8.519531-8.53125-8.535156h-102.402344c-4.707031.015625-8.519531 3.828125-8.53125 8.535156v51.199219h-68.265625v-153.601563zm0 0" fill="#e8edfc"/><path d="m196.265625 409.597656v93.867188h-119.464844v-93.867188c.011719-4.707031 3.824219-8.519531 8.53125-8.535156h102.402344c4.707031.015625 8.519531 3.828125 8.53125 8.535156zm0 0" fill="#cad9fc"/><path d="m170.667969 409.597656v93.867188h-93.867188v-93.867188c.011719-4.707031 3.824219-8.519531 8.53125-8.535156h76.800781c4.707032.015625 8.519532 3.828125 8.535157 8.535156zm0 0" fill="#e8edfc"/><path d="m264.535156 341.332031h187.730469c4.714844 0 8.535156 3.820313 8.535156 8.53125v68.265625c0 4.714844-3.820312 8.535156-8.535156 8.535156h-187.730469c-4.714844 0-8.535156-3.820312-8.535156-8.535156v-68.265625c0-4.710937 3.820312-8.53125 8.535156-8.53125zm0 0" fill="#7facfa"/><path d="m264.535156 341.332031h162.132813c4.710937 0 8.53125 3.820313 8.53125 8.53125v68.265625c0 4.714844-3.820313 8.535156-8.53125 8.535156h-162.132813c-4.714844 0-8.535156-3.820312-8.535156-8.535156v-68.265625c0-4.710937 3.820312-8.53125 8.535156-8.53125zm0 0" fill="#a4c2f7"/><path d="m497.835938 101.714844c-11.046876 21.277344-35.328126 32.109375-58.539063 26.113281-3.640625-.933594-7.164063-2.277344-10.496094-4.011719-10.128906-5.226562-18.210937-13.699218-22.957031-24.066406-8.339844 2.207031-17.160156 1.789062-25.257812-1.191406-1.664063-.605469-3.289063-1.316406-4.863282-2.136719-8.867187-4.496094-15.855468-11.996094-19.710937-21.160156-8.546875 2.679687-17.808594 1.882812-25.773438-2.21875-2.890625-1.5-5.5625-3.394531-7.933593-5.632813-3.578126 3.792969-8.21875 6.410156-13.3125 7.507813h-.085938c-5.730469 1.148437-11.679688.335937-16.894531-2.300781-.359375-.167969-.703125-.367188-1.023438-.597657-12.042969-6.945312-16.347656-22.226562-9.699219-34.4375 6.648438-12.207031 21.820313-16.882812 34.1875-10.535156 8.632813-16.765625 29.214844-23.375 45.996094-14.761719 1.917969.992188 3.71875 2.195313 5.375 3.582032 2.378906 1.726562 4.453125 3.832031 6.144532 6.230468 2.933593-1.8125 6.089843-3.246094 9.386718-4.265625 10.742188-3.449219 22.414063-2.464843 32.425782 2.730469 3.375 1.734375 6.476562 3.949219 9.214843 6.570312 1.875 1.664063 3.5625 3.523438 5.035157 5.546876 3.300781-1.71875 6.796874-3.039063 10.410156-3.925782 19.535156-5.078125 40.230468 1.796875 52.839844 17.558594 12.605468 15.761719 14.773437 37.460938 5.53125 55.402344zm0 0" fill="#e8edfc"/><path d="m472.234375 101.714844c-6.691406 13.054687-18.699219 22.578125-32.9375 26.113281-3.640625-.933594-7.164063-2.277344-10.496094-4.011719-10.128906-5.226562-18.210937-13.699218-22.957031-24.066406-8.339844 2.207031-17.160156 1.789062-25.257812-1.191406-1.664063-.605469-3.289063-1.316406-4.863282-2.136719-8.867187-4.496094-15.855468-11.996094-19.710937-21.160156-8.546875 2.679687-17.808594 1.882812-25.773438-2.21875-2.890625-1.5-5.5625-3.394531-7.933593-5.632813-3.578126 3.792969-8.21875 6.410156-13.3125 7.507813h-.085938c-1.457031-.535157-2.882812-1.164063-4.265625-1.875-2.894531-1.5-5.566406-3.394531-7.9375-5.632813-1.707031 1.769532-3.625 3.316406-5.714844 4.609375-12.042969-6.945312-16.347656-22.226562-9.699219-34.4375 6.648438-12.207031 21.820313-16.882812 34.1875-10.535156 3.746094-7.28125 9.984376-12.976563 17.578126-16.042969.941406.429688 1.878906.769532 2.816406 1.28125 4.695312 2.476563 8.621094-7.765625 11.519531-3.753906 5.890625-3.585938 12.546875 7.851562 19.457031 7.335938 5.253906-.359376 10.53125.308593 15.53125 1.964843 2.375.632813 4.667969 1.550781 6.828125 2.730469 5.800781 2.988281 10.578125-8.535156 14.25-3.5 6.398438-3.242188 13.394531 10.410156 20.5625 10.070312 5.203125-.265624 10.414063.28125 15.445313 1.621094 3.703125.90625 7.285156 2.253906 10.667968 4.011719 25.113282 12.964844 34.996094 43.800781 22.101563 68.949219zm0 0" fill="#fff"/><path d="m34.132812 494.929688v-187.734376l17.066407-170.664062 4.265625-42.667969 2.734375-27.304687c.867187-8.726563 8.210937-15.371094 16.980469-15.363282h-25.601563c-8.769531-.007812-16.113281 6.636719-16.980469 15.363282l-2.730468 27.304687-4.265626 42.667969-17.066406 170.664062v187.734376c.011719 4.707031 3.824219 8.519531 8.53125 8.535156h25.601563c-4.707031-.015625-8.519531-3.828125-8.535157-8.535156zm0 0" fill="#fff"/><path d="m.0429688 306.351562 11.0429692-110.386718 13.019531-130.253906 16.984375 1.707031-13.023438 130.246093-11.042968 110.378907zm0 0" fill="#fff"/><g fill="#428dff"><path d="m12.777344 264.742188c-4.683594-.453126-8.855469 2.957031-9.339844 7.640624l-3.3945312 33.960938 16.9804692 1.699219 3.398437-33.964844c.453125-4.683594-2.960937-8.855469-7.644531-9.335937zm0 0"/><path d="m41.085938 67.414062-16.980469-1.699218-13.875 138.742187c-.328125 3.046875 1 6.035157 3.484375 7.832031 2.484375 1.796876 5.742187 2.121094 8.53125.851563 2.789062-1.265625 4.6875-3.933594 4.964844-6.984375zm0 0"/><path d="m6.835938 238.417969c-.191407 2.25.472656 4.492187 1.859374 6.273437l1.171876 1.148438c.4375.371094.925781.679687 1.449218.921875.457032.289062.957032.511719 1.480469.65625.550781.152343 1.113281.265625 1.679687.34375 2.25.191406 4.492188-.472657 6.273438-1.859375 3.542969-3.0625 4.074219-8.359375 1.207031-12.058594-.734375-.847656-1.625-1.546875-2.621093-2.0625-.980469-.539062-2.054688-.878906-3.164063-1.003906-2.25-.191406-4.488281.472656-6.273437 1.859375-1.710938 1.476562-2.804688 3.539062-3.0625 5.78125zm0 0"/><path d="m136.535156 315.730469h-128c-4.714844 0-8.535156-3.820313-8.535156-8.535157 0-4.710937 3.820312-8.53125 8.535156-8.53125h118.570313l-23.125-231.253906c-.429688-4.367187-4.105469-7.691406-8.492188-7.679687h-45.910156c-4.386719-.011719-8.0625 3.3125-8.492187 7.679687-.5 4.660156-4.667969 8.046875-9.332032 7.578125-4.667968-.464843-8.082031-4.609375-7.648437-9.277343 1.277343-13.101563 12.308593-23.082032 25.472656-23.046876h45.910156c13.164063-.035156 24.199219 9.945313 25.476563 23.050782l24.058594 240.628906c.242187 2.398438-.546876 4.789062-2.164063 6.578125-1.617187 1.785156-3.914063 2.808594-6.324219 2.808594zm0 0"/><path d="m281.601562 315.730469h-145.066406c-3.550781 0-6.730468-2.195313-7.984375-5.515625-1.257812-3.320313-.324219-7.070313 2.335938-9.417969l130.886719-115.488281c5.03125-4.4375 12.199218-5.515625 18.3125-2.757813 6.117187 2.757813 10.046874 8.84375 10.046874 15.554688v78.96875c0 4.714843-3.820312 8.535156-8.53125 8.535156-4.714843 0-8.535156-3.820313-8.535156-8.535156v-78.96875l-113.964844 100.558593h122.5c4.710938 0 8.53125 3.820313 8.53125 8.53125 0 4.714844-3.820312 8.535157-8.53125 8.535157zm0 0"/><path d="m392.535156 315.730469h-145.070312c-3.546875 0-6.726563-2.195313-7.980469-5.515625-1.257813-3.320313-.324219-7.070313 2.335937-9.417969l130.886719-115.492187c5.03125-4.4375 12.199219-5.519532 18.3125-2.757813 6.117188 2.761719 10.046875 8.847656 10.046875 15.558594v78.96875c0 4.714843-3.820312 8.535156-8.53125 8.535156-4.714844 0-8.535156-3.820313-8.535156-8.535156v-78.96875l-113.96875 100.558593h122.503906c4.710938 0 8.53125 3.820313 8.53125 8.53125 0 4.714844-3.820312 8.535157-8.53125 8.535157zm0 0"/><path d="m503.464844 315.730469h-145.066406c-3.546876 0-6.726563-2.195313-7.980469-5.515625-1.257813-3.320313-.324219-7.070313 2.335937-9.417969l130.886719-115.488281c5.03125-4.4375 12.195313-5.515625 18.3125-2.757813 6.113281 2.757813 10.046875 8.84375 10.046875 15.554688v109.089843c0 4.714844-3.820312 8.535157-8.535156 8.535157zm-122.496094-17.066407h113.964844v-100.558593zm0 0"/><path d="m494.933594 511.996094h-477.867188c-9.421875-.007813-17.0585935-7.644532-17.066406-17.066406v-187.734376c0-4.710937 3.820312-8.53125 8.535156-8.53125h494.929688c4.714844 0 8.535156 3.820313 8.535156 8.53125v187.734376c-.007812 9.421874-7.644531 17.058593-17.066406 17.066406zm-477.867188-196.265625v179.199219h477.867188v-179.199219zm0 0"/><path d="m115.199219 102.398438h-85.332031c-4.714844 0-8.535157-3.820313-8.535157-8.535157 0-4.710937 3.820313-8.53125 8.535157-8.53125h85.332031c4.714843 0 8.535156 3.820313 8.535156 8.53125 0 4.714844-3.820313 8.535157-8.535156 8.535157zm0 0"/><path d="m119.464844 145.0625h-93.863282c-4.714843 0-8.535156-3.820312-8.535156-8.53125 0-4.714844 3.820313-8.535156 8.535156-8.535156h93.863282c4.714844 0 8.535156 3.820312 8.535156 8.535156 0 4.710938-3.820312 8.53125-8.535156 8.53125zm0 0"/><path d="m264.535156 315.730469h-128c-2.414062 0-4.710937-1.023438-6.328125-2.808594-1.617187-1.789063-2.40625-4.179687-2.164062-6.578125l24.0625-240.640625c1.265625-13.105469 12.304687-23.09375 25.472656-23.039063h45.910156c13.175781-.054687 24.21875 9.941407 25.476563 23.058594l13.652344 136.863282c.339843 3.050781-.984376 6.054687-3.476563 7.855468-2.488281 1.804688-5.753906 2.128906-8.546875.855469-2.796875-1.277344-4.691406-3.957031-4.957031-7.019531l-13.65625-136.875c-.417969-4.371094-4.101563-7.699219-8.492188-7.671875h-45.910156c-4.382813-.027344-8.066406 3.292969-8.492187 7.660156l-23.125 231.273437h118.574218c4.710938 0 8.53125 3.820313 8.53125 8.53125 0 4.714844-3.820312 8.535157-8.53125 8.535157zm0 0"/><path d="m243.199219 102.398438h-85.332031c-4.714844 0-8.535157-3.820313-8.535157-8.535157 0-4.710937 3.820313-8.53125 8.535157-8.53125h85.332031c4.714843 0 8.535156 3.820313 8.535156 8.53125 0 4.714844-3.820313 8.535157-8.535156 8.535157zm0 0"/><path d="m247.464844 145.0625h-93.863282c-4.714843 0-8.535156-3.820312-8.535156-8.53125 0-4.714844 3.820313-8.535156 8.535156-8.535156h93.863282c4.714844 0 8.535156 3.820312 8.535156 8.535156 0 4.710938-3.820312 8.53125-8.535156 8.53125zm0 0"/><path d="m349.867188 315.730469h-128c-4.714844 0-8.535157-3.820313-8.535157-8.535157 0-4.710937 3.820313-8.53125 8.535157-8.53125h128c4.710937 0 8.53125 3.820313 8.53125 8.53125 0 4.714844-3.820313 8.535157-8.53125 8.535157zm0 0"/><path d="m503.464844 469.332031h-307.199219c-4.710937 0-8.53125-3.820312-8.53125-8.535156 0-4.710937 3.820313-8.53125 8.53125-8.53125h307.199219c4.714844 0 8.535156 3.820313 8.535156 8.53125 0 4.714844-3.820312 8.535156-8.535156 8.535156zm0 0"/><path d="m76.800781 469.332031h-68.265625c-4.714844 0-8.535156-3.820312-8.535156-8.535156 0-4.710937 3.820312-8.53125 8.535156-8.53125h68.265625c4.710938 0 8.53125 3.820313 8.53125 8.53125 0 4.714844-3.820312 8.535156-8.53125 8.535156zm0 0"/><path d="m196.265625 511.996094h-119.464844c-4.714843 0-8.535156-3.820313-8.535156-8.53125v-93.867188c.011719-9.421875 7.644531-17.058594 17.066406-17.066406h102.402344c9.421875.007812 17.054687 7.644531 17.066406 17.066406v93.867188c0 4.710937-3.820312 8.53125-8.535156 8.53125zm-110.933594-17.066406h102.402344v-85.332032h-102.402344zm0 0"/><path d="m196.265625 375.464844h-119.464844c-4.714843 0-8.535156-3.820313-8.535156-8.535156 0-4.710938 3.820313-8.53125 8.535156-8.53125h119.464844c4.714844 0 8.535156 3.820312 8.535156 8.53125 0 4.714843-3.820312 8.535156-8.535156 8.535156zm0 0"/><path d="m358.398438 435.195312h-93.863282c-9.421875-.007812-17.058594-7.644531-17.070312-17.066406v-68.265625c.011718-9.421875 7.648437-17.058593 17.070312-17.066406h93.863282c4.714843 0 8.535156 3.820313 8.535156 8.535156v85.332031c0 4.710938-3.820313 8.53125-8.535156 8.53125zm-93.863282-85.332031v68.265625h85.332032v-68.265625zm0 0"/><path d="m307.199219 435.195312c-4.710938 0-8.53125-3.820312-8.53125-8.53125v-85.332031c0-4.714843 3.820312-8.535156 8.53125-8.535156 4.714843 0 8.535156 3.820313 8.535156 8.535156v85.332031c0 4.710938-3.820313 8.53125-8.535156 8.53125zm0 0"/><path d="m358.398438 392.53125h-102.398438c-4.710938 0-8.535156-3.820312-8.535156-8.535156 0-4.710938 3.824218-8.53125 8.535156-8.53125h102.398438c4.714843 0 8.535156 3.820312 8.535156 8.53125 0 4.714844-3.820313 8.535156-8.535156 8.535156zm0 0"/><path d="m452.265625 435.195312h-93.867187c-4.710938 0-8.53125-3.820312-8.53125-8.53125v-85.332031c0-4.714843 3.820312-8.535156 8.53125-8.535156h93.867187c9.421875.007813 17.058594 7.644531 17.066406 17.066406v68.265625c-.007812 9.421875-7.644531 17.058594-17.066406 17.066406zm-85.332031-17.066406h85.347656l-.015625-68.265625h-85.332031zm0 0"/><path d="m409.601562 435.195312c-4.714843 0-8.535156-3.820312-8.535156-8.53125v-85.332031c0-4.714843 3.820313-8.535156 8.535156-8.535156 4.710938 0 8.53125 3.820313 8.53125 8.535156v85.332031c0 4.710938-3.820312 8.53125-8.53125 8.53125zm0 0"/><path d="m460.800781 392.53125h-102.402343c-4.710938 0-8.53125-3.820312-8.53125-8.535156 0-4.710938 3.820312-8.53125 8.53125-8.53125h102.402343c4.710938 0 8.53125 3.820312 8.53125 8.53125 0 4.714844-3.820312 8.535156-8.53125 8.535156zm0 0"/><path d="m136.535156 511.996094c-4.714844 0-8.535156-3.820313-8.535156-8.53125v-102.402344c0-4.710938 3.820312-8.53125 8.535156-8.53125 4.710938 0 8.53125 3.820312 8.53125 8.53125v102.402344c0 4.710937-3.820312 8.53125-8.53125 8.53125zm0 0"/><path d="m452.167969 137.980469c-9.476563 0-18.816407-2.265625-27.234375-6.613281-9.808594-4.984376-18.015625-12.628907-23.683594-22.058594-19.953125 2.414062-39.460938-7.117188-49.824219-24.335938-8.625 1.152344-17.398437-.371094-25.128906-4.363281-1.316406-.675781-2.597656-1.421875-3.835937-2.238281-13.054688 8.550781-30.246094 7.15625-41.753907-3.382813-11.507812-10.542969-14.402343-27.546875-7.027343-41.300781s23.136718-20.753906 38.285156-17.003906c7.332031-9.546875 18.355468-15.550782 30.347656-16.539063 11.996094-.984375 23.851562 3.144531 32.640625 11.363281 14.050781-6.128906 30.121094-5.585937 43.722656 1.480469 4.71875 2.410157 9.023438 5.554688 12.757813 9.3125 23.109375-8.617187 49.140625-2.136719 65.511718 16.308594 16.375 18.445313 19.722657 45.058594 8.429688 66.984375-10.269531 19.910156-30.804688 32.410156-53.207031 32.386719zm-46.289063-46.738281c3.347656.003906 6.382813 1.960937 7.765625 5.011718 3.910157 8.625 10.648438 15.660156 19.097657 19.941406 17.917968 9.25 39.867187 4.691407 52.621093-10.929687 12.753907-15.621094 12.832031-38.039063.183594-53.746094s-34.570313-20.410156-52.550781-11.28125c-3.714844 1.910157-8.269532.847657-10.757813-2.511719-3-4.023437-6.890625-7.300781-11.371093-9.566406-10.585938-5.480468-23.273438-5.007812-33.425782 1.238282-3.785156 2.308593-8.707031 1.328124-11.324218-2.25-2.265626-3.042969-5.203126-5.523438-8.582032-7.242188-6.039062-3.109375-13.0625-3.691406-19.527344-1.621094-6.46875 2.074219-11.84375 6.632813-14.949218 12.671875-2.15625 4.191407-7.300782 5.839844-11.492188 3.683594-7.820312-4.027344-17.421875-1.445313-22.171875 5.960937-4.75 7.402344-3.09375 17.207032 3.828125 22.636719 6.917969 5.433594 16.832032 4.714844 22.898438-1.65625 3.214844-3.402343 8.566406-3.585937 12.003906-.410156 1.789062 1.6875 3.796875 3.121094 5.972656 4.257813 6.007813 3.082031 12.980469 3.683593 19.425782 1.675781 4.164062-1.257813 8.613281.808593 10.332031 4.804687 6.601562 15.523438 23.582031 23.863282 39.902343 19.601563.691407-.175781 1.40625-.265625 2.121094-.265625zm0 0"/><path d="m136.535156 469.332031h-8.535156c-4.710938 0-8.535156-3.820312-8.535156-8.535156 0-4.710937 3.824218-8.53125 8.535156-8.53125h8.535156c4.710938 0 8.53125 3.820313 8.53125 8.53125 0 4.714844-3.820312 8.535156-8.53125 8.535156zm0 0"/><path d="m145.066406 469.332031h-8.53125c-4.714844 0-8.535156-3.820312-8.535156-8.535156 0-4.710937 3.820312-8.53125 8.535156-8.53125h8.53125c4.714844 0 8.535156 3.820313 8.535156 8.53125 0 4.714844-3.820312 8.535156-8.535156 8.535156zm0 0"/></g></svg>