<?xml version="1.0" encoding="iso-8859-1"?>
<!-- Generator: Adobe Illustrator 19.0.0, SVG Export Plug-In . SVG Version: 6.00 Build 0)  -->
<svg version="1.1" id="Capa_1" xmlns="http://www.w3.org/2000/svg" xmlns:xlink="http://www.w3.org/1999/xlink" x="0px" y="0px"
	 viewBox="0 0 512 512" style="enable-background:new 0 0 512 512;" xml:space="preserve">
<g>
	<g>
		<g>
			<path fill="#444F60" d="M171.525,197.125c-43.113,43.121-46.822,111.795-8.604,159.308s106.09,58.61,157.45,25.742l80.445,80.441
				c9.996,9.996,26.204,9.996,36.2,0c9.996-9.996,9.996-26.204,0-36.2l-80.442-80.446c32.894-51.36,21.806-119.253-25.718-157.479
				C283.332,150.265,214.641,153.987,171.525,197.125z M424.95,438.483c3.307,3.343,3.305,8.726-0.004,12.067
				c-3.386,3.196-8.677,3.196-12.063,0l-78.749-78.745c2.144-1.859,4.304-3.693,6.34-5.73c2.037-2.038,3.871-4.197,5.73-6.341
				L424.95,438.483z M328.408,209.192c39.925,40.017,39.925,104.8,0,144.817c-39.981,39.941-104.767,39.919-144.721-0.048
				s-39.954-104.753,0-144.721S288.428,169.251,328.408,209.192z"/>
			<path fill="#444F60" d="M179.2,246.688v68.267c0,4.713,3.82,8.533,8.533,8.533s8.533-3.82,8.533-8.533v-68.267c0-4.713-3.821-8.533-8.533-8.533
				C183.021,238.154,179.2,241.975,179.2,246.688z"/>
			<path fill="#444F60" d="M221.867,323.487c4.713,0,8.533-3.82,8.533-8.533v-68.267c0-4.713-3.821-8.533-8.533-8.533
				c-4.713,0-8.533,3.821-8.533,8.533v68.267C213.333,319.667,217.154,323.487,221.867,323.487z"/>
			<path fill="#444F60" d="M256,323.487c4.713,0,8.533-3.82,8.533-8.533v-68.267c0-4.713-3.82-8.533-8.533-8.533s-8.533,3.82-8.533,8.533v68.267
				C247.467,319.667,251.287,323.487,256,323.487z"/>
			<path fill="#444F60" d="M290.133,323.487c4.713,0,8.533-3.82,8.533-8.533v-68.267c0-4.713-3.82-8.533-8.533-8.533s-8.533,3.82-8.533,8.533
				v68.267C281.6,319.667,285.421,323.487,290.133,323.487z"/>
			<path fill="#444F60" d="M324.267,323.487c4.713,0,8.533-3.82,8.533-8.533v-68.267c0-4.713-3.82-8.533-8.533-8.533s-8.533,3.82-8.533,8.533
				v68.267C315.733,319.667,319.554,323.487,324.267,323.487z"/>
			<path fill="#444F60" d="M494.933,0H17.067C7.645,0.009,0.009,7.645,0,17.067v51.2c0.019,6.07,3.271,11.669,8.533,14.693V486.4
				c0.015,14.132,11.468,25.585,25.6,25.6h443.733c14.132-0.015,25.585-11.468,25.6-25.6V82.96
				c5.262-3.024,8.514-8.624,8.533-14.693v-51.2C511.991,7.645,504.355,0.009,494.933,0z M204.8,17.067h102.4v51.2H204.8V17.067z
				 M298.667,85.333v26.722l-12.333-8.222c-2.867-1.908-6.6-1.908-9.467,0L256,117.746l-20.867-13.912
				c-2.867-1.908-6.6-1.908-9.467,0l-12.333,8.222V85.333H298.667z M17.067,17.067h170.667v51.2H17.067V17.067z M486.4,486.4
				c-0.006,4.71-3.823,8.527-8.533,8.533H34.133c-4.71-0.006-8.527-3.823-8.533-8.533V85.333h170.667V128
				c0,0.27,0.129,0.498,0.154,0.762c0.12,1.138,0.455,2.243,0.987,3.256c0.125,0.232,0.144,0.492,0.293,0.715
				c0.157,0.236,0.402,0.36,0.578,0.576c0.365,0.449,0.776,0.859,1.226,1.222c0.822,0.685,1.775,1.195,2.801,1.498
				c0.548,0.171,1.113,0.285,1.684,0.34c0.267,0.069,0.538,0.123,0.811,0.164c0.273,0,0.504-0.131,0.771-0.156
				c1.136-0.122,2.238-0.456,3.249-0.986c0.23-0.125,0.49-0.143,0.713-0.291l20.867-13.912l20.867,13.912
				c2.867,1.908,6.6,1.908,9.467,0l20.867-13.912l20.867,13.912c0.593,0.279,1.187,0.558,1.78,0.837
				c0.938,0.373,1.936,0.575,2.945,0.597l0.005,0l0.003,0l0.012-0.003c1.013-0.022,2.014-0.224,2.956-0.597
				c0.191-0.071,0.378-0.127,0.562-0.212c0.87-0.392,1.666-0.929,2.356-1.588c0.135-0.13,0.236-0.28,0.363-0.419
				c0.309-0.305,0.593-0.633,0.851-0.981c0.149-0.223,0.168-0.483,0.293-0.715c0.532-1.013,0.867-2.118,0.987-3.256
				c0.024-0.264,0.154-0.492,0.154-0.762V85.333H486.4V486.4z M324.267,68.267v-51.2h170.667l0.012,51.2H324.267z"/>
			<path fill="#444F60" d="M82.833,395.034c-0.078-0.078-0.184-0.101-0.264-0.176c-0.727-0.704-1.575-1.271-2.503-1.674l-0.03-0.007
				c-0.073-0.03-0.151-0.029-0.224-0.056c-0.866-0.322-1.78-0.5-2.704-0.526c-0.28,0-0.56,0.014-0.838,0.043
				c-0.731,0.045-1.453,0.185-2.147,0.418c-0.277,0.083-0.55,0.18-0.817,0.292c-0.942,0.404-1.802,0.975-2.54,1.687l-25.6,25.6
				c-3.281,3.341-3.256,8.701,0.054,12.012c3.311,3.311,8.671,3.335,12.012,0.054l11.034-11.033v47.667
				c0,4.713,3.82,8.533,8.533,8.533s8.533-3.82,8.533-8.533v-47.667L96.367,432.7c2.151,2.178,5.304,3.037,8.262,2.251
				c2.958-0.786,5.269-3.097,6.055-6.055s-0.073-6.111-2.251-8.262L82.833,395.034z"/>
			<path fill="#444F60" d="M159.633,395.034c-0.078-0.078-0.184-0.101-0.264-0.176c-0.727-0.704-1.575-1.271-2.503-1.674l-0.03-0.007
				c-0.073-0.03-0.152-0.028-0.225-0.056c-0.866-0.322-1.779-0.5-2.703-0.527c-0.279,0-0.558,0.014-0.836,0.043
				c-0.733,0.045-1.457,0.186-2.153,0.419c-0.275,0.082-0.546,0.179-0.811,0.289c-0.943,0.404-1.804,0.976-2.542,1.689l-25.6,25.6
				c-3.3,3.338-3.284,8.714,0.035,12.032c3.319,3.319,8.695,3.334,12.032,0.034l11.034-11.033v47.667
				c0,4.713,3.821,8.533,8.533,8.533c4.713,0,8.533-3.82,8.533-8.533v-47.667l11.034,11.034c2.151,2.178,5.304,3.037,8.262,2.251
				s5.269-3.097,6.055-6.055s-0.073-6.111-2.251-8.262L159.633,395.034z"/>
		</g>
	</g>
</g>
<g>
</g>
<g>
</g>
<g>
</g>
<g>
</g>
<g>
</g>
<g>
</g>
<g>
</g>
<g>
</g>
<g>
</g>
<g>
</g>
<g>
</g>
<g>
</g>
<g>
</g>
<g>
</g>
<g>
</g>
</svg>
