<?xml version="1.0" encoding="iso-8859-1"?>
<!-- Generator: Adobe Illustrator 19.0.0, SVG Export Plug-In . SVG Version: 6.00 Build 0)  -->
<svg version="1.1" id="Capa_1" xmlns="http://www.w3.org/2000/svg" xmlns:xlink="http://www.w3.org/1999/xlink" x="0px" y="0px"
	 viewBox="0 0 512 512" style="enable-background:new 0 0 512 512;" xml:space="preserve">
<g>
	<g transform="translate(1 1)">
		<path style="fill:#A4C2F7;" d="M16.067,33.133h477.867V485.4c0,9.426-7.641,17.067-17.067,17.067H33.133
			c-9.426,0-17.067-7.641-17.067-17.067V33.133z"/>
		<path style="fill:#E3E7F2;" d="M16.067,33.133h452.267V485.4c0,9.426-7.641,17.067-17.067,17.067H33.133
			c-9.426,0-17.067-7.641-17.067-17.067V33.133z"/>
		<path style="fill:#A4C2F7;" d="M16.067,7.533h477.867c4.713,0,8.533,3.821,8.533,8.533v51.2c0,4.713-3.821,8.533-8.533,8.533
			H16.067c-4.713,0-8.533-3.821-8.533-8.533v-51.2C7.533,11.354,11.354,7.533,16.067,7.533z"/>
		<path style="fill:#E3E7F2;" d="M16.067,7.533h452.267c4.713,0,8.533,3.821,8.533,8.533v51.2c0,4.713-3.821,8.533-8.533,8.533
			H16.067c-4.713,0-8.533-3.821-8.533-8.533v-51.2C7.533,11.354,11.354,7.533,16.067,7.533z"/>
		<g>
			<rect x="195.267" y="7.533" style="fill:#A4C2F7;" width="119.467" height="68.267"/>
			<polygon style="fill:#A4C2F7;" points="306.2,75.8 306.2,127 280.6,109.933 255,127 229.4,109.933 203.8,127 203.8,75.8 			"/>
		</g>
		<path style="fill:#E3E7F2;" d="M330.336,331.8l99.649,99.649c4.311,4.311,5.995,10.596,4.417,16.485
			c-1.578,5.89-6.178,10.49-12.068,12.068c-5.89,1.578-12.174-0.106-16.485-4.417L306.2,355.936L330.336,331.8z"/>
		
			<linearGradient id="SVGID_1_" gradientUnits="userSpaceOnUse" x1="-49.6327" y1="651.2271" x2="-48.9256" y2="650.52" gradientTransform="matrix(221.8667 0 0 -221.8667 11188.4004 144687.7344)">
			<stop  offset="0" style="stop-color:#D4E1F4"/>
			<stop  offset="0.1717" style="stop-color:#D4E1F4"/>
			<stop  offset="0.2" style="stop-color:#D4E1F4"/>
			<stop  offset="0.2001" style="stop-color:#DAE4F4"/>
			<stop  offset="0.2007" style="stop-color:#EBEBF4"/>
			<stop  offset="0.2014" style="stop-color:#F6F1F4"/>
			<stop  offset="0.2023" style="stop-color:#FDF4F4"/>
			<stop  offset="0.205" style="stop-color:#FFF5F4"/>
			<stop  offset="0.2522" style="stop-color:#FFF5F4"/>
			<stop  offset="0.26" style="stop-color:#FFF5F4"/>
			<stop  offset="0.26" style="stop-color:#D4E1F4"/>
			<stop  offset="0.3974" style="stop-color:#D4E1F4"/>
			<stop  offset="0.42" style="stop-color:#D4E1F4"/>
			<stop  offset="0.4201" style="stop-color:#DAE4F4"/>
			<stop  offset="0.4207" style="stop-color:#EBEBF4"/>
			<stop  offset="0.4214" style="stop-color:#F6F1F4"/>
			<stop  offset="0.4223" style="stop-color:#FDF4F4"/>
			<stop  offset="0.425" style="stop-color:#FFF5F4"/>
			<stop  offset="0.4894" style="stop-color:#FFF5F4"/>
			<stop  offset="0.5" style="stop-color:#FFF5F4"/>
			<stop  offset="0.5" style="stop-color:#F9F2F4"/>
			<stop  offset="0.5001" style="stop-color:#E8EBF4"/>
			<stop  offset="0.5003" style="stop-color:#DDE5F4"/>
			<stop  offset="0.5005" style="stop-color:#D6E2F4"/>
			<stop  offset="0.501" style="stop-color:#D4E1F4"/>
			<stop  offset="0.7062" style="stop-color:#D4E1F4"/>
			<stop  offset="0.74" style="stop-color:#D4E1F4"/>
			<stop  offset="0.741" style="stop-color:#FFF5F4"/>
			<stop  offset="0.8346" style="stop-color:#FFF5F4"/>
			<stop  offset="0.85" style="stop-color:#FFF5F4"/>
			<stop  offset="0.851" style="stop-color:#D4E1F4"/>
		</linearGradient>
		<circle style="fill:url(#SVGID_1_);" cx="255" cy="280.6" r="110.933"/>
		<path style="fill:#FFFFFF;" d="M58.733,502.467h-25.6c-9.414-0.028-17.039-7.653-17.067-17.067V75.8
			c-4.707-0.014-8.519-3.826-8.533-8.533v-51.2c0.014-4.707,3.826-8.519,8.533-8.533h25.6c-4.707,0.014-8.519,3.826-8.533,8.533
			v51.2c0.014,4.707,3.826,8.519,8.533,8.533v409.6C41.694,494.814,49.319,502.439,58.733,502.467z"/>
	</g>
	<g>
		<polygon style="fill:#FFFFFF;" points="25.6,76.8 25.6,187.733 25.6,486.4 8.533,486.4 8.533,187.733 8.533,76.8 		"/>
		<g>
			<path style="fill:#428DFF;" d="M17.067,153.6c2.259-0.034,4.422-0.918,6.059-2.475c3.3-3.365,3.3-8.752,0-12.117l-1.279-1.025
				c-0.476-0.324-0.993-0.583-1.538-0.771c-0.484-0.246-1.003-0.417-1.538-0.509c-0.563-0.096-1.133-0.153-1.704-0.171
				c-2.259,0.031-4.423,0.915-6.059,2.475c-3.221,3.397-3.221,8.72,0,12.117c0.815,0.77,1.77,1.379,2.813,1.792
				C14.847,153.355,15.95,153.587,17.067,153.6z"/>
			<path style="fill:#428DFF;" d="M340.475,197.125c-44.279-44.305-115.261-46.88-162.634-5.9s-55.044,111.593-17.577,161.789
				s107.347,62.924,160.107,29.162l80.445,80.441c9.996,9.996,26.204,9.996,36.2,0c9.996-9.996,9.996-26.204,0-36.2l-80.442-80.446
				C386.755,298.714,380.063,236.835,340.475,197.125z M183.592,354.008c-29.286-29.286-38.047-73.331-22.198-111.595
				s53.189-63.214,94.606-63.214s78.756,24.949,94.606,63.214s7.089,82.309-22.198,111.595
				C288.391,393.933,223.609,393.933,183.592,354.008z M424.95,438.483c3.307,3.343,3.305,8.726-0.004,12.067
				c-3.386,3.196-8.677,3.196-12.062,0l-78.749-78.745c2.144-1.859,4.304-3.693,6.34-5.73c2.037-2.038,3.871-4.197,5.73-6.341
				L424.95,438.483z"/>
			<path style="fill:#428DFF;" d="M187.733,238.154c-4.713,0-8.533,3.821-8.533,8.533v68.267c0,4.713,3.821,8.533,8.533,8.533
				c4.713,0,8.533-3.82,8.533-8.533v-68.267C196.266,241.975,192.446,238.154,187.733,238.154z"/>
			<path style="fill:#428DFF;" d="M221.867,238.154c-4.713,0-8.533,3.821-8.533,8.533v68.267c0,4.713,3.821,8.533,8.533,8.533
				c4.713,0,8.533-3.82,8.533-8.533v-68.267C230.4,241.975,226.579,238.154,221.867,238.154z"/>
			<path style="fill:#428DFF;" d="M256,238.154c-4.713,0-8.533,3.821-8.533,8.533v68.267c0,4.713,3.821,8.533,8.533,8.533
				c4.713,0,8.533-3.82,8.533-8.533v-68.267C264.533,241.975,260.713,238.154,256,238.154z"/>
			<path style="fill:#428DFF;" d="M290.133,238.154c-4.713,0-8.533,3.821-8.533,8.533v68.267c0,4.713,3.821,8.533,8.533,8.533
				c4.713,0,8.533-3.82,8.533-8.533v-68.267C298.666,241.975,294.846,238.154,290.133,238.154z"/>
			<path style="fill:#428DFF;" d="M332.8,314.954v-68.267c0-4.713-3.82-8.533-8.533-8.533s-8.533,3.821-8.533,8.533v68.267
				c0,4.713,3.821,8.533,8.533,8.533S332.8,319.667,332.8,314.954z"/>
			<path style="fill:#428DFF;" d="M494.933,0H17.067C7.645,0.009,0.009,7.645,0,17.067v51.2c0.019,6.069,3.271,11.669,8.533,14.693
				v27.973c0,4.713,3.821,8.533,8.533,8.533s8.533-3.821,8.533-8.533v-25.6h170.667V128c0,0.27,0.129,0.498,0.154,0.762
				c0.12,1.138,0.455,2.243,0.987,3.256c0.125,0.232,0.144,0.492,0.293,0.715c0.157,0.236,0.402,0.36,0.578,0.575
				c0.365,0.449,0.776,0.858,1.226,1.222c0.822,0.685,1.775,1.195,2.801,1.498c0.548,0.171,1.113,0.285,1.684,0.34
				c0.267,0.069,0.538,0.123,0.811,0.164c0.273,0,0.504-0.131,0.771-0.156c1.136-0.122,2.238-0.456,3.249-0.986
				c0.23-0.125,0.49-0.143,0.713-0.291l20.867-13.912l20.867,13.912c2.867,1.908,6.6,1.908,9.467,0l20.867-13.912l20.867,13.912
				c0.593,0.279,1.187,0.558,1.78,0.837c0.938,0.373,1.936,0.575,2.945,0.597l0.005-0.001l0.003,0.001l0.012-0.003
				c1.013-0.022,2.014-0.224,2.956-0.597c0.191-0.071,0.378-0.127,0.561-0.212c0.87-0.392,1.666-0.929,2.356-1.588
				c0.135-0.13,0.236-0.28,0.363-0.419c0.309-0.304,0.593-0.633,0.851-0.981c0.149-0.223,0.168-0.483,0.293-0.715
				c0.532-1.013,0.867-2.118,0.987-3.256c0.024-0.264,0.154-0.492,0.154-0.762V85.333H486.4V486.4
				c-0.006,4.71-3.823,8.527-8.533,8.533H34.133c-4.71-0.006-8.527-3.823-8.533-8.533V179.2c0-4.713-3.821-8.533-8.533-8.533
				s-8.533,3.821-8.533,8.533v307.2c0.015,14.132,11.468,25.585,25.6,25.6h443.733c14.132-0.015,25.585-11.468,25.6-25.6V82.96
				c5.262-3.024,8.514-8.624,8.533-14.693v-51.2C511.991,7.645,504.355,0.009,494.933,0z M307.2,17.067v51.2H204.8v-51.2H307.2z
				 M17.067,17.067h170.667v51.2H17.067V17.067z M298.667,112.056l-12.333-8.222c-2.867-1.908-6.6-1.908-9.467,0L256,117.746
				l-20.867-13.912c-2.867-1.908-6.6-1.908-9.467,0l-12.333,8.222V85.333h85.333V112.056z M324.267,68.267v-51.2h170.667l0.012,51.2
				H324.267z"/>
			<path style="fill:#428DFF;" d="M76.8,477.867c4.713,0,8.533-3.821,8.533-8.533v-47.667L96.367,432.7
				c2.151,2.178,5.304,3.037,8.262,2.251c2.958-0.786,5.269-3.097,6.055-6.055s-0.073-6.111-2.251-8.262l-25.6-25.6
				c-0.078-0.078-0.184-0.101-0.264-0.176c-0.727-0.704-1.575-1.271-2.503-1.674l-0.03-0.007c-0.073-0.03-0.151-0.029-0.224-0.056
				c-0.866-0.322-1.78-0.5-2.704-0.526c-0.28,0-0.56,0.014-0.838,0.043c-0.731,0.045-1.453,0.185-2.147,0.418
				c-0.277,0.083-0.55,0.18-0.817,0.292c-0.942,0.404-1.802,0.975-2.54,1.687l-25.6,25.6c-3.281,3.341-3.256,8.701,0.054,12.012
				s8.671,3.335,12.012,0.054l11.034-11.033v47.667C68.267,474.046,72.087,477.867,76.8,477.867z"/>
			<path style="fill:#428DFF;" d="M121.967,432.7c1.6,1.601,3.77,2.5,6.033,2.5s4.433-0.899,6.033-2.5l11.033-11.033v47.667
				c0,4.713,3.82,8.533,8.533,8.533s8.533-3.821,8.533-8.533v-47.667l11.034,11.034c2.151,2.178,5.304,3.037,8.262,2.251
				c2.958-0.786,5.269-3.097,6.055-6.055s-0.073-6.111-2.251-8.262l-25.6-25.6c-0.078-0.078-0.184-0.101-0.264-0.176
				c-0.727-0.704-1.575-1.271-2.503-1.674l-0.03-0.007c-0.073-0.03-0.152-0.028-0.225-0.056c-0.866-0.322-1.779-0.5-2.703-0.527
				c-0.279,0-0.558,0.014-0.836,0.043c-0.733,0.045-1.457,0.186-2.153,0.419c-0.275,0.082-0.546,0.179-0.811,0.29
				c-0.943,0.404-1.804,0.976-2.542,1.689l-25.6,25.6c-1.6,1.6-2.5,3.77-2.499,6.033S120.366,431.1,121.967,432.7z"/>
		</g>
	</g>
</g>
<g>
</g>
<g>
</g>
<g>
</g>
<g>
</g>
<g>
</g>
<g>
</g>
<g>
</g>
<g>
</g>
<g>
</g>
<g>
</g>
<g>
</g>
<g>
</g>
<g>
</g>
<g>
</g>
<g>
</g>
</svg>
