<svg height="512pt" viewBox="0 0 512 512" width="512pt" xmlns="http://www.w3.org/2000/svg"><path d="m42.667969 136.535156h426.664062v331.601563h-426.664062zm0 0" fill="#7facfa"/><path d="m42.667969 136.535156h401.066406v331.601563h-401.066406zm0 0" fill="#a4c2f7"/><path d="m494.933594 117.113281v35.035157c.296875 17.945312-12.984375 33.222656-30.796875 35.429687-9.585938.941406-19.128907-2.210937-26.265625-8.683594-7.136719-6.472656-11.207032-15.660156-11.203125-25.292969 0 18.851563-15.285157 34.132813-34.132813 34.132813-18.851562 0-34.136718-15.28125-34.136718-34.132813 0 18.851563-15.28125 34.132813-34.132813 34.132813s-34.132813-15.28125-34.132813-34.132813c0 18.851563-15.28125 34.132813-34.132812 34.132813s-34.132812-15.28125-34.132812-34.132813c0 18.851563-15.28125 34.132813-34.132813 34.132813s-34.132813-15.28125-34.132813-34.132813c0 18.851563-15.285156 34.132813-34.136718 34.132813-18.847656 0-34.132813-15.28125-34.132813-34.132813.003907 9.632813-4.066406 18.820313-11.203125 25.289063-7.140625 6.472656-16.679687 9.625-26.265625 8.683594-17.808593-2.203125-31.089843-17.484375-30.796875-35.425781v-35.035157c0-3.992187 1.402344-7.855469 3.957032-10.921875l38.710937-46.457031h392.53125l38.710937 46.453125c2.558594 3.066406 3.957032 6.933594 3.957032 10.925781zm0 0" fill="#e8edfc"/><path d="m76.800781 8.535156h358.398438c9.425781 0 17.066406 7.640625 17.066406 17.066406v34.132813h-392.53125v-34.132813c0-9.425781 7.640625-17.066406 17.066406-17.066406zm0 0" fill="#cad9fc"/><path d="m76.800781 8.535156h324.265625c9.425782 0 17.066406 7.640625 17.066406 17.066406v34.132813h-358.398437v-34.132813c0-9.425781 7.640625-17.066406 17.066406-17.066406zm0 0" fill="#e8edfc"/><path d="m256 230.398438v110.933593c-.011719 4.707031-3.824219 8.519531-8.535156 8.535157h-153.597656c-3.515626-.019532-6.664063-2.183594-7.9375-5.460938-.417969-.96875-.621094-2.019531-.597657-3.074219v-110.933593c.015625-4.707032 3.828125-8.519532 8.535157-8.53125h153.597656c3.519531.019531 6.664062 2.183593 7.9375 5.460937.417968.96875.621094 2.015625.597656 3.070313zm0 0" fill="#cad9fc"/><path d="m230.398438 230.398438v110.933593c-.011719 4.707031-3.824219 8.519531-8.53125 8.535157h-128c-3.515626-.019532-6.664063-2.183594-7.9375-5.460938-.417969-.96875-.621094-2.019531-.597657-3.074219v-110.933593c.015625-4.707032 3.828125-8.519532 8.535157-8.53125h128c3.515624.019531 6.664062 2.183593 7.933593 5.460937.421875.96875.625 2.015625.597657 3.070313zm0 0" fill="#e8edfc"/><path d="m493.738281 110.933594h-475.476562c.621093-1.742188 1.546875-3.359375 2.730469-4.777344l38.742187-46.421875h392.53125l38.742187 46.421875c1.183594 1.417969 2.109376 3.035156 2.730469 4.777344zm0 0" fill="#cad9fc"/><path d="m452.265625 110.933594h-426.664063c.546876-1.71875 1.375-3.332032 2.449219-4.777344l34.765625-46.421875h352.234375l34.765625 46.421875c1.074219 1.445312 1.902344 3.058594 2.449219 4.777344zm0 0" fill="#e8edfc"/><path d="m426.667969 230.398438v230.402343h-119.46875v-230.402343c.015625-4.707032 3.828125-8.519532 8.535156-8.53125h102.398437c4.707032.011718 8.519532 3.824218 8.535157 8.53125zm0 0" fill="#cad9fc"/><path d="m401.066406 230.398438v230.402343h-93.867187v-230.402343c.015625-4.707032 3.828125-8.519532 8.535156-8.53125h76.800781c4.707032.011718 8.519532 3.824218 8.53125 8.53125zm0 0" fill="#e8edfc"/><path d="m349.867188 256h34.132812c4.710938 0 8.535156 3.820312 8.535156 8.535156v34.132813c0 4.710937-3.824218 8.53125-8.535156 8.53125h-34.132812c-4.714844 0-8.535157-3.820313-8.535157-8.53125v-34.132813c0-4.714844 3.820313-8.535156 8.535157-8.535156zm0 0" fill="#cad9fc"/><path d="m349.867188 256h8.53125c4.714843 0 8.535156 3.820312 8.535156 8.535156v34.132813c0 4.710937-3.820313 8.53125-8.535156 8.53125h-8.53125c-4.714844 0-8.535157-3.820313-8.535157-8.53125v-34.132813c0-4.714844 3.820313-8.535156 8.535157-8.535156zm0 0" fill="#e8edfc"/><path d="m25.601562 452.265625h460.796876c9.425781 0 17.066406 7.640625 17.066406 17.066406v25.601563c0 4.710937-3.820313 8.53125-8.53125 8.53125h-477.867188c-4.710937 0-8.53125-3.820313-8.53125-8.53125v-25.601563c0-9.425781 7.640625-17.066406 17.066406-17.066406zm0 0" fill="#cad9fc"/><path d="m25.601562 452.265625h426.664063c9.425781 0 17.066406 7.640625 17.066406 17.066406v25.601563c0 4.710937-3.820312 8.53125-8.53125 8.53125h-443.734375c-4.710937 0-8.53125-3.820313-8.53125-8.53125v-25.601563c0-9.425781 7.640625-17.066406 17.066406-17.066406zm0 0" fill="#e8edfc"/><path d="m17.066406 503.464844h25.601563c-4.714844 0-8.535157-3.820313-8.535157-8.53125v-25.601563c0-9.425781 7.640626-17.066406 17.066407-17.066406h17.066406v-265.722656c-15.28125-4.421875-25.75-18.484375-25.597656-34.394531v-35.035157c.019531-2.519531.597656-5 1.691406-7.265625.574219-1.324218 1.324219-2.566406 2.234375-3.691406l38.738281-46.421875v-34.132813c0-9.425781 7.640625-17.066406 17.066407-17.066406h-25.597657c-9.425781 0-17.066406 7.640625-17.066406 17.066406v34.132813l-38.742187 46.421875c-.90625 1.125-1.660157 2.367188-2.234376 3.691406-1.09375 2.265625-1.671874 4.746094-1.691406 7.265625v35.035157c-.152344 15.910156 10.316406 29.976562 25.601563 34.398437v265.71875h-17.066407c-9.425781 0-17.066406 7.640625-17.066406 17.066406v25.601563c0 4.710937 3.820313 8.53125 8.53125 8.53125zm0 0" fill="#fff"/><path d="m494.933594 512h-477.867188c-9.421875-.007812-17.0585935-7.644531-17.066406-17.066406v-25.601563c.015625-14.128906 11.46875-25.582031 25.601562-25.597656h460.796876c14.132812.015625 25.585937 11.46875 25.601562 25.597656v25.601563c-.007812 9.421875-7.644531 17.058594-17.066406 17.066406zm-469.332032-51.199219c-4.710937.003907-8.527343 3.820313-8.535156 8.53125v25.601563h477.878906l-.011718-25.601563c-.007813-4.710937-3.824219-8.527343-8.535156-8.53125zm0 0" fill="#428dff"/><path d="m51.199219 186.539062v265.726563h-17.066407v-265.726563zm0 0" fill="#fff"/><g fill="#428dff"><path d="m42.667969 229.207031c4.707031-.015625 8.519531-3.828125 8.53125-8.535156v-34.132813h-17.066407v34.132813c.015626 4.707031 3.828126 8.519531 8.535157 8.535156zm0 0"/><path d="m34.132812 452.265625h17.066407v-163.328125c0-4.710938-3.820313-8.53125-8.53125-8.53125-4.714844 0-8.535157 3.820312-8.535157 8.53125zm0 0"/><path d="m51.199219 254.804688c-.03125-2.257813-.917969-4.421876-2.472657-6.058594l-1.28125-1.023438c-.476562-.324218-.992187-.582031-1.535156-.769531-.484375-.246094-1.003906-.417969-1.535156-.511719-.566406-.09375-1.136719-.152344-1.707031-.167968-2.261719.03125-4.425781.914062-6.058594 2.472656-2.070313 1.996094-2.980469 4.910156-2.410156 7.726562.570312 2.820313 2.542969 5.152344 5.226562 6.183594 1.023438.4375 2.125.667969 3.242188.683594 2.269531.023437 4.453125-.871094 6.058593-2.476563 1.605469-1.605469 2.496094-3.789062 2.472657-6.058593zm0 0"/><path d="m469.332031 460.800781h-426.664062c-4.714844 0-8.535157-3.820312-8.535157-8.535156 0-4.710937 3.820313-8.53125 8.535157-8.53125h418.132812v-257.195313c0-4.714843 3.820313-8.535156 8.53125-8.535156 4.714844 0 8.535157 3.820313 8.535157 8.535156v265.726563c0 4.714844-3.820313 8.535156-8.535157 8.535156zm0 0"/><path d="m392.535156 196.265625c-13.4375 0-26.085937-6.332031-34.136718-17.089844-8.046876 10.757813-20.695313 17.089844-34.132813 17.089844-13.433594 0-26.082031-6.332031-34.132813-17.089844-8.046874 10.757813-20.699218 17.089844-34.132812 17.089844s-26.085938-6.332031-34.132812-17.089844c-8.050782 10.757813-20.699219 17.089844-34.132813 17.089844-13.4375 0-26.085937-6.332031-34.132813-17.089844-8.046874 10.753907-20.695312 17.089844-34.128906 17.089844-13.433594.003906-26.082031-6.328125-34.128906-17.082031-8.925781 11.941406-23.449219 18.347656-38.285156 16.886718-22.160156-2.679687-38.757813-21.601562-38.523438-43.921874v-35.035157c.003906-5.988281 2.101563-11.78125 5.925782-16.386719l38.71875-46.453124c1.621093-1.949219 4.019531-3.074219 6.554687-3.074219h392.53125c2.535156 0 4.933594 1.125 6.554687 3.074219l38.714844 46.453124c3.828125 4.601563 5.929688 10.398438 5.929688 16.386719v35.035157c.234375 22.324218-16.363282 41.246093-38.523438 43.925781-14.835937 1.460937-29.359375-4.945313-38.285156-16.890625-8.046875 10.753906-20.691406 17.082031-34.121094 17.082031zm-328.804687-128-36.15625 43.382813c-1.273438 1.535156-1.972657 3.46875-1.972657 5.464843v35.035157c-.292968 13.542968 9.640626 25.140624 23.066407 26.933593 7.214843.757813 14.410156-1.621093 19.753906-6.53125 5.332031-4.859375 8.371094-11.738281 8.378906-18.949219 0-4.714843 3.820313-8.535156 8.53125-8.535156 4.714844 0 8.535157 3.820313 8.535157 8.535156 0 14.136719 11.460937 25.597657 25.597656 25.597657 14.140625 0 25.601562-11.460938 25.601562-25.597657 0-4.714843 3.820313-8.535156 8.535156-8.535156 4.710938 0 8.53125 3.820313 8.53125 8.535156 0 14.136719 11.460938 25.597657 25.601563 25.597657 14.136719 0 25.597656-11.460938 25.597656-25.597657 0-4.714843 3.820313-8.535156 8.535157-8.535156 4.710937 0 8.53125 3.820313 8.53125 8.535156 0 14.136719 11.464843 25.597657 25.601562 25.597657s25.601562-11.460938 25.601562-25.597657c0-4.714843 3.820313-8.535156 8.53125-8.535156 4.714844 0 8.535157 3.820313 8.535157 8.535156 0 14.136719 11.460937 25.597657 25.597656 25.597657 14.140625 0 25.601563-11.460938 25.601563-25.597657 0-4.714843 3.820312-8.535156 8.53125-8.535156 4.714843 0 8.535156 3.820313 8.535156 8.535156 0 14.136719 11.460937 25.597657 25.601562 25.597657 14.136719 0 25.597656-11.460938 25.597656-25.597657 0-4.714843 3.820313-8.535156 8.535157-8.535156 4.710937 0 8.53125 3.820313 8.53125 8.535156.007812 7.210938 3.050781 14.085938 8.378906 18.941407 5.347656 4.902343 12.539063 7.28125 19.753906 6.535156 13.425781-1.792969 23.359375-13.390625 23.066407-26.929687v-35.035157c0-1.996093-.699219-3.929687-1.976563-5.460937l-36.152344-43.386719zm0 0"/><path d="m452.265625 68.265625h-392.53125c-4.714844 0-8.535156-3.820313-8.535156-8.53125v-34.132813c.015625-14.132812 11.46875-25.585937 25.601562-25.601562h358.398438c14.132812.015625 25.585937 11.46875 25.601562 25.601562v34.132813c0 4.710937-3.820312 8.53125-8.535156 8.53125zm-384-17.066406h375.46875v-25.597657c-.007813-4.710937-3.824219-8.527343-8.535156-8.535156h-358.398438c-4.710937.007813-8.527343 3.824219-8.535156 8.535156zm0 0"/><path d="m392.535156 119.464844h-374.273437c-4.714844 0-8.535157-3.820313-8.535157-8.53125 0-4.714844 3.820313-8.535156 8.535157-8.535156h374.273437c4.710938 0 8.53125 3.820312 8.53125 8.535156 0 4.710937-3.820312 8.53125-8.53125 8.53125zm0 0"/><path d="m493.738281 119.464844h-67.070312c-4.714844 0-8.535157-3.820313-8.535157-8.53125 0-4.714844 3.820313-8.535156 8.535157-8.535156h67.070312c4.714844 0 8.535157 3.820312 8.535157 8.535156 0 4.710937-3.820313 8.53125-8.535157 8.53125zm0 0"/><path d="m426.667969 162.132812c-4.714844 0-8.535157-3.820312-8.535157-8.53125v-8.535156c0-4.710937 3.820313-8.53125 8.535157-8.53125 4.710937 0 8.53125 3.820313 8.53125 8.53125v8.535156c0 4.710938-3.820313 8.53125-8.53125 8.53125zm0 0"/><path d="m358.398438 162.132812c-4.710938 0-8.53125-3.820312-8.53125-8.53125v-8.535156c0-4.710937 3.820312-8.53125 8.53125-8.53125 4.714843 0 8.535156 3.820313 8.535156 8.53125v8.535156c0 4.710938-3.820313 8.53125-8.535156 8.53125zm0 0"/><path d="m290.132812 162.132812c-4.710937 0-8.53125-3.820312-8.53125-8.53125v-8.535156c0-4.710937 3.820313-8.53125 8.53125-8.53125 4.714844 0 8.535157 3.820313 8.535157 8.53125v8.535156c0 4.710938-3.820313 8.53125-8.535157 8.53125zm0 0"/><path d="m221.867188 162.132812c-4.714844 0-8.535157-3.820312-8.535157-8.53125v-8.535156c0-4.710937 3.820313-8.53125 8.535157-8.53125 4.710937 0 8.53125 3.820313 8.53125 8.53125v8.535156c0 4.710938-3.820313 8.53125-8.53125 8.53125zm0 0"/><path d="m153.601562 162.132812c-4.714843 0-8.535156-3.820312-8.535156-8.53125v-8.535156c0-4.710937 3.820313-8.53125 8.535156-8.53125 4.710938 0 8.53125 3.820313 8.53125 8.53125v8.535156c0 4.710938-3.820312 8.53125-8.53125 8.53125zm0 0"/><path d="m85.332031 162.132812c-4.710937 0-8.53125-3.820312-8.53125-8.53125v-8.535156c0-4.710937 3.820313-8.53125 8.53125-8.53125 4.714844 0 8.535157 3.820313 8.535157 8.53125v8.535156c0 4.710938-3.820313 8.53125-8.535157 8.53125zm0 0"/><path d="m247.464844 358.398438h-153.597656c-9.421876-.007813-17.058594-7.644532-17.066407-17.066407v-110.933593c.007813-9.421876 7.644531-17.054688 17.066407-17.066407h153.597656c9.421875.011719 17.058594 7.644531 17.070312 17.066407v110.933593c-.011718 9.421875-7.648437 17.058594-17.070312 17.066407zm-153.597656-128v110.933593h153.613281l-.015625-110.933593zm0 0"/><path d="m426.667969 460.800781h-119.46875c-4.710938 0-8.53125-3.820312-8.53125-8.535156v-221.867187c.007812-9.421876 7.644531-17.054688 17.066406-17.066407h102.398437c9.421876.011719 17.058594 7.644531 17.066407 17.066407v221.867187c0 4.714844-3.820313 8.535156-8.53125 8.535156zm-110.933594-17.066406h102.398437v-213.335937h-102.398437zm0 0"/><path d="m384 315.734375h-34.132812c-9.421876-.011719-17.058594-7.644531-17.066407-17.066406v-34.132813c.007813-9.421875 7.644531-17.058594 17.066407-17.070312h34.132812c9.421875.011718 17.058594 7.648437 17.066406 17.070312v34.132813c-.007812 9.421875-7.644531 17.054687-17.066406 17.066406zm-34.132812-51.199219v34.144532l34.132812-.011719v-34.132813zm0 0"/><path d="m349.867188 349.867188h-8.535157c-4.710937 0-8.53125-3.820313-8.53125-8.535157 0-4.710937 3.820313-8.53125 8.53125-8.53125h8.535157c4.710937 0 8.53125 3.820313 8.53125 8.53125 0 4.714844-3.820313 8.535157-8.53125 8.535157zm0 0"/><path d="m85.332031 341.332031c-3.507812.003907-6.660156-2.144531-7.945312-5.414062-1.28125-3.265625-.433594-6.984375 2.136719-9.371094l34.132812-31.695313c3.457031-3.210937 8.855469-3.011718 12.066406.445313 3.207032 3.453125 3.007813 8.855469-.449218 12.0625l-34.132813 31.695313c-1.578125 1.464843-3.652344 2.28125-5.808594 2.277343zm0 0"/><path d="m145.066406 285.867188c-3.507812 0-6.664062-2.148438-7.945312-5.414063-1.285156-3.265625-.433594-6.984375 2.136718-9.375l59.734376-55.464844c3.453124-3.207031 8.855468-3.007812 12.0625.445313 3.207031 3.453125 3.007812 8.855468-.445313 12.0625l-59.734375 55.464844c-1.578125 1.46875-3.652344 2.28125-5.808594 2.28125zm0 0"/><path d="m136.535156 358.398438c-3.511718.003906-6.664062-2.144532-7.949218-5.410157-1.28125-3.269531-.433594-6.988281 2.140624-9.375l76.804688-71.316406c3.46875-3.082031 8.765625-2.828125 11.921875.574219 3.160156 3.40625 3.015625 8.707031-.316406 11.9375l-76.796875 71.308594c-1.578125 1.46875-3.652344 2.285156-5.804688 2.28125zm0 0"/><path d="m237.621094 264.535156c-3.511719 0-6.664063-2.148437-7.945313-5.414062-1.285156-3.269532-.4375-6.988282 2.136719-9.375l18.378906-17.066406c3.453125-3.207032 8.855469-3.007813 12.0625.445312 3.207032 3.453125 3.007813 8.855469-.445312 12.0625l-18.378906 17.066406c-1.578126 1.46875-3.652344 2.28125-5.808594 2.28125zm0 0"/></g></svg>